<?xml version="1.0" encoding="UTF-8"?><!-- Generator: Adobe Illustrator 20.1.0, SVG Export Plug-In . SVG Version: 6.00 Build 0)  --><svg xmlns="http://www.w3.org/2000/svg" xmlns:xlink="http://www.w3.org/1999/xlink" version="1.1" x="0px" y="0px" width="271.366px" height="400px" viewBox="0 0 271.366 400" enable-background="new 0 0 271.366 400" xml:space="preserve">
<g id="Transparent_Background">
	<rect opacity="0" fill="#0071BB" width="271.366" height="400"/>
</g>
<g id="Layer_3">
	<g>
		<linearGradient id="SVGID_1_" gradientUnits="userSpaceOnUse" x1="11.685" y1="200" x2="259.8079" y2="200">
			<stop offset="0" style="stop-color:#BFBFBF"/>
			<stop offset="0.0067" style="stop-color:#ABABAB"/>
			<stop offset="0.0204" style="stop-color:#777777"/>
			<stop offset="0.0336" style="stop-color:#404040"/>
			<stop offset="0.0454" style="stop-color:#505050"/>
			<stop offset="0.0789" style="stop-color:#797979"/>
			<stop offset="0.1156" style="stop-color:#9D9D9D"/>
			<stop offset="0.1549" style="stop-color:#BCBCBC"/>
			<stop offset="0.1979" style="stop-color:#D4D4D4"/>
			<stop offset="0.246" style="stop-color:#E7E7E7"/>
			<stop offset="0.3019" style="stop-color:#F5F5F5"/>
			<stop offset="0.3729" style="stop-color:#FDFDFD"/>
			<stop offset="0.5094" style="stop-color:#FFFFFF"/>
			<stop offset="0.6402" style="stop-color:#FDFDFD"/>
			<stop offset="0.7082" style="stop-color:#F5F5F5"/>
			<stop offset="0.7618" style="stop-color:#E7E7E7"/>
			<stop offset="0.8079" style="stop-color:#D4D4D4"/>
			<stop offset="0.8492" style="stop-color:#BCBCBC"/>
			<stop offset="0.887" style="stop-color:#9D9D9D"/>
			<stop offset="0.9221" style="stop-color:#797979"/>
			<stop offset="0.9544" style="stop-color:#505050"/>
			<stop offset="0.9656" style="stop-color:#404040"/>
			<stop offset="0.9675" style="stop-color:#535353"/>
			<stop offset="0.9714" style="stop-color:#747474"/>
			<stop offset="0.9756" style="stop-color:#909090"/>
			<stop offset="0.9801" style="stop-color:#A5A5A5"/>
			<stop offset="0.9851" style="stop-color:#B4B4B4"/>
			<stop offset="0.991" style="stop-color:#BDBDBD"/>
			<stop offset="1" style="stop-color:#BFBFBF"/>
		</linearGradient>
		<path fill="url(#SVGID_1_)" d="M235.292,400H36.201c-13.54,0-24.516-10.976-24.516-24.516V24.516C11.685,10.976,22.661,0,36.201,0    h199.091c13.54,0,24.516,10.976,24.516,24.516v350.968C259.808,389.024,248.832,400,235.292,400z"/>
		<g>
			<linearGradient id="SVGID_2_" gradientUnits="userSpaceOnUse" x1="141.0755" y1="170.26" x2="31.0755" y2="31.5933">
				<stop offset="0" style="stop-color:#404040"/>
				<stop offset="1" style="stop-color:#7E7F81"/>
			</linearGradient>
			<path fill="url(#SVGID_2_)" d="M22.689,295.729V34.107c0-11.323,9.179-20.503,20.503-20.503h181.624     c11.323,0,20.503,9.179,20.503,20.503v63.122L22.689,295.729z"/>
			<linearGradient id="SVGID_3_" gradientUnits="userSpaceOnUse" x1="113.1475" y1="209.1674" x2="257.1475" y2="388.6674">
				<stop offset="0" style="stop-color:#231F20"/>
				<stop offset="1" style="stop-color:#404040"/>
			</linearGradient>
			<path fill="url(#SVGID_3_)" d="M245.318,97.229v268.664c0,11.323-9.179,20.503-20.503,20.503H43.192     c-11.323,0-20.503-9.179-20.503-20.503v-70.164L245.318,97.229z"/>
		</g>
		<linearGradient id="SVGID_4_" gradientUnits="userSpaceOnUse" x1="153.5669" y1="367.8307" x2="117.2246" y2="337.3359">
			<stop offset="0" style="stop-color:#BFBFBF"/>
			<stop offset="4.112583e-05" style="stop-color:#BFBFBF"/>
			<stop offset="0.0033" style="stop-color:#A4A4A5"/>
			<stop offset="0.0069" style="stop-color:#8E8F90"/>
			<stop offset="0.0112" style="stop-color:#7D7E80"/>
			<stop offset="0.0165" style="stop-color:#727374"/>
			<stop offset="0.024" style="stop-color:#6B6C6E"/>
			<stop offset="0.0447" style="stop-color:#696A6C"/>
			<stop offset="0.074" style="stop-color:#838385"/>
			<stop offset="0.1125" style="stop-color:#9D9D9E"/>
			<stop offset="0.1519" style="stop-color:#B0B0B0"/>
			<stop offset="0.1924" style="stop-color:#BBBBBB"/>
			<stop offset="0.2356" style="stop-color:#BFBFBF"/>
			<stop offset="0.4148" style="stop-color:#ADADAD"/>
			<stop offset="0.5155" style="stop-color:#A1A1A1"/>
			<stop offset="0.7389" style="stop-color:#BFBFBF"/>
			<stop offset="0.8018" style="stop-color:#BCBCBC"/>
			<stop offset="0.8503" style="stop-color:#B2B2B3"/>
			<stop offset="0.8939" style="stop-color:#A2A2A3"/>
			<stop offset="0.9345" style="stop-color:#8B8C8D"/>
			<stop offset="0.9524" style="stop-color:#7E7F81"/>
			<stop offset="0.9729" style="stop-color:#9C9C9D"/>
			<stop offset="1" style="stop-color:#BFBFBF"/>
		</linearGradient>
		<path fill="url(#SVGID_4_)" d="M147.961,371.167H122.83c-3.323,0-6.018-2.694-6.018-6.018v-25.131    c0-3.323,2.694-6.018,6.018-6.018h25.131c3.323,0,6.018,2.694,6.018,6.018v25.131    C153.979,368.472,151.285,371.167,147.961,371.167z"/>
		<path fill="#FFFFFF" d="M234.807,321.031H36.558c-2.278,0-4.125-1.847-4.125-4.125V59.755c0-2.278,1.847-4.125,4.125-4.125    h198.249c2.278,0,4.125,1.847,4.125,4.125v257.151C238.933,319.184,237.086,321.031,234.807,321.031z"/>
		<linearGradient id="SVGID_5_" gradientUnits="userSpaceOnUse" x1="153.2552" y1="51.5535" x2="117.7018" y2="21.7206">
			<stop offset="0" style="stop-color:#BFBFBF"/>
			<stop offset="4.112583e-05" style="stop-color:#BFBFBF"/>
			<stop offset="0.0033" style="stop-color:#A4A4A5"/>
			<stop offset="0.0069" style="stop-color:#8E8F90"/>
			<stop offset="0.0112" style="stop-color:#7D7E80"/>
			<stop offset="0.0165" style="stop-color:#727374"/>
			<stop offset="0.024" style="stop-color:#6B6C6E"/>
			<stop offset="0.0447" style="stop-color:#696A6C"/>
			<stop offset="0.0829" style="stop-color:#8D8E8F"/>
			<stop offset="0.102" style="stop-color:#AEAEAF"/>
			<stop offset="0.1237" style="stop-color:#CBCBCC"/>
			<stop offset="0.1468" style="stop-color:#E2E2E2"/>
			<stop offset="0.1716" style="stop-color:#F2F2F3"/>
			<stop offset="0.1993" style="stop-color:#FCFCFC"/>
			<stop offset="0.2356" style="stop-color:#FFFFFF"/>
			<stop offset="0.3751" style="stop-color:#EDEDED"/>
			<stop offset="0.5155" style="stop-color:#D6D6D6"/>
			<stop offset="0.5433" style="stop-color:#DDDDDD"/>
			<stop offset="0.6651" style="stop-color:#F6F6F6"/>
			<stop offset="0.7389" style="stop-color:#FFFFFF"/>
			<stop offset="0.7823" style="stop-color:#FCFCFC"/>
			<stop offset="0.8157" style="stop-color:#F2F2F2"/>
			<stop offset="0.8458" style="stop-color:#E2E2E2"/>
			<stop offset="0.8738" style="stop-color:#CBCBCB"/>
			<stop offset="0.8981" style="stop-color:#B0B0B1"/>
			<stop offset="0.9311" style="stop-color:#8F8F91"/>
			<stop offset="0.9524" style="stop-color:#7E7F81"/>
			<stop offset="0.9729" style="stop-color:#9C9C9D"/>
			<stop offset="1" style="stop-color:#BFBFBF"/>
		</linearGradient>
		<rect x="106.854" y="34.649" fill="url(#SVGID_5_)" width="57.25" height="3.976"/>
		<g>
			<path fill="#404040" d="M224.815,387H45.976c-11.857,0-21.503-9.646-21.503-21.503V37.042c0-11.857,9.646-21.503,21.503-21.503     h178.839c11.857,0,21.503,9.646,21.503,21.503v328.455C246.318,377.354,236.672,387,224.815,387z M45.976,17.539     c-10.754,0-19.503,8.749-19.503,19.503v328.455c0,10.754,8.749,19.503,19.503,19.503h178.839     c10.754,0,19.503-8.749,19.503-19.503V37.042c0-10.754-8.749-19.503-19.503-19.503H45.976z"/>
		</g>
		<path fill="none" stroke="#FFFFFF" stroke-width="2" stroke-miterlimit="10" d="M226.208,387H44.584    c-11.323,0-20.503-9.179-20.503-20.503V34.711c0-11.323,9.179-20.503,20.503-20.503h181.624c11.323,0,20.503,9.179,20.503,20.503    v331.786C246.71,377.821,237.531,387,226.208,387z"/>
		<g>
			<path fill="#666666" d="M234.767,322.031H36.599c-2.849,0-5.167-2.317-5.167-5.166v-28.932l2-1.767v30.699     c0,1.746,1.42,3.166,3.167,3.166h198.167c1.746,0,3.166-1.42,3.166-3.166V104.042l2-2.011v214.835     C239.933,319.714,237.615,322.031,234.767,322.031z"/>
		</g>
		<g>
			<path fill="#333333" d="M33.433,286.167l-2,1.767V59.795c0-2.849,2.318-5.166,5.167-5.166h198.167     c2.849,0,5.166,2.317,5.166,5.166v42.235l-2,2.011V59.795c0-1.746-1.42-3.166-3.166-3.166H36.599     c-1.746,0-3.167,1.42-3.167,3.166V286.167z"/>
		</g>
		<g>
			<path fill="#666666" d="M162.116,39.125h-53.899c-1.372,0-2.488-1.116-2.488-2.488h1c0,0.82,0.667,1.488,1.488,1.488h53.899     c0.82,0,1.488-0.667,1.488-1.488h1C164.604,38.009,163.487,39.125,162.116,39.125z"/>
		</g>
		<g>
			<path fill="#333333" d="M165.104,36.637h-2c0-0.545-0.443-0.988-0.988-0.988h-53.899c-0.544,0-0.988,0.443-0.988,0.988h-2     c0-1.648,1.34-2.988,2.988-2.988h53.899C163.763,33.649,165.104,34.989,165.104,36.637z"/>
		</g>
		<g>
			<path fill="#666666" d="M149.205,372.167h-27.119c-1.609,0-3.122-0.627-4.259-1.765l1.414-1.414     c0.76,0.76,1.771,1.179,2.845,1.179h27.119c2.219,0,4.024-1.806,4.024-4.024v-27.119c0-1.074-0.418-2.084-1.179-2.845     l1.415-1.414c1.137,1.139,1.764,2.65,1.764,4.259v27.119C155.229,369.465,152.526,372.167,149.205,372.167z"/>
		</g>
		<g>
			<path fill="#333333" d="M117.826,370.402c-1.138-1.138-1.764-2.65-1.764-4.26v-27.119c0-3.321,2.702-6.023,6.023-6.023h27.119     c1.609,0,3.122,0.627,4.26,1.765l-1.414,1.414c-0.76-0.76-1.771-1.179-2.846-1.179h-27.119c-2.219,0-4.023,1.805-4.023,4.023     v27.119c0,1.075,0.418,2.086,1.178,2.846L117.826,370.402z"/>
		</g>
		<g>
			<path fill="#8C8C8C" d="M70.479,350H55.812c0,0-1.75,2.706-1.75,4.714s0,2.619,0,2.619h8.208c0,0,0.125-3.667,1.708-3.667     c1.583,0,6.5,0,6.5,0"/>
			<path fill="#8C8C8C" d="M70.395,350h14.667c0,0,1.75,2.706,1.75,4.714s0,2.619,0,2.619h-8.208c0,0-0.125-3.667-1.708-3.667     c-1.583,0-6.5,0-6.5,0"/>
		</g>
		<g>
			<path fill="#8C8C8C" d="M200.479,350h-14.667c0,0-1.75,2.706-1.75,4.714s0,2.619,0,2.619h8.208c0,0,0.125-3.667,1.708-3.667     s6.5,0,6.5,0"/>
			<path fill="#8C8C8C" d="M200.395,350h14.667c0,0,1.75,2.706,1.75,4.714s0,2.619,0,2.619h-8.208c0,0-0.125-3.667-1.708-3.667     c-1.583,0-6.5,0-6.5,0"/>
		</g>
	</g>
</g>
<g id="Layer_5">
	<g>
		<path d="M44.132,78.257l-1.541,4.665h-1.98l5.039-14.83h2.31l5.061,14.83h-2.046l-1.584-4.665H44.132z M48.995,76.761    l-1.452-4.269c-0.33-0.968-0.55-1.848-0.77-2.706h-0.044c-0.22,0.88-0.462,1.782-0.748,2.684l-1.452,4.291H48.995z"/>
		<path d="M55.066,75.155c0-1.1-0.022-2.002-0.088-2.882h1.716l0.11,1.76h0.044c0.528-1.012,1.76-2.002,3.521-2.002    c1.474,0,3.762,0.88,3.762,4.533v6.359h-1.936v-6.139c0-1.716-0.638-3.146-2.464-3.146c-1.276,0-2.267,0.902-2.597,1.98    c-0.088,0.242-0.132,0.572-0.132,0.902v6.403h-1.936V75.155z"/>
		<path d="M67.276,75.155c0-1.1-0.022-2.002-0.088-2.882h1.716l0.11,1.76h0.044c0.528-1.012,1.76-2.002,3.521-2.002    c1.474,0,3.762,0.88,3.762,4.533v6.359h-1.936v-6.139c0-1.716-0.638-3.146-2.464-3.146c-1.276,0-2.267,0.902-2.597,1.98    c-0.088,0.242-0.132,0.572-0.132,0.902v6.403h-1.936V75.155z"/>
		<path d="M85.382,82.922l-0.154-1.342h-0.066c-0.594,0.836-1.738,1.584-3.257,1.584c-2.156,0-3.256-1.519-3.256-3.059    c0-2.574,2.289-3.982,6.403-3.96v-0.22c0-0.88-0.242-2.464-2.42-2.464c-0.99,0-2.024,0.308-2.772,0.792l-0.44-1.276    c0.88-0.572,2.157-0.946,3.499-0.946c3.257,0,4.049,2.222,4.049,4.356v3.983c0,0.924,0.044,1.826,0.176,2.552H85.382z     M85.097,77.487c-2.112-0.044-4.511,0.33-4.511,2.398c0,1.254,0.836,1.849,1.826,1.849c1.386,0,2.266-0.88,2.574-1.782    c0.066-0.198,0.11-0.418,0.11-0.616V77.487z"/>
		<path d="M88.835,85.628c0.484-1.298,1.078-3.653,1.32-5.259l2.156-0.22c-0.506,1.87-1.474,4.312-2.09,5.347L88.835,85.628z"/>
		<path d="M41.47,106.989c0.858,0.528,2.112,0.968,3.433,0.968c1.958,0,3.103-1.034,3.103-2.53c0-1.386-0.792-2.178-2.794-2.948    c-2.42-0.858-3.917-2.112-3.917-4.203c0-2.311,1.914-4.027,4.796-4.027c1.518,0,2.619,0.352,3.278,0.726l-0.528,1.562    c-0.484-0.264-1.474-0.704-2.816-0.704c-2.024,0-2.794,1.21-2.794,2.222c0,1.386,0.902,2.068,2.948,2.86    c2.508,0.968,3.785,2.178,3.785,4.357c0,2.288-1.694,4.269-5.193,4.269c-1.43,0-2.992-0.418-3.784-0.946L41.47,106.989z"/>
		<path d="M62.283,103.909c0,3.938-2.729,5.655-5.303,5.655c-2.882,0-5.105-2.112-5.105-5.479c0-3.564,2.333-5.655,5.281-5.655    C60.215,98.43,62.283,100.652,62.283,103.909z M53.834,104.019c0,2.333,1.342,4.093,3.234,4.093c1.848,0,3.234-1.738,3.234-4.137    c0-1.804-0.902-4.093-3.19-4.093C54.824,99.882,53.834,101.995,53.834,104.019z"/>
		<path d="M64.724,101.995c0-1.254-0.022-2.332-0.088-3.322h1.694l0.066,2.09h0.088c0.484-1.43,1.65-2.333,2.948-2.333    c0.22,0,0.374,0.022,0.55,0.066v1.826c-0.198-0.044-0.396-0.066-0.66-0.066c-1.364,0-2.333,1.034-2.597,2.486    c-0.044,0.264-0.088,0.572-0.088,0.902v5.677h-1.914V101.995z"/>
		<path d="M72.005,101.995c0-1.254-0.022-2.332-0.088-3.322h1.694l0.066,2.09h0.088c0.484-1.43,1.65-2.333,2.948-2.333    c0.22,0,0.374,0.022,0.55,0.066v1.826c-0.198-0.044-0.396-0.066-0.66-0.066c-1.364,0-2.333,1.034-2.597,2.486    c-0.044,0.264-0.088,0.572-0.088,0.902v5.677h-1.914V101.995z"/>
		<path d="M80.454,98.672l2.332,6.293c0.242,0.704,0.506,1.54,0.682,2.178h0.044c0.198-0.638,0.418-1.452,0.682-2.223l2.112-6.249    h2.046l-2.904,7.591c-1.386,3.653-2.333,5.523-3.653,6.667c-0.946,0.836-1.892,1.167-2.376,1.254l-0.484-1.628    c0.484-0.154,1.122-0.462,1.694-0.946c0.528-0.418,1.188-1.167,1.628-2.157c0.088-0.198,0.154-0.352,0.154-0.462    s-0.044-0.264-0.132-0.506l-3.938-9.813H80.454z"/>
		<path d="M95.479,98.672l2.332,6.293c0.242,0.704,0.506,1.54,0.682,2.178h0.044c0.198-0.638,0.418-1.452,0.682-2.223l2.112-6.249    h2.046l-2.904,7.591c-1.386,3.653-2.333,5.523-3.653,6.667c-0.946,0.836-1.892,1.167-2.376,1.254l-0.484-1.628    c0.484-0.154,1.122-0.462,1.694-0.946c0.528-0.418,1.188-1.167,1.628-2.157c0.088-0.198,0.154-0.352,0.154-0.462    s-0.044-0.264-0.132-0.506l-3.938-9.813H95.479z"/>
		<path d="M114.554,103.909c0,3.938-2.729,5.655-5.303,5.655c-2.882,0-5.105-2.112-5.105-5.479c0-3.564,2.333-5.655,5.281-5.655    C112.486,98.43,114.554,100.652,114.554,103.909z M106.105,104.019c0,2.333,1.342,4.093,3.234,4.093    c1.848,0,3.234-1.738,3.234-4.137c0-1.804-0.902-4.093-3.19-4.093C107.095,99.882,106.105,101.995,106.105,104.019z"/>
		<path d="M125.906,106.417c0,1.1,0.022,2.068,0.088,2.904h-1.716l-0.11-1.738h-0.044c-0.506,0.858-1.628,1.98-3.521,1.98    c-1.672,0-3.675-0.924-3.675-4.665v-6.227h1.937v5.897c0,2.024,0.616,3.388,2.376,3.388c1.298,0,2.2-0.902,2.552-1.76    c0.11-0.286,0.176-0.638,0.176-0.99v-6.535h1.937V106.417z"/>
		<path d="M133.781,101.555c0-1.1-0.022-2.002-0.088-2.882h1.694l0.088,1.716h0.066c0.594-1.012,1.584-1.958,3.344-1.958    c1.452,0,2.552,0.88,3.015,2.134h0.044c0.33-0.594,0.748-1.056,1.188-1.386c0.638-0.484,1.342-0.748,2.354-0.748    c1.408,0,3.499,0.924,3.499,4.621v6.271h-1.893v-6.029c0-2.046-0.748-3.278-2.31-3.278c-1.1,0-1.958,0.814-2.289,1.76    c-0.088,0.264-0.154,0.616-0.154,0.968v6.579h-1.893v-6.381c0-1.694-0.748-2.926-2.222-2.926c-1.21,0-2.09,0.968-2.398,1.936    c-0.11,0.286-0.154,0.616-0.154,0.946v6.425h-1.892V101.555z"/>
		<path d="M154.285,95.68c0.022,0.66-0.462,1.188-1.232,1.188c-0.682,0-1.166-0.528-1.166-1.188c0-0.682,0.506-1.21,1.21-1.21    C153.822,94.47,154.285,94.998,154.285,95.68z M152.128,109.322V98.672h1.936v10.649H152.128z"/>
		<path d="M157.012,107.341c0.572,0.374,1.584,0.771,2.552,0.771c1.408,0,2.068-0.704,2.068-1.584c0-0.924-0.55-1.43-1.98-1.958    c-1.914-0.682-2.816-1.738-2.816-3.015c0-1.716,1.386-3.125,3.675-3.125c1.078,0,2.024,0.308,2.618,0.66l-0.484,1.408    c-0.418-0.264-1.188-0.616-2.178-0.616c-1.145,0-1.782,0.66-1.782,1.452c0,0.88,0.638,1.276,2.024,1.804    c1.849,0.704,2.794,1.628,2.794,3.213c0,1.87-1.452,3.19-3.982,3.19c-1.166,0-2.244-0.286-2.993-0.726L157.012,107.341z"/>
		<path d="M165.724,107.341c0.572,0.374,1.584,0.771,2.552,0.771c1.408,0,2.068-0.704,2.068-1.584c0-0.924-0.55-1.43-1.98-1.958    c-1.914-0.682-2.816-1.738-2.816-3.015c0-1.716,1.386-3.125,3.675-3.125c1.078,0,2.024,0.308,2.618,0.66l-0.484,1.408    c-0.418-0.264-1.188-0.616-2.178-0.616c-1.145,0-1.782,0.66-1.782,1.452c0,0.88,0.638,1.276,2.024,1.804    c1.849,0.704,2.794,1.628,2.794,3.213c0,1.87-1.452,3.19-3.982,3.19c-1.166,0-2.244-0.286-2.993-0.726L165.724,107.341z"/>
		<path d="M175.778,104.349c0.044,2.618,1.716,3.696,3.652,3.696c1.386,0,2.222-0.242,2.948-0.55l0.33,1.386    c-0.682,0.308-1.848,0.66-3.542,0.66c-3.278,0-5.237-2.156-5.237-5.369c0-3.212,1.893-5.743,4.995-5.743    c3.476,0,4.4,3.059,4.4,5.017c0,0.396-0.044,0.704-0.066,0.902H175.778z M181.455,102.963c0.022-1.232-0.506-3.146-2.685-3.146    c-1.958,0-2.816,1.804-2.97,3.146H181.455z"/>
		<path d="M194.919,93.7v12.872c0,0.946,0.022,2.024,0.088,2.75h-1.738l-0.088-1.848h-0.044c-0.594,1.188-1.893,2.09-3.631,2.09    c-2.574,0-4.555-2.178-4.555-5.413c-0.022-3.542,2.179-5.721,4.775-5.721c1.628,0,2.729,0.77,3.212,1.628h0.044V93.7H194.919z     M192.983,103.007c0-0.242-0.022-0.572-0.088-0.814c-0.286-1.232-1.342-2.245-2.794-2.245c-2.002,0-3.19,1.76-3.19,4.115    c0,2.156,1.056,3.938,3.146,3.938c1.298,0,2.486-0.858,2.838-2.31c0.066-0.264,0.088-0.528,0.088-0.836V103.007z"/>
		<path d="M44,122.014v3.059h2.772v1.474H44v5.743c0,1.32,0.374,2.068,1.452,2.068c0.506,0,0.88-0.066,1.122-0.132l0.088,1.452    c-0.374,0.154-0.968,0.264-1.716,0.264c-0.902,0-1.628-0.286-2.09-0.814c-0.55-0.572-0.748-1.518-0.748-2.772v-5.809h-1.65v-1.474    h1.65v-2.553L44,122.014z"/>
		<path d="M58.455,130.309c0,3.938-2.729,5.655-5.303,5.655c-2.882,0-5.105-2.112-5.105-5.479c0-3.564,2.333-5.655,5.281-5.655    C56.387,124.83,58.455,127.052,58.455,130.309z M50.006,130.419c0,2.333,1.342,4.093,3.234,4.093c1.848,0,3.234-1.738,3.234-4.137    c0-1.804-0.902-4.093-3.19-4.093C50.996,126.282,50.006,128.395,50.006,130.419z"/>
		<path d="M70.093,120.1v12.872c0,0.946,0.022,2.024,0.088,2.75h-1.738l-0.088-1.848h-0.044c-0.594,1.188-1.893,2.09-3.631,2.09    c-2.574,0-4.555-2.179-4.555-5.413c-0.022-3.542,2.179-5.721,4.775-5.721c1.628,0,2.729,0.77,3.212,1.628h0.044V120.1H70.093z     M68.157,129.407c0-0.242-0.022-0.572-0.088-0.814c-0.286-1.232-1.342-2.245-2.794-2.245c-2.002,0-3.19,1.76-3.19,4.115    c0,2.156,1.056,3.938,3.146,3.938c1.298,0,2.486-0.858,2.838-2.31c0.066-0.264,0.088-0.528,0.088-0.836V129.407z"/>
		<path d="M79.2,135.722l-0.154-1.342H78.98c-0.594,0.836-1.738,1.584-3.257,1.584c-2.156,0-3.256-1.519-3.256-3.059    c0-2.574,2.289-3.982,6.403-3.96v-0.22c0-0.88-0.242-2.464-2.42-2.464c-0.99,0-2.024,0.308-2.772,0.792l-0.44-1.276    c0.88-0.572,2.156-0.946,3.499-0.946c3.257,0,4.049,2.222,4.049,4.356v3.983c0,0.924,0.044,1.826,0.176,2.552H79.2z     M78.914,130.287c-2.112-0.044-4.51,0.33-4.51,2.398c0,1.254,0.836,1.849,1.826,1.849c1.386,0,2.266-0.88,2.574-1.782    c0.066-0.198,0.11-0.418,0.11-0.616V130.287z"/>
		<path d="M84.436,125.072l2.332,6.293c0.242,0.704,0.506,1.54,0.682,2.178h0.044c0.198-0.638,0.418-1.452,0.682-2.222l2.112-6.249    h2.046l-2.904,7.591c-1.386,3.653-2.333,5.523-3.653,6.667c-0.946,0.836-1.892,1.167-2.376,1.254l-0.484-1.628    c0.484-0.154,1.122-0.462,1.694-0.946c0.528-0.418,1.188-1.166,1.628-2.156c0.088-0.198,0.154-0.352,0.154-0.462    s-0.044-0.264-0.132-0.506l-3.938-9.813H84.436z"/>
		<path d="M97.195,120.649c-0.506,1.848-1.452,4.203-2.068,5.215l-1.232,0.154c0.484-1.298,1.056-3.586,1.298-5.17L97.195,120.649z"/>
		<path d="M97.459,133.741c0.572,0.374,1.584,0.771,2.552,0.771c1.408,0,2.068-0.704,2.068-1.584c0-0.924-0.55-1.43-1.98-1.958    c-1.914-0.682-2.816-1.738-2.816-3.014c0-1.716,1.386-3.125,3.675-3.125c1.078,0,2.024,0.308,2.618,0.66l-0.484,1.408    c-0.418-0.264-1.188-0.616-2.178-0.616c-1.145,0-1.782,0.66-1.782,1.452c0,0.88,0.638,1.276,2.024,1.804    c1.849,0.704,2.794,1.628,2.794,3.213c0,1.87-1.452,3.19-3.982,3.19c-1.166,0-2.244-0.286-2.993-0.726L97.459,133.741z"/>
		<path d="M118.69,135.326c-0.506,0.264-1.628,0.616-3.059,0.616c-3.212,0-5.303-2.179-5.303-5.435c0-3.278,2.245-5.655,5.721-5.655    c1.144,0,2.156,0.286,2.684,0.55l-0.44,1.496c-0.462-0.264-1.188-0.506-2.244-0.506c-2.442,0-3.763,1.804-3.763,4.026    c0,2.464,1.584,3.982,3.696,3.982c1.101,0,1.827-0.286,2.376-0.528L118.69,135.326z"/>
		<path d="M120.955,120.1h1.936v15.622h-1.936V120.1z"/>
		<path d="M132.043,135.722l-0.154-1.342h-0.066c-0.594,0.836-1.738,1.584-3.257,1.584c-2.156,0-3.256-1.519-3.256-3.059    c0-2.574,2.289-3.982,6.403-3.96v-0.22c0-0.88-0.242-2.464-2.42-2.464c-0.99,0-2.024,0.308-2.772,0.792l-0.44-1.276    c0.88-0.572,2.157-0.946,3.499-0.946c3.257,0,4.049,2.222,4.049,4.356v3.983c0,0.924,0.044,1.826,0.176,2.552H132.043z     M131.758,130.287c-2.112-0.044-4.511,0.33-4.511,2.398c0,1.254,0.836,1.849,1.826,1.849c1.386,0,2.266-0.88,2.574-1.782    c0.066-0.198,0.11-0.418,0.11-0.616V130.287z"/>
		<path d="M136.487,133.741c0.572,0.374,1.584,0.771,2.552,0.771c1.408,0,2.068-0.704,2.068-1.584c0-0.924-0.55-1.43-1.98-1.958    c-1.914-0.682-2.816-1.738-2.816-3.014c0-1.716,1.386-3.125,3.675-3.125c1.078,0,2.024,0.308,2.618,0.66l-0.484,1.408    c-0.418-0.264-1.188-0.616-2.178-0.616c-1.145,0-1.782,0.66-1.782,1.452c0,0.88,0.638,1.276,2.024,1.804    c1.849,0.704,2.794,1.628,2.794,3.213c0,1.87-1.452,3.19-3.982,3.19c-1.166,0-2.244-0.286-2.993-0.726L136.487,133.741z"/>
		<path d="M145.199,133.741c0.572,0.374,1.584,0.771,2.552,0.771c1.408,0,2.068-0.704,2.068-1.584c0-0.924-0.55-1.43-1.98-1.958    c-1.914-0.682-2.816-1.738-2.816-3.014c0-1.716,1.386-3.125,3.675-3.125c1.078,0,2.024,0.308,2.618,0.66l-0.484,1.408    c-0.418-0.264-1.188-0.616-2.178-0.616c-1.145,0-1.782,0.66-1.782,1.452c0,0.88,0.638,1.276,2.024,1.804    c1.849,0.704,2.794,1.628,2.794,3.213c0,1.87-1.452,3.19-3.982,3.19c-1.166,0-2.244-0.286-2.993-0.726L145.199,133.741z"/>
		<path d="M153.471,134.578c0-0.814,0.55-1.386,1.32-1.386s1.298,0.572,1.298,1.386c0,0.792-0.506,1.386-1.32,1.386    C153.999,135.964,153.471,135.37,153.471,134.578z"/>
		<path d="M163.216,121.089c1.166-0.176,2.552-0.308,4.07-0.308c2.75,0,4.709,0.638,6.007,1.848c1.32,1.21,2.09,2.926,2.09,5.325    c0,2.42-0.748,4.4-2.134,5.765c-1.386,1.386-3.674,2.134-6.557,2.134c-1.364,0-2.508-0.066-3.477-0.176V121.089z M165.13,134.204    c0.484,0.088,1.188,0.11,1.937,0.11c4.092,0,6.315-2.288,6.315-6.293c0.022-3.499-1.958-5.721-6.007-5.721    c-0.99,0-1.738,0.088-2.245,0.198V134.204z"/>
		<path d="M187.527,130.309c0,3.938-2.729,5.655-5.303,5.655c-2.882,0-5.105-2.112-5.105-5.479c0-3.564,2.333-5.655,5.281-5.655    C185.459,124.83,187.527,127.052,187.527,130.309z M179.078,130.419c0,2.333,1.342,4.093,3.234,4.093    c1.848,0,3.234-1.738,3.234-4.137c0-1.804-0.902-4.093-3.19-4.093C180.068,126.282,179.078,128.395,179.078,130.419z"/>
		<path d="M189.968,127.955c0-1.1-0.022-2.002-0.088-2.882h1.716l0.11,1.76h0.044c0.528-1.012,1.76-2.002,3.521-2.002    c1.474,0,3.762,0.88,3.762,4.533v6.359h-1.936v-6.139c0-1.716-0.638-3.146-2.464-3.146c-1.276,0-2.267,0.902-2.597,1.98    c-0.088,0.242-0.132,0.572-0.132,0.902v6.403h-1.936V127.955z"/>
		<path d="M203.895,120.649c-0.506,1.848-1.453,4.203-2.068,5.215l-1.232,0.154c0.484-1.298,1.056-3.586,1.298-5.17L203.895,120.649    z"/>
		<path d="M208.096,122.014v3.059h2.772v1.474h-2.772v5.743c0,1.32,0.374,2.068,1.452,2.068c0.506,0,0.88-0.066,1.123-0.132    l0.088,1.452c-0.374,0.154-0.968,0.264-1.716,0.264c-0.902,0-1.628-0.286-2.09-0.814c-0.55-0.572-0.748-1.518-0.748-2.772v-5.809    h-1.65v-1.474h1.65v-2.553L208.096,122.014z"/>
		<path d="M41.866,162.122v-9.175H40.37v-1.474h1.496v-0.506c0-1.496,0.33-2.86,1.232-3.718c0.726-0.704,1.694-0.99,2.596-0.99    c0.682,0,1.276,0.154,1.65,0.308l-0.264,1.496c-0.286-0.132-0.682-0.242-1.232-0.242c-1.65,0-2.068,1.453-2.068,3.081v0.572h2.574    v1.474H43.78v9.175H41.866z"/>
		<path d="M57.443,156.709c0,3.938-2.729,5.655-5.303,5.655c-2.882,0-5.105-2.112-5.105-5.479c0-3.564,2.333-5.655,5.281-5.655    C55.375,151.23,57.443,153.453,57.443,156.709z M48.994,156.819c0,2.333,1.342,4.093,3.234,4.093c1.848,0,3.234-1.738,3.234-4.137    c0-1.804-0.902-4.093-3.19-4.093C49.984,152.683,48.994,154.795,48.994,156.819z"/>
		<path d="M59.884,154.795c0-1.254-0.022-2.332-0.088-3.322h1.694l0.066,2.09h0.088c0.484-1.43,1.65-2.333,2.948-2.333    c0.22,0,0.374,0.022,0.55,0.066v1.826c-0.198-0.044-0.396-0.066-0.66-0.066c-1.364,0-2.333,1.034-2.597,2.486    c-0.044,0.264-0.088,0.572-0.088,0.902v5.677h-1.914V154.795z"/>
		<path d="M76.077,151.473c-0.044,0.77-0.088,1.628-0.088,2.926v6.183c0,2.442-0.484,3.938-1.518,4.862    c-1.034,0.968-2.53,1.276-3.873,1.276c-1.276,0-2.685-0.308-3.542-0.88l0.484-1.475c0.704,0.44,1.804,0.836,3.125,0.836    c1.98,0,3.433-1.034,3.433-3.719v-1.188h-0.044c-0.594,0.99-1.738,1.782-3.389,1.782c-2.64,0-4.533-2.244-4.533-5.193    c0-3.608,2.354-5.655,4.797-5.655c1.848,0,2.86,0.968,3.322,1.848h0.044l0.088-1.606H76.077z M74.075,155.675    c0-0.33-0.022-0.616-0.11-0.88c-0.352-1.122-1.298-2.046-2.707-2.046c-1.848,0-3.168,1.562-3.168,4.027    c0,2.09,1.056,3.829,3.146,3.829c1.188,0,2.266-0.748,2.685-1.98c0.11-0.33,0.154-0.704,0.154-1.034V155.675z"/>
		<path d="M80.278,157.149c0.044,2.618,1.716,3.696,3.652,3.696c1.386,0,2.222-0.242,2.948-0.55l0.33,1.386    c-0.682,0.308-1.848,0.66-3.542,0.66c-3.278,0-5.237-2.157-5.237-5.369s1.893-5.743,4.995-5.743c3.476,0,4.4,3.059,4.4,5.017    c0,0.396-0.044,0.704-0.066,0.902H80.278z M85.955,155.763c0.022-1.232-0.506-3.146-2.685-3.146c-1.958,0-2.816,1.804-2.97,3.146    H85.955z"/>
		<path d="M92.554,148.414v3.059h2.772v1.474h-2.772v5.743c0,1.32,0.374,2.068,1.452,2.068c0.506,0,0.88-0.066,1.122-0.132    l0.088,1.452c-0.374,0.154-0.968,0.264-1.716,0.264c-0.902,0-1.628-0.286-2.09-0.814c-0.55-0.572-0.748-1.518-0.748-2.772v-5.809    h-1.65v-1.474h1.65v-2.553L92.554,148.414z"/>
		<path d="M108.064,162.122l-0.154-1.342h-0.066c-0.594,0.836-1.738,1.584-3.257,1.584c-2.156,0-3.256-1.519-3.256-3.059    c0-2.574,2.289-3.982,6.403-3.96v-0.22c0-0.88-0.242-2.464-2.42-2.464c-0.99,0-2.024,0.308-2.772,0.792l-0.44-1.276    c0.88-0.572,2.157-0.946,3.499-0.946c3.257,0,4.049,2.222,4.049,4.356v3.983c0,0.924,0.044,1.826,0.176,2.552H108.064z     M107.778,156.688c-2.112-0.044-4.511,0.33-4.511,2.398c0,1.254,0.836,1.849,1.826,1.849c1.386,0,2.266-0.88,2.574-1.782    c0.066-0.198,0.11-0.418,0.11-0.616V156.688z"/>
		<path d="M112.683,162.122c0.044-0.726,0.088-1.804,0.088-2.75V146.5h1.914v6.689h0.044c0.682-1.188,1.915-1.958,3.63-1.958    c2.641,0,4.511,2.2,4.489,5.435c0,3.807-2.398,5.699-4.774,5.699c-1.541,0-2.772-0.594-3.565-2.002h-0.066l-0.088,1.76H112.683z     M114.685,157.854c0,0.242,0.044,0.484,0.088,0.704c0.374,1.342,1.497,2.266,2.905,2.266c2.024,0,3.234-1.65,3.234-4.092    c0-2.134-1.1-3.961-3.168-3.961c-1.32,0-2.553,0.902-2.949,2.376c-0.044,0.22-0.11,0.484-0.11,0.792V157.854z"/>
		<path d="M134.926,156.709c0,3.938-2.729,5.655-5.303,5.655c-2.882,0-5.105-2.112-5.105-5.479c0-3.564,2.333-5.655,5.281-5.655    C132.858,151.23,134.926,153.453,134.926,156.709z M126.477,156.819c0,2.333,1.342,4.093,3.234,4.093    c1.848,0,3.234-1.738,3.234-4.137c0-1.804-0.902-4.093-3.19-4.093C127.467,152.683,126.477,154.795,126.477,156.819z"/>
		<path d="M146.278,159.218c0,1.1,0.022,2.068,0.088,2.904h-1.716l-0.11-1.738h-0.044c-0.506,0.858-1.628,1.98-3.521,1.98    c-1.672,0-3.675-0.924-3.675-4.665v-6.227h1.937v5.896c0,2.024,0.616,3.389,2.376,3.389c1.298,0,2.2-0.902,2.552-1.76    c0.11-0.286,0.176-0.638,0.176-0.99v-6.535h1.937V159.218z"/>
		<path d="M151.821,148.414v3.059h2.772v1.474h-2.772v5.743c0,1.32,0.374,2.068,1.452,2.068c0.506,0,0.88-0.066,1.123-0.132    l0.088,1.452c-0.374,0.154-0.968,0.264-1.716,0.264c-0.902,0-1.628-0.286-2.09-0.814c-0.55-0.572-0.748-1.518-0.748-2.772v-5.809    h-1.65v-1.474h1.65v-2.553L151.821,148.414z"/>
		<path d="M163.766,148.414v3.059h2.772v1.474h-2.772v5.743c0,1.32,0.374,2.068,1.452,2.068c0.506,0,0.88-0.066,1.123-0.132    l0.088,1.452c-0.374,0.154-0.968,0.264-1.716,0.264c-0.902,0-1.628-0.286-2.09-0.814c-0.55-0.572-0.748-1.518-0.748-2.772v-5.809    h-1.65v-1.474h1.65v-2.553L163.766,148.414z"/>
		<path d="M168.716,146.5h1.936v6.645h0.044c0.308-0.55,0.792-1.034,1.386-1.364c0.572-0.33,1.254-0.55,1.98-0.55    c1.43,0,3.718,0.88,3.718,4.555v6.337h-1.936v-6.117c0-1.716-0.638-3.168-2.464-3.168c-1.254,0-2.245,0.88-2.597,1.936    c-0.11,0.264-0.132,0.55-0.132,0.924v6.425h-1.936V146.5z"/>
		<path d="M182.004,157.149c0.044,2.618,1.716,3.696,3.652,3.696c1.386,0,2.222-0.242,2.948-0.55l0.33,1.386    c-0.682,0.308-1.848,0.66-3.542,0.66c-3.278,0-5.237-2.157-5.237-5.369s1.893-5.743,4.995-5.743c3.476,0,4.4,3.059,4.4,5.017    c0,0.396-0.044,0.704-0.066,0.902H182.004z M187.681,155.763c0.022-1.232-0.506-3.146-2.685-3.146    c-1.958,0-2.816,1.804-2.97,3.146H187.681z"/>
		<path d="M41.668,172.9h1.936v6.645h0.044c0.308-0.55,0.792-1.034,1.386-1.364c0.572-0.33,1.254-0.55,1.98-0.55    c1.43,0,3.718,0.88,3.718,4.555v6.337h-1.936v-6.117c0-1.716-0.638-3.168-2.464-3.168c-1.254,0-2.245,0.88-2.597,1.936    c-0.11,0.264-0.132,0.55-0.132,0.924v6.425h-1.936V172.9z"/>
		<path d="M56.034,174.88c0.022,0.66-0.462,1.188-1.232,1.188c-0.682,0-1.166-0.528-1.166-1.188c0-0.682,0.506-1.21,1.21-1.21    C55.572,173.67,56.034,174.198,56.034,174.88z M53.878,188.522v-10.649h1.936v10.649H53.878z"/>
		<path d="M58.762,186.542c0.572,0.374,1.584,0.771,2.552,0.771c1.408,0,2.068-0.704,2.068-1.584c0-0.924-0.55-1.43-1.98-1.958    c-1.914-0.682-2.816-1.738-2.816-3.015c0-1.716,1.386-3.125,3.675-3.125c1.078,0,2.024,0.308,2.618,0.66l-0.484,1.408    c-0.418-0.264-1.188-0.616-2.178-0.616c-1.145,0-1.782,0.66-1.782,1.452c0,0.88,0.638,1.276,2.024,1.804    c1.849,0.704,2.794,1.628,2.794,3.213c0,1.87-1.452,3.19-3.982,3.19c-1.166,0-2.244-0.286-2.993-0.726L58.762,186.542z"/>
		<path d="M70.07,174.814v3.059h2.772v1.474H70.07v5.743c0,1.32,0.374,2.068,1.452,2.068c0.506,0,0.88-0.066,1.123-0.132    l0.088,1.452c-0.374,0.154-0.968,0.264-1.716,0.264c-0.902,0-1.628-0.286-2.09-0.814c-0.55-0.572-0.748-1.518-0.748-2.772v-5.809    h-1.65v-1.474h1.65v-2.552L70.07,174.814z"/>
		<path d="M84.525,183.109c0,3.938-2.729,5.655-5.303,5.655c-2.882,0-5.105-2.112-5.105-5.479c0-3.564,2.333-5.655,5.281-5.655    C82.457,177.63,84.525,179.853,84.525,183.109z M76.076,183.219c0,2.333,1.342,4.093,3.234,4.093c1.848,0,3.234-1.738,3.234-4.137    c0-1.804-0.902-4.093-3.19-4.093C77.066,179.083,76.076,181.195,76.076,183.219z"/>
		<path d="M86.965,181.195c0-1.254-0.022-2.332-0.088-3.322h1.694l0.066,2.09h0.088c0.484-1.43,1.65-2.333,2.948-2.333    c0.22,0,0.374,0.022,0.55,0.066v1.826c-0.198-0.044-0.396-0.066-0.66-0.066c-1.364,0-2.333,1.034-2.597,2.486    c-0.044,0.264-0.088,0.572-0.088,0.902v5.677h-1.914V181.195z"/>
		<path d="M95.413,177.873l2.332,6.293c0.242,0.704,0.506,1.54,0.682,2.178h0.044c0.198-0.638,0.418-1.452,0.682-2.223l2.112-6.249    h2.046l-2.904,7.591c-1.386,3.653-2.333,5.523-3.653,6.667c-0.946,0.836-1.892,1.167-2.376,1.254l-0.484-1.628    c0.484-0.154,1.122-0.462,1.694-0.946c0.528-0.418,1.188-1.167,1.628-2.157c0.088-0.198,0.154-0.352,0.154-0.462    s-0.044-0.264-0.132-0.506l-3.938-9.813H95.413z"/>
		<path d="M109.735,181.349c0-1.364-0.044-2.464-0.088-3.477h1.738l0.088,1.826h0.044c0.792-1.298,2.046-2.068,3.784-2.068    c2.575,0,4.511,2.178,4.511,5.413c0,3.829-2.332,5.721-4.841,5.721c-1.408,0-2.64-0.616-3.278-1.672h-0.044v5.787h-1.914V181.349z     M111.649,184.188c0,0.286,0.044,0.55,0.088,0.792c0.352,1.342,1.519,2.266,2.905,2.266c2.046,0,3.234-1.672,3.234-4.114    c0-2.134-1.122-3.961-3.168-3.961c-1.32,0-2.553,0.946-2.927,2.398c-0.066,0.242-0.132,0.528-0.132,0.792V184.188z"/>
		<path d="M122.252,181.195c0-1.254-0.022-2.332-0.088-3.322h1.694l0.066,2.09h0.088c0.484-1.43,1.65-2.333,2.948-2.333    c0.22,0,0.374,0.022,0.55,0.066v1.826c-0.198-0.044-0.396-0.066-0.66-0.066c-1.364,0-2.333,1.034-2.597,2.486    c-0.044,0.264-0.088,0.572-0.088,0.902v5.677h-1.914V181.195z"/>
		<path d="M138.864,183.109c0,3.938-2.729,5.655-5.303,5.655c-2.882,0-5.105-2.112-5.105-5.479c0-3.564,2.333-5.655,5.281-5.655    C136.795,177.63,138.864,179.853,138.864,183.109z M130.415,183.219c0,2.333,1.342,4.093,3.234,4.093    c1.848,0,3.234-1.738,3.234-4.137c0-1.804-0.902-4.093-3.19-4.093C131.405,179.083,130.415,181.195,130.415,183.219z"/>
		<path d="M138.708,191.603c0.88-0.066,1.65-0.308,2.112-0.814c0.528-0.616,0.726-1.452,0.726-4.004v-8.911h1.937v9.659    c0,2.068-0.33,3.411-1.276,4.379c-0.858,0.858-2.266,1.21-3.3,1.21L138.708,191.603z M143.703,174.88    c0.022,0.638-0.44,1.188-1.21,1.188c-0.726,0-1.188-0.55-1.188-1.188c0-0.682,0.506-1.21,1.232-1.21    C143.241,173.67,143.703,174.198,143.703,174.88z"/>
		<path d="M147.729,183.549c0.044,2.618,1.716,3.696,3.652,3.696c1.386,0,2.222-0.242,2.948-0.55l0.33,1.386    c-0.682,0.308-1.848,0.66-3.542,0.66c-3.278,0-5.237-2.156-5.237-5.369c0-3.212,1.893-5.743,4.995-5.743    c3.476,0,4.4,3.059,4.4,5.017c0,0.396-0.044,0.704-0.066,0.902H147.729z M153.405,182.163c0.022-1.232-0.506-3.146-2.685-3.146    c-1.958,0-2.816,1.804-2.97,3.146H153.405z"/>
		<path d="M165.263,188.126c-0.506,0.264-1.628,0.616-3.059,0.616c-3.212,0-5.303-2.179-5.303-5.435    c0-3.278,2.245-5.655,5.721-5.655c1.144,0,2.156,0.286,2.684,0.55l-0.44,1.496c-0.462-0.264-1.188-0.506-2.244-0.506    c-2.442,0-3.763,1.805-3.763,4.027c0,2.464,1.584,3.982,3.696,3.982c1.101,0,1.827-0.286,2.376-0.528L165.263,188.126z"/>
		<path d="M170.146,174.814v3.059h2.772v1.474h-2.772v5.743c0,1.32,0.374,2.068,1.452,2.068c0.506,0,0.88-0.066,1.123-0.132    l0.088,1.452c-0.374,0.154-0.968,0.264-1.716,0.264c-0.902,0-1.628-0.286-2.09-0.814c-0.55-0.572-0.748-1.518-0.748-2.772v-5.809    h-1.65v-1.474h1.65v-2.552L170.146,174.814z"/>
		<path d="M180.529,177.873l1.408,5.413c0.308,1.188,0.594,2.289,0.792,3.389h0.066c0.242-1.078,0.594-2.223,0.946-3.367    l1.738-5.435h1.628l1.65,5.325c0.396,1.276,0.704,2.398,0.946,3.477h0.066c0.176-1.078,0.462-2.2,0.814-3.455l1.519-5.347h1.914    l-3.433,10.649h-1.76l-1.628-5.083c-0.374-1.188-0.682-2.245-0.946-3.499h-0.044c-0.264,1.276-0.594,2.376-0.968,3.521    l-1.716,5.061h-1.76l-3.212-10.649H180.529z"/>
		<path d="M196.81,183.549c0.044,2.618,1.716,3.696,3.652,3.696c1.386,0,2.222-0.242,2.948-0.55l0.33,1.386    c-0.682,0.308-1.848,0.66-3.542,0.66c-3.278,0-5.237-2.156-5.237-5.369c0-3.212,1.893-5.743,4.995-5.743    c3.476,0,4.4,3.059,4.4,5.017c0,0.396-0.044,0.704-0.066,0.902H196.81z M202.486,182.163c0.022-1.232-0.506-3.146-2.685-3.146    c-1.958,0-2.816,1.804-2.97,3.146H202.486z"/>
		<path d="M208.645,173.45c-0.506,1.848-1.453,4.203-2.068,5.215l-1.232,0.154c0.484-1.298,1.056-3.586,1.298-5.17L208.645,173.45z"/>
		<path d="M209.899,181.195c0-1.254-0.022-2.332-0.088-3.322h1.694l0.066,2.09h0.088c0.484-1.43,1.65-2.333,2.948-2.333    c0.22,0,0.374,0.022,0.55,0.066v1.826c-0.198-0.044-0.396-0.066-0.66-0.066c-1.364,0-2.333,1.034-2.597,2.486    c-0.044,0.264-0.088,0.572-0.088,0.902v5.677h-1.914V181.195z"/>
		<path d="M217.952,183.549c0.044,2.618,1.716,3.696,3.652,3.696c1.386,0,2.222-0.242,2.948-0.55l0.33,1.386    c-0.682,0.308-1.848,0.66-3.542,0.66c-3.278,0-5.237-2.156-5.237-5.369c0-3.212,1.893-5.743,4.995-5.743    c3.476,0,4.4,3.059,4.4,5.017c0,0.396-0.044,0.704-0.066,0.902H217.952z M223.628,182.163c0.022-1.232-0.506-3.146-2.685-3.146    c-1.958,0-2.816,1.804-2.97,3.146H223.628z"/>
		<path d="M42.438,204.272l1.408,5.413c0.308,1.188,0.594,2.289,0.792,3.389h0.066c0.242-1.078,0.594-2.223,0.946-3.367l1.738-5.435    h1.628l1.65,5.325c0.396,1.276,0.704,2.398,0.946,3.477h0.066c0.176-1.078,0.462-2.201,0.814-3.455l1.519-5.347h1.914    l-3.433,10.649h-1.76l-1.628-5.083c-0.374-1.188-0.682-2.245-0.946-3.499h-0.044c-0.264,1.276-0.594,2.376-0.968,3.521    l-1.716,5.061h-1.76l-3.212-10.649H42.438z"/>
		<path d="M67.277,209.509c0,3.938-2.729,5.655-5.303,5.655c-2.882,0-5.105-2.112-5.105-5.479c0-3.564,2.333-5.655,5.281-5.655    C65.209,204.03,67.277,206.252,67.277,209.509z M58.828,209.619c0,2.333,1.342,4.093,3.234,4.093c1.848,0,3.234-1.738,3.234-4.137    c0-1.804-0.902-4.093-3.19-4.093C59.818,205.482,58.828,207.595,58.828,209.619z"/>
		<path d="M69.718,207.595c0-1.254-0.022-2.332-0.088-3.322h1.694l0.066,2.09h0.088c0.484-1.43,1.65-2.333,2.948-2.333    c0.22,0,0.374,0.022,0.55,0.066v1.826c-0.198-0.044-0.396-0.066-0.66-0.066c-1.364,0-2.333,1.034-2.597,2.486    c-0.044,0.264-0.088,0.572-0.088,0.902v5.677h-1.914V207.595z"/>
		<path d="M78.914,209.157h0.044c0.264-0.374,0.638-0.836,0.946-1.21l3.125-3.674h2.332l-4.114,4.378l4.687,6.271h-2.354    l-3.674-5.104l-0.99,1.1v4.004h-1.914V199.3h1.914V209.157z"/>
		<path d="M89.848,201.28c0.022,0.66-0.462,1.188-1.232,1.188c-0.682,0-1.166-0.528-1.166-1.188c0-0.682,0.506-1.21,1.21-1.21    C89.385,200.07,89.848,200.598,89.848,201.28z M87.691,214.922v-10.649h1.936v10.649H87.691z"/>
		<path d="M92.839,207.155c0-1.1-0.022-2.002-0.088-2.882h1.716l0.11,1.76h0.044c0.528-1.012,1.76-2.002,3.521-2.002    c1.474,0,3.762,0.88,3.762,4.533v6.359h-1.936v-6.139c0-1.716-0.638-3.146-2.464-3.146c-1.276,0-2.267,0.902-2.597,1.98    c-0.088,0.242-0.132,0.572-0.132,0.902v6.403h-1.936V207.155z"/>
		<path d="M114.225,204.272c-0.044,0.77-0.088,1.628-0.088,2.926v6.183c0,2.442-0.484,3.938-1.518,4.862    c-1.034,0.968-2.53,1.276-3.873,1.276c-1.276,0-2.685-0.308-3.542-0.88l0.484-1.475c0.704,0.44,1.804,0.836,3.125,0.836    c1.98,0,3.433-1.034,3.433-3.719v-1.188H112.2c-0.594,0.99-1.738,1.782-3.389,1.782c-2.64,0-4.533-2.244-4.533-5.193    c0-3.608,2.354-5.655,4.797-5.655c1.848,0,2.86,0.968,3.322,1.848h0.044l0.088-1.606H114.225z M112.222,208.475    c0-0.33-0.022-0.616-0.11-0.88c-0.352-1.122-1.298-2.046-2.707-2.046c-1.848,0-3.168,1.562-3.168,4.027    c0,2.09,1.056,3.829,3.146,3.829c1.188,0,2.266-0.748,2.685-1.98c0.11-0.33,0.154-0.704,0.154-1.034V208.475z"/>
		<path d="M131.648,209.509c0,3.938-2.729,5.655-5.303,5.655c-2.882,0-5.105-2.112-5.105-5.479c0-3.564,2.333-5.655,5.281-5.655    C129.58,204.03,131.648,206.252,131.648,209.509z M123.199,209.619c0,2.333,1.342,4.093,3.234,4.093    c1.848,0,3.234-1.738,3.234-4.137c0-1.804-0.902-4.093-3.19-4.093C124.189,205.482,123.199,207.595,123.199,209.619z"/>
		<path d="M134.089,207.155c0-1.1-0.022-2.002-0.088-2.882h1.716l0.11,1.76h0.044c0.528-1.012,1.76-2.002,3.521-2.002    c1.474,0,3.762,0.88,3.762,4.533v6.359h-1.936v-6.139c0-1.716-0.638-3.146-2.464-3.146c-1.276,0-2.267,0.902-2.597,1.98    c-0.088,0.242-0.132,0.572-0.132,0.902v6.403h-1.936V207.155z"/>
		<path d="M153.294,201.214v3.059h2.772v1.474h-2.772v5.743c0,1.32,0.374,2.068,1.452,2.068c0.506,0,0.88-0.066,1.123-0.132    l0.088,1.452c-0.374,0.154-0.968,0.264-1.716,0.264c-0.902,0-1.628-0.286-2.09-0.814c-0.55-0.572-0.748-1.518-0.748-2.772v-5.809    h-1.65v-1.474h1.65v-2.553L153.294,201.214z"/>
		<path d="M167.749,209.509c0,3.938-2.729,5.655-5.303,5.655c-2.882,0-5.105-2.112-5.105-5.479c0-3.564,2.333-5.655,5.281-5.655    C165.681,204.03,167.749,206.252,167.749,209.509z M159.3,209.619c0,2.333,1.342,4.093,3.234,4.093    c1.848,0,3.234-1.738,3.234-4.137c0-1.804-0.902-4.093-3.19-4.093C160.291,205.482,159.3,207.595,159.3,209.619z"/>
		<path d="M179.366,204.272c-0.044,0.77-0.088,1.628-0.088,2.926v6.183c0,2.442-0.484,3.938-1.518,4.862    c-1.034,0.968-2.53,1.276-3.873,1.276c-1.276,0-2.685-0.308-3.542-0.88l0.484-1.475c0.704,0.44,1.805,0.836,3.125,0.836    c1.98,0,3.433-1.034,3.433-3.719v-1.188h-0.044c-0.594,0.99-1.738,1.782-3.389,1.782c-2.64,0-4.533-2.244-4.533-5.193    c0-3.608,2.354-5.655,4.797-5.655c1.848,0,2.86,0.968,3.322,1.848h0.044l0.088-1.606H179.366z M177.363,208.475    c0-0.33-0.022-0.616-0.11-0.88c-0.352-1.122-1.298-2.046-2.707-2.046c-1.848,0-3.168,1.562-3.168,4.027    c0,2.09,1.056,3.829,3.146,3.829c1.188,0,2.266-0.748,2.684-1.98c0.11-0.33,0.154-0.704,0.154-1.034V208.475z"/>
		<path d="M183.566,209.949c0.044,2.618,1.716,3.696,3.652,3.696c1.386,0,2.222-0.242,2.948-0.55l0.33,1.386    c-0.682,0.308-1.848,0.66-3.542,0.66c-3.278,0-5.237-2.157-5.237-5.369s1.893-5.743,4.995-5.743c3.476,0,4.4,3.059,4.4,5.017    c0,0.396-0.044,0.704-0.066,0.902H183.566z M189.243,208.563c0.022-1.232-0.506-3.146-2.685-3.146    c-1.958,0-2.816,1.804-2.97,3.146H189.243z"/>
		<path d="M195.842,201.214v3.059h2.772v1.474h-2.772v5.743c0,1.32,0.374,2.068,1.452,2.068c0.506,0,0.88-0.066,1.122-0.132    l0.088,1.452c-0.374,0.154-0.968,0.264-1.716,0.264c-0.902,0-1.628-0.286-2.09-0.814c-0.55-0.572-0.748-1.518-0.748-2.772v-5.809    h-1.65v-1.474h1.65v-2.553L195.842,201.214z"/>
		<path d="M200.791,199.3h1.936v6.645h0.044c0.308-0.55,0.792-1.034,1.386-1.364c0.572-0.33,1.254-0.55,1.98-0.55    c1.43,0,3.718,0.88,3.718,4.555v6.337h-1.936v-6.117c0-1.716-0.638-3.168-2.464-3.168c-1.254,0-2.245,0.88-2.597,1.936    c-0.11,0.264-0.132,0.55-0.132,0.924v6.425h-1.936V199.3z"/>
		<path d="M214.08,209.949c0.044,2.618,1.716,3.696,3.652,3.696c1.386,0,2.222-0.242,2.948-0.55l0.33,1.386    c-0.682,0.308-1.848,0.66-3.542,0.66c-3.278,0-5.237-2.157-5.237-5.369s1.893-5.743,4.995-5.743c3.476,0,4.4,3.059,4.4,5.017    c0,0.396-0.044,0.704-0.066,0.902H214.08z M219.756,208.563c0.022-1.232-0.506-3.146-2.685-3.146c-1.958,0-2.816,1.804-2.97,3.146    H219.756z"/>
		<path d="M224.023,207.595c0-1.254-0.022-2.332-0.088-3.322h1.694l0.066,2.09h0.088c0.484-1.43,1.65-2.333,2.948-2.333    c0.22,0,0.374,0.022,0.55,0.066v1.826c-0.198-0.044-0.396-0.066-0.66-0.066c-1.364,0-2.333,1.034-2.597,2.486    c-0.044,0.264-0.088,0.572-0.088,0.902v5.677h-1.914V207.595z"/>
		<path d="M46.156,234.655v1.43h-5.435v-1.43H46.156z"/>
		<path d="M55.417,227.614v3.059h2.772v1.474h-2.772v5.743c0,1.32,0.374,2.068,1.452,2.068c0.506,0,0.88-0.066,1.123-0.132    l0.088,1.452c-0.374,0.154-0.968,0.264-1.716,0.264c-0.902,0-1.628-0.286-2.09-0.814c-0.55-0.572-0.748-1.518-0.748-2.772v-5.809    h-1.65v-1.474h1.65v-2.552L55.417,227.614z"/>
		<path d="M60.367,225.7h1.936v6.645h0.044c0.308-0.55,0.792-1.034,1.386-1.364c0.572-0.33,1.254-0.55,1.98-0.55    c1.43,0,3.718,0.88,3.718,4.555v6.337h-1.936v-6.117c0-1.716-0.638-3.168-2.464-3.168c-1.254,0-2.245,0.88-2.597,1.936    c-0.11,0.264-0.132,0.55-0.132,0.924v6.425h-1.936V225.7z"/>
		<path d="M73.655,236.349c0.044,2.618,1.716,3.696,3.652,3.696c1.386,0,2.222-0.242,2.948-0.55l0.33,1.386    c-0.682,0.308-1.848,0.66-3.542,0.66c-3.278,0-5.237-2.156-5.237-5.369c0-3.212,1.893-5.743,4.995-5.743    c3.476,0,4.4,3.059,4.4,5.017c0,0.396-0.044,0.704-0.066,0.902H73.655z M79.332,234.963c0.022-1.232-0.506-3.146-2.685-3.146    c-1.958,0-2.816,1.804-2.97,3.146H79.332z"/>
		<path d="M90.595,227.614v3.059h2.772v1.474h-2.772v5.743c0,1.32,0.374,2.068,1.452,2.068c0.506,0,0.88-0.066,1.122-0.132    l0.088,1.452c-0.374,0.154-0.968,0.264-1.716,0.264c-0.902,0-1.628-0.286-2.09-0.814c-0.55-0.572-0.748-1.518-0.748-2.772v-5.809    h-1.65v-1.474h1.65v-2.552L90.595,227.614z"/>
		<path d="M96.491,236.349c0.044,2.618,1.716,3.696,3.652,3.696c1.386,0,2.222-0.242,2.948-0.55l0.33,1.386    c-0.682,0.308-1.848,0.66-3.542,0.66c-3.278,0-5.237-2.156-5.237-5.369c0-3.212,1.893-5.743,4.995-5.743    c3.476,0,4.4,3.059,4.4,5.017c0,0.396-0.044,0.704-0.066,0.902H96.491z M102.167,234.963c0.022-1.232-0.506-3.146-2.685-3.146    c-1.958,0-2.816,1.804-2.97,3.146H102.167z"/>
		<path d="M112.331,241.322l-0.154-1.342h-0.066c-0.594,0.836-1.738,1.584-3.257,1.584c-2.156,0-3.256-1.519-3.256-3.059    c0-2.574,2.289-3.982,6.403-3.96v-0.22c0-0.88-0.242-2.464-2.42-2.464c-0.99,0-2.024,0.308-2.772,0.792l-0.44-1.276    c0.88-0.572,2.156-0.946,3.499-0.946c3.257,0,4.049,2.222,4.049,4.356v3.983c0,0.924,0.044,1.826,0.176,2.552H112.331z     M112.045,235.887c-2.112-0.044-4.51,0.33-4.51,2.398c0,1.254,0.836,1.849,1.826,1.849c1.386,0,2.266-0.88,2.574-1.782    c0.066-0.198,0.11-0.418,0.11-0.616V235.887z"/>
		<path d="M124.629,240.926c-0.506,0.264-1.628,0.616-3.059,0.616c-3.212,0-5.303-2.179-5.303-5.435    c0-3.278,2.245-5.655,5.721-5.655c1.144,0,2.156,0.286,2.684,0.55l-0.44,1.496c-0.462-0.264-1.188-0.506-2.244-0.506    c-2.442,0-3.763,1.805-3.763,4.027c0,2.464,1.584,3.982,3.696,3.982c1.101,0,1.827-0.286,2.376-0.528L124.629,240.926z"/>
		<path d="M126.895,225.7h1.936v6.645h0.044c0.308-0.55,0.792-1.034,1.386-1.364c0.572-0.33,1.254-0.55,1.98-0.55    c1.43,0,3.718,0.88,3.718,4.555v6.337h-1.936v-6.117c0-1.716-0.638-3.168-2.464-3.168c-1.254,0-2.245,0.88-2.597,1.936    c-0.11,0.264-0.132,0.55-0.132,0.924v6.425h-1.936V225.7z"/>
		<path d="M140.183,236.349c0.044,2.618,1.716,3.696,3.652,3.696c1.386,0,2.222-0.242,2.948-0.55l0.33,1.386    c-0.682,0.308-1.848,0.66-3.542,0.66c-3.278,0-5.237-2.156-5.237-5.369c0-3.212,1.893-5.743,4.995-5.743    c3.476,0,4.4,3.059,4.4,5.017c0,0.396-0.044,0.704-0.066,0.902H140.183z M145.859,234.963c0.022-1.232-0.506-3.146-2.685-3.146    c-1.958,0-2.816,1.804-2.97,3.146H145.859z"/>
		<path d="M150.126,233.995c0-1.254-0.022-2.332-0.088-3.322h1.694l0.066,2.09h0.088c0.484-1.43,1.65-2.333,2.948-2.333    c0.22,0,0.374,0.022,0.55,0.066v1.826c-0.198-0.044-0.396-0.066-0.66-0.066c-1.364,0-2.333,1.034-2.597,2.486    c-0.044,0.264-0.088,0.572-0.088,0.902v5.677h-1.914V233.995z"/>
		<path d="M162.754,230.672l1.408,5.413c0.308,1.188,0.594,2.289,0.792,3.389h0.066c0.242-1.078,0.594-2.223,0.946-3.367    l1.738-5.435h1.628l1.65,5.325c0.396,1.276,0.704,2.398,0.946,3.477h0.066c0.176-1.078,0.462-2.2,0.814-3.455l1.519-5.347h1.914    l-3.433,10.649h-1.76l-1.628-5.083c-0.374-1.188-0.682-2.245-0.946-3.499h-0.044c-0.264,1.276-0.594,2.376-0.968,3.521    l-1.716,5.061h-1.76l-3.212-10.649H162.754z"/>
		<path d="M183.984,241.322l-0.154-1.342h-0.066c-0.594,0.836-1.738,1.584-3.257,1.584c-2.156,0-3.256-1.519-3.256-3.059    c0-2.574,2.289-3.982,6.403-3.96v-0.22c0-0.88-0.242-2.464-2.42-2.464c-0.99,0-2.024,0.308-2.772,0.792l-0.44-1.276    c0.88-0.572,2.156-0.946,3.499-0.946c3.257,0,4.049,2.222,4.049,4.356v3.983c0,0.924,0.044,1.826,0.176,2.552H183.984z     M183.698,235.887c-2.112-0.044-4.51,0.33-4.51,2.398c0,1.254,0.836,1.849,1.826,1.849c1.386,0,2.266-0.88,2.574-1.782    c0.066-0.198,0.11-0.418,0.11-0.616V235.887z"/>
		<path d="M188.691,233.555c0-1.1-0.022-2.002-0.088-2.882h1.716l0.11,1.76h0.044c0.528-1.012,1.76-2.002,3.521-2.002    c1.474,0,3.762,0.88,3.762,4.533v6.359h-1.936v-6.139c0-1.716-0.638-3.146-2.464-3.146c-1.276,0-2.267,0.902-2.597,1.98    c-0.088,0.242-0.132,0.572-0.132,0.902v6.403h-1.936V233.555z"/>
		<path d="M203.145,227.614v3.059h2.772v1.474h-2.772v5.743c0,1.32,0.374,2.068,1.452,2.068c0.506,0,0.88-0.066,1.122-0.132    l0.088,1.452c-0.374,0.154-0.968,0.264-1.716,0.264c-0.902,0-1.628-0.286-2.09-0.814c-0.55-0.572-0.748-1.518-0.748-2.772v-5.809    h-1.65v-1.474h1.65v-2.552L203.145,227.614z"/>
		<path d="M207.831,239.341c0.572,0.374,1.584,0.771,2.552,0.771c1.408,0,2.068-0.704,2.068-1.584c0-0.924-0.55-1.43-1.98-1.958    c-1.914-0.682-2.816-1.738-2.816-3.015c0-1.716,1.386-3.125,3.675-3.125c1.078,0,2.024,0.308,2.618,0.66l-0.484,1.408    c-0.418-0.264-1.188-0.616-2.178-0.616c-1.145,0-1.782,0.66-1.782,1.452c0,0.88,0.638,1.276,2.024,1.804    c1.849,0.704,2.794,1.628,2.794,3.213c0,1.87-1.452,3.19-3.982,3.19c-1.166,0-2.244-0.286-2.993-0.726L207.831,239.341z"/>
		<path d="M43.824,254.08c0.022,0.66-0.462,1.188-1.232,1.188c-0.682,0-1.166-0.527-1.166-1.188c0-0.683,0.506-1.211,1.21-1.211    C43.362,252.869,43.824,253.397,43.824,254.08z M41.668,267.722v-10.649h1.936v10.649H41.668z"/>
		<path d="M49.148,254.014v3.059h2.772v1.474h-2.772v5.743c0,1.32,0.374,2.068,1.452,2.068c0.506,0,0.88-0.066,1.123-0.132    l0.088,1.452c-0.374,0.154-0.968,0.264-1.716,0.264c-0.902,0-1.628-0.286-2.09-0.813c-0.55-0.572-0.748-1.519-0.748-2.772v-5.81    h-1.65v-1.474h1.65v-2.553L49.148,254.014z"/>
		<path d="M58.673,267.722c0.044-0.727,0.088-1.805,0.088-2.75V252.1h1.914v6.688h0.044c0.682-1.188,1.915-1.958,3.63-1.958    c2.641,0,4.511,2.2,4.489,5.435c0,3.807-2.398,5.699-4.774,5.699c-1.541,0-2.772-0.595-3.564-2.003h-0.066l-0.088,1.761H58.673z     M60.676,263.453c0,0.242,0.044,0.484,0.088,0.704c0.374,1.342,1.496,2.267,2.904,2.267c2.024,0,3.235-1.65,3.235-4.093    c0-2.135-1.1-3.961-3.168-3.961c-1.32,0-2.553,0.902-2.949,2.377c-0.044,0.22-0.11,0.483-0.11,0.792V263.453z"/>
		<path d="M71.83,257.072l2.332,6.293c0.242,0.704,0.506,1.54,0.682,2.178h0.044c0.198-0.638,0.418-1.452,0.682-2.222l2.112-6.249    h2.046l-2.904,7.591c-1.386,3.652-2.333,5.522-3.653,6.667c-0.946,0.836-1.892,1.166-2.376,1.254l-0.484-1.628    c0.484-0.154,1.122-0.462,1.694-0.946c0.528-0.418,1.188-1.166,1.628-2.156c0.088-0.198,0.154-0.352,0.154-0.462    s-0.044-0.264-0.132-0.506l-3.938-9.813H71.83z"/>
		<path d="M86.217,252.892h7.987v1.606h-6.073v4.929h5.611v1.584h-5.611v6.711h-1.914V252.892z"/>
		<path d="M96.293,260.395c0-1.254-0.022-2.332-0.088-3.322h1.694l0.066,2.09h0.088c0.484-1.43,1.65-2.332,2.948-2.332    c0.22,0,0.374,0.022,0.55,0.066v1.826c-0.198-0.044-0.396-0.066-0.66-0.066c-1.364,0-2.333,1.034-2.597,2.486    c-0.044,0.265-0.088,0.572-0.088,0.902v5.677h-1.914V260.395z"/>
		<path d="M105.731,254.08c0.022,0.66-0.462,1.188-1.232,1.188c-0.682,0-1.166-0.527-1.166-1.188c0-0.683,0.506-1.211,1.21-1.211    C105.269,252.869,105.731,253.397,105.731,254.08z M103.575,267.722v-10.649h1.936v10.649H103.575z"/>
		<path d="M117.92,252.1v12.872c0,0.945,0.022,2.023,0.088,2.75h-1.738l-0.088-1.849h-0.044c-0.594,1.188-1.893,2.091-3.631,2.091    c-2.574,0-4.555-2.179-4.555-5.413c-0.022-3.542,2.179-5.721,4.775-5.721c1.628,0,2.729,0.771,3.212,1.628h0.044V252.1H117.92z     M115.984,261.407c0-0.242-0.022-0.572-0.088-0.814c-0.286-1.232-1.342-2.244-2.794-2.244c-2.002,0-3.19,1.76-3.19,4.114    c0,2.156,1.056,3.938,3.146,3.938c1.298,0,2.486-0.858,2.838-2.311c0.066-0.264,0.088-0.527,0.088-0.836V261.407z"/>
		<path d="M127.027,267.722l-0.154-1.342h-0.066c-0.594,0.836-1.738,1.584-3.257,1.584c-2.156,0-3.256-1.519-3.256-3.059    c0-2.574,2.289-3.982,6.403-3.961v-0.22c0-0.88-0.242-2.464-2.42-2.464c-0.99,0-2.024,0.308-2.772,0.792l-0.44-1.276    c0.88-0.572,2.156-0.946,3.499-0.946c3.257,0,4.049,2.223,4.049,4.356v3.982c0,0.925,0.044,1.826,0.176,2.553H127.027z     M126.741,262.287c-2.112-0.044-4.51,0.33-4.51,2.398c0,1.254,0.836,1.848,1.826,1.848c1.386,0,2.266-0.88,2.574-1.782    c0.066-0.198,0.11-0.418,0.11-0.616V262.287z"/>
		<path d="M132.263,257.072l2.332,6.293c0.242,0.704,0.506,1.54,0.682,2.178h0.044c0.198-0.638,0.418-1.452,0.682-2.222l2.112-6.249    h2.046l-2.904,7.591c-1.386,3.652-2.333,5.522-3.653,6.667c-0.946,0.836-1.892,1.166-2.376,1.254l-0.484-1.628    c0.484-0.154,1.122-0.462,1.694-0.946c0.528-0.418,1.188-1.166,1.628-2.156c0.088-0.198,0.154-0.352,0.154-0.462    s-0.044-0.264-0.132-0.506l-3.938-9.813H132.263z"/>
		<path d="M140.601,266.577c0-0.813,0.55-1.386,1.32-1.386s1.298,0.572,1.298,1.386c0,0.792-0.506,1.387-1.32,1.387    C141.129,267.964,140.601,267.369,140.601,266.577z"/>
		<path d="M160.71,267.237c-0.704,0.353-2.112,0.704-3.917,0.704c-4.181,0-7.327-2.64-7.327-7.503c0-4.643,3.146-7.789,7.745-7.789    c1.848,0,3.015,0.396,3.521,0.66l-0.462,1.562c-0.726-0.353-1.76-0.616-2.993-0.616c-3.476,0-5.787,2.223-5.787,6.117    c0,3.63,2.09,5.963,5.699,5.963c1.166,0,2.354-0.242,3.125-0.616L160.71,267.237z"/>
		<path d="M168.783,267.722l-0.154-1.342h-0.066c-0.594,0.836-1.738,1.584-3.257,1.584c-2.156,0-3.256-1.519-3.256-3.059    c0-2.574,2.289-3.982,6.403-3.961v-0.22c0-0.88-0.242-2.464-2.42-2.464c-0.99,0-2.024,0.308-2.772,0.792l-0.44-1.276    c0.88-0.572,2.156-0.946,3.499-0.946c3.257,0,4.049,2.223,4.049,4.356v3.982c0,0.925,0.044,1.826,0.176,2.553H168.783z     M168.497,262.287c-2.112-0.044-4.51,0.33-4.51,2.398c0,1.254,0.836,1.848,1.826,1.848c1.386,0,2.266-0.88,2.574-1.782    c0.066-0.198,0.11-0.418,0.11-0.616V262.287z"/>
		<path d="M173.49,252.1h1.936v15.622h-1.936V252.1z"/>
		<path d="M178.682,252.1h1.936v15.622h-1.936V252.1z"/>
		<path d="M188.538,259.954c0-1.1-0.022-2.002-0.088-2.882h1.694l0.088,1.716h0.066c0.594-1.012,1.584-1.958,3.344-1.958    c1.452,0,2.552,0.88,3.015,2.135h0.044c0.33-0.595,0.748-1.057,1.188-1.387c0.638-0.484,1.342-0.748,2.354-0.748    c1.408,0,3.499,0.924,3.499,4.621v6.271h-1.893v-6.029c0-2.046-0.748-3.278-2.31-3.278c-1.1,0-1.958,0.814-2.289,1.761    c-0.088,0.264-0.154,0.616-0.154,0.968v6.579h-1.892v-6.381c0-1.694-0.749-2.927-2.223-2.927c-1.21,0-2.09,0.969-2.398,1.937    c-0.11,0.286-0.154,0.616-0.154,0.946v6.425h-1.892V259.954z"/>
		<path d="M207.964,262.749c0.044,2.618,1.716,3.696,3.652,3.696c1.386,0,2.222-0.242,2.948-0.55l0.33,1.386    c-0.682,0.309-1.848,0.66-3.542,0.66c-3.278,0-5.237-2.156-5.237-5.368c0-3.213,1.893-5.743,4.995-5.743    c3.476,0,4.4,3.059,4.4,5.017c0,0.396-0.044,0.704-0.066,0.902H207.964z M213.641,261.362c0.022-1.231-0.506-3.146-2.685-3.146    c-1.958,0-2.816,1.804-2.97,3.146H213.641z"/>
		<path d="M217.533,266.6c0-0.792,0.55-1.364,1.298-1.364c0.792,0,1.298,0.572,1.298,1.364c0,0.77-0.506,1.364-1.298,1.364    C218.062,267.964,217.533,267.369,217.533,266.6z M218.083,263.453l-0.308-10.562h2.112l-0.308,10.562H218.083z"/>
		<path d="M41.47,291.79c0.858,0.527,2.112,0.968,3.433,0.968c1.958,0,3.103-1.034,3.103-2.53c0-1.386-0.792-2.179-2.794-2.948    c-2.42-0.858-3.917-2.112-3.917-4.203c0-2.31,1.914-4.026,4.796-4.026c1.518,0,2.619,0.353,3.278,0.727l-0.528,1.562    c-0.484-0.264-1.474-0.704-2.816-0.704c-2.024,0-2.794,1.211-2.794,2.223c0,1.386,0.902,2.068,2.948,2.86    c2.508,0.968,3.785,2.179,3.785,4.356c0,2.288-1.694,4.269-5.193,4.269c-1.43,0-2.992-0.418-3.784-0.946L41.47,291.79z"/>
		<path d="M62.283,288.709c0,3.938-2.729,5.655-5.303,5.655c-2.882,0-5.105-2.112-5.105-5.479c0-3.565,2.333-5.655,5.281-5.655    C60.215,283.23,62.283,285.453,62.283,288.709z M53.834,288.819c0,2.332,1.342,4.093,3.234,4.093c1.848,0,3.234-1.738,3.234-4.137    c0-1.805-0.902-4.093-3.19-4.093C54.824,284.683,53.834,286.795,53.834,288.819z"/>
		<path d="M64.724,286.949c0-1.364-0.044-2.465-0.088-3.477h1.738l0.088,1.826h0.044c0.792-1.298,2.046-2.068,3.784-2.068    c2.575,0,4.511,2.179,4.511,5.413c0,3.828-2.332,5.721-4.841,5.721c-1.408,0-2.64-0.616-3.278-1.673h-0.044v5.787h-1.914V286.949z     M66.638,289.787c0,0.286,0.044,0.551,0.088,0.792c0.352,1.343,1.519,2.267,2.904,2.267c2.046,0,3.235-1.672,3.235-4.114    c0-2.135-1.123-3.961-3.168-3.961c-1.32,0-2.553,0.946-2.927,2.398c-0.066,0.242-0.132,0.528-0.132,0.792V289.787z"/>
		<path d="M77.241,278.5h1.936v6.645h0.044c0.308-0.55,0.792-1.034,1.386-1.364c0.572-0.33,1.254-0.55,1.98-0.55    c1.43,0,3.718,0.88,3.718,4.555v6.337H84.37v-6.117c0-1.716-0.638-3.168-2.464-3.168c-1.254,0-2.245,0.88-2.597,1.937    c-0.11,0.264-0.132,0.55-0.132,0.924v6.425h-1.936V278.5z"/>
		<path d="M91.607,280.48c0.022,0.66-0.462,1.188-1.232,1.188c-0.682,0-1.166-0.527-1.166-1.188c0-0.683,0.506-1.211,1.21-1.211    C91.145,279.27,91.607,279.798,91.607,280.48z M89.451,294.122v-10.649h1.936v10.649H89.451z"/>
		<path d="M95.677,289.149c0.044,2.618,1.716,3.696,3.652,3.696c1.386,0,2.222-0.242,2.948-0.55l0.33,1.386    c-0.682,0.309-1.848,0.66-3.542,0.66c-3.278,0-5.237-2.156-5.237-5.368c0-3.213,1.893-5.743,4.995-5.743    c3.476,0,4.4,3.059,4.4,5.017c0,0.396-0.044,0.704-0.066,0.902H95.677z M101.354,287.763c0.022-1.231-0.506-3.146-2.685-3.146    c-1.958,0-2.816,1.804-2.97,3.146H101.354z"/>
	</g>
</g>
</svg>