<?xml version="1.0" encoding="UTF-8"?><!-- Generator: Adobe Illustrator 20.1.0, SVG Export Plug-In . SVG Version: 6.00 Build 0)  --><svg xmlns:inkscape="http://www.inkscape.org/namespaces/inkscape" xmlns:sodipodi="http://sodipodi.sourceforge.net/DTD/sodipodi-0.dtd" xmlns="http://www.w3.org/2000/svg" xmlns:svg="http://www.w3.org/2000/svg" version="1.1" x="0px" y="0px" width="400" height="270" viewBox="0 0 400 270" enable-background="new 0 0 400 298" xml:space="preserve" id="svg141" sodipodi:docname="NKR100005EVO.svg" inkscape:version="1.2.2 (732a01da63, 2022-12-09)"><defs id="defs145"/><sodipodi:namedview id="namedview143" pagecolor="#ffffff" bordercolor="#666666" borderopacity="1.0" inkscape:showpageshadow="2" inkscape:pageopacity="0.0" inkscape:pagecheckerboard="0" inkscape:deskcolor="#d1d1d1" showgrid="false" inkscape:zoom="1.4043624" inkscape:cx="229.99761" inkscape:cy="150.60215" inkscape:window-width="2560" inkscape:window-height="1361" inkscape:window-x="-9" inkscape:window-y="-9" inkscape:window-maximized="1" inkscape:current-layer="svg141"/>
<rect style="display:inline;stroke-width:4;fill:#ffffff;stroke:#000000;stroke-linecap:square;stroke-dasharray:none;paint-order:markers fill stroke;fill-opacity:1" id="rect478" width="396.00064" height="259.53738" x="1.9999999" y="5.231308" inkscape:label="rect478"/>

<g id="Layer_2" style="display:inline;stroke-width:0.931585" transform="matrix(1.0734396,0,0,1.0734396,-12.007096,-23.778071)">
	<g id="g36" style="display:none;stroke-width:0.931585">
		<path d="m 50.166,98.31 c 0.92,-3.244 9.416,-33.079 12.391,-42.812 h 0.307 c 3.681,11.514 11.931,38.423 13.219,42.049 l -6.073,7.443 -2.76,-9.86 -9.232,1.082 c -0.246,0.891 -1.35,5.853 -2.024,8.842 z M 65.163,86.224 c -0.858,-3.626 -2.024,-8.143 -2.576,-10.751 -0.736,3.054 -1.81,7.761 -2.607,11.323 z" id="path10" style="stroke-width:0.931585"/>
		<path d="m 79.164,79.17 c 0,-1.138 -0.028,-13.116 -0.143,-14.634 5.242,0 8.29,0.271 10.939,0.976 7.464,1.951 8.889,9.322 8.889,13.712 0,17.073 -10.655,24.064 -19.856,24.064 0.114,-2.493 0.171,-15.935 0.171,-17.398 z m 6.268,14.254 c 2.792,-0.867 6.638,-4.715 6.638,-12.303 0,-6.396 -3.418,-7.913 -6.638,-7.913 z" id="path12" style="stroke-width:0.931585"/>
		<path d="m 123.437,69.306 c -1.083,2.981 -9.771,29.755 -11.937,35.988 h -0.285 C 108.252,96.622 100.988,72.612 100.048,69.739 l 6.125,-6.341 c 0.598,2.439 4.672,18.807 5.555,22.438 0.855,-3.686 5.299,-20.704 5.698,-22.438 z" id="path14" style="stroke-width:0.931585"/>
		<path d="m 138.793,103.56 c -1.025,0 -11.31,-0.542 -12.791,-0.542 0.085,-2.873 0.085,-14.471 0.085,-15.718 v -7.263 c 0,-0.867 -0.057,-13.929 -0.085,-15.501 1.595,0 11.167,-0.705 12.222,-0.867 l 0.114,8.943 c -1.054,0 -5.527,0.271 -6.04,0.271 v 7.046 c 0.57,0 3.846,-0.271 5.1,-0.488 l 0.085,8.672 c -0.77,0 -4.558,-0.217 -5.185,-0.217 v 6.45 c 0.741,0 5.042,0.108 6.381,-0.108 z" id="path16" style="stroke-width:0.931585"/>
		<path d="m 142.84,103.018 c 0.171,-3.848 0.855,-31.598 1.14,-38.807 l 0.285,-0.325 c 4.045,5.637 13.19,18.807 14.187,20.216 0,-2.981 -0.085,-17.506 -0.057,-19.837 l 5.812,0.271 c -0.313,7.805 -1.025,31.544 -1.196,39.294 l -0.285,0.271 c -3.418,-4.228 -13.703,-19.729 -14.13,-20.379 0,2.222 0.028,17.886 0.057,19.674 z" id="path18" style="stroke-width:0.931585"/>
		<path d="m 172.356,103.018 c 0.057,-1.409 0.085,-9.105 0.085,-15.013 v -14.2 c -1.368,0 -5.413,0.271 -6.296,0.325 v -9.485 c 1.282,0.217 8.034,0.434 8.347,0.434 h 2.479 c 0.541,0 6.751,-0.217 8.147,-0.434 v 9.485 c -0.542,-0.054 -5.812,-0.325 -6.268,-0.325 v 15.067 c 0,5.583 0.029,13.062 0.085,14.146 z" id="path20" style="stroke-width:0.931585"/>
		<path d="m 193.609,77.923 c 0,8.672 0.228,12.574 1.311,15.013 0.655,1.463 1.539,1.951 2.422,1.951 0.997,0 1.909,-0.759 2.535,-2.547 0.769,-2.222 0.826,-4.499 0.826,-16.802 v -2.06 c 0,-3.74 -0.114,-7.479 -0.143,-9.485 h 6.524 c 0,1.192 0.028,5.312 0.028,9.593 v 2.493 c 0,10.406 -0.313,16.802 -2.479,21.734 -1.738,4.011 -4.501,6.07 -7.664,6.07 -2.336,0 -5.812,-0.759 -7.977,-6.775 -1.396,-3.957 -1.88,-7.967 -1.88,-21.138 v -2.927 c 0,-2.493 0.028,-6.992 0.028,-8.238 h 6.638 c -0.114,1.409 -0.171,4.499 -0.171,9.431 v 3.687 z" id="path22" style="stroke-width:0.931585"/>
		<path d="m 218.481,86.433 c 0,2.06 0.086,15.772 0.143,16.585 h -6.353 c 0.113,-1.301 0.057,-18.482 0.057,-19.62 v -4.444 c 0,-1.626 -0.057,-13.387 -0.143,-14.417 3.903,0 7.862,0.108 10.427,0.759 4.216,1.03 6.495,4.173 6.495,9.16 0,4.444 -1.453,7.859 -3.675,10.84 0.854,1.843 5.213,10.244 5.954,11.978 l -5.214,7.479 c -0.655,-2.06 -6.182,-17.29 -6.95,-19.674 1.253,-1.409 3.275,-4.39 3.275,-8.021 0,-2.547 -0.939,-4.986 -4.017,-5.041 v 14.416 z" id="path24" style="stroke-width:0.931585"/>
		<path d="m 247.057,103.56 c -1.025,0 -11.31,-0.542 -12.791,-0.542 0.086,-2.873 0.086,-14.471 0.086,-15.718 v -7.263 c 0,-0.867 -0.058,-13.929 -0.086,-15.501 1.596,0 11.167,-0.705 12.222,-0.867 l 0.113,8.943 c -1.054,0 -5.526,0.271 -6.039,0.271 v 7.046 c 0.569,0 3.846,-0.271 5.1,-0.488 l 0.085,8.672 c -0.769,0 -4.558,-0.217 -5.185,-0.217 v 6.45 c 0.741,0 5.042,0.108 6.382,-0.108 z" id="path26" style="stroke-width:0.931585"/>
		<path d="m 259.339,103.018 c 0.03,-2.735 0.092,-18.066 0.092,-22.583 v -6.998 c 0,-1.463 -0.092,-14.631 -0.092,-15.585 5.857,0 9.6,0.318 12.146,1.59 3.066,1.59 5.766,5.344 5.766,12.532 0,8.27 -3.711,17.239 -11.134,19.784 v 1.718 c 0,1.272 0,8.206 0.062,9.542 z m 6.777,-20.229 c 1.779,-0.573 4.172,-3.753 4.172,-9.033 0,-3.562 -0.89,-6.489 -4.172,-6.998 z" id="path28" style="stroke-width:0.931585"/>
		<path d="m 278.053,99.007 c 0.854,-2.764 8.746,-28.184 11.509,-36.476 h 0.285 c 3.419,9.81 11.082,32.736 12.278,35.826 l -5.641,6.341 -2.563,-8.401 -8.575,0.921 c -0.228,0.759 -1.254,4.986 -1.88,7.534 z m 13.93,-10.298 c -0.798,-3.089 -1.88,-6.938 -2.393,-9.16 -0.685,2.602 -1.682,6.612 -2.422,9.647 z" id="path30" style="stroke-width:0.931585"/>
		<path d="m 311.414,86.433 c 0,2.06 0.086,15.772 0.143,16.585 h -6.353 c 0.113,-1.301 0.057,-18.482 0.057,-19.62 v -4.444 c 0,-1.626 -0.057,-13.387 -0.143,-14.417 3.903,0 7.862,0.108 10.427,0.759 4.216,1.03 6.495,4.173 6.495,9.16 0,4.444 -1.453,7.859 -3.675,10.84 0.854,1.843 5.213,10.244 5.954,11.978 l -5.214,7.479 c -0.655,-2.06 -6.182,-17.29 -6.951,-19.674 1.254,-1.409 3.276,-4.39 3.276,-8.021 0,-2.547 -0.939,-4.986 -4.017,-5.041 v 14.416 z" id="path32" style="stroke-width:0.931585"/>
		<path d="m 341.271,104.318 c -0.456,-1.03 -5.242,-12.737 -7.606,-19.132 v 1.03 c 0,4.173 0.086,16.314 0.143,17.344 h -6.638 c 0.028,-1.572 0.114,-10.731 0.114,-16.91 v -5.745 c 0,-4.715 -0.114,-15.664 -0.114,-16.91 h 6.638 c -0.028,0.867 -0.143,11.653 -0.143,16.368 v 1.572 c 2.165,-5.312 7.065,-16.964 7.663,-18.319 l 4.729,7.913 c -1.083,2.168 -4.501,8.726 -6.04,11.815 1.026,2.168 5.1,10.298 6.268,12.628 z" id="path34" style="stroke-width:0.931585"/>
	</g>
	<g id="g110" style="stroke-width:0.931585">
		<path d="m 72.838,145.456 v -20.453 h 2.704 v 8.398 h 10.622 v -8.398 h 2.704 v 20.453 h -2.704 v -9.641 H 75.542 v 9.641 z" id="path38" style="stroke-width:0.931585"/>
		<path d="m 102.709,143.628 c -0.929,0.791 -1.824,1.35 -2.683,1.675 -0.86,0.325 -1.782,0.488 -2.767,0.488 -1.626,0 -2.876,-0.397 -3.75,-1.193 -0.874,-0.795 -1.311,-1.811 -1.311,-3.048 0,-0.726 0.165,-1.389 0.495,-1.988 0.33,-0.6 0.762,-1.081 1.296,-1.444 0.534,-0.362 1.136,-0.637 1.805,-0.823 0.492,-0.13 1.236,-0.256 2.23,-0.376 2.026,-0.242 3.518,-0.53 4.475,-0.865 0.009,-0.344 0.014,-0.562 0.014,-0.656 0,-1.022 -0.237,-1.743 -0.711,-2.162 -0.642,-0.567 -1.594,-0.852 -2.858,-0.852 -1.18,0 -2.051,0.208 -2.613,0.621 -0.562,0.414 -0.978,1.146 -1.248,2.197 l -2.454,-0.335 c 0.223,-1.051 0.59,-1.899 1.102,-2.546 0.511,-0.646 1.25,-1.144 2.216,-1.493 0.966,-0.349 2.086,-0.522 3.359,-0.522 1.264,0 2.291,0.148 3.081,0.446 0.79,0.298 1.371,0.672 1.742,1.123 0.371,0.451 0.632,1.021 0.781,1.709 0.083,0.428 0.125,1.2 0.125,2.316 v 3.348 c 0,2.335 0.053,3.812 0.16,4.43 0.106,0.619 0.318,1.212 0.634,1.779 h -2.621 c -0.257,-0.521 -0.424,-1.131 -0.499,-1.829 z M 102.5,138.02 c -0.911,0.372 -2.277,0.688 -4.098,0.949 -1.031,0.148 -1.761,0.316 -2.188,0.502 -0.427,0.187 -0.757,0.458 -0.99,0.816 -0.233,0.358 -0.348,0.756 -0.348,1.192 0,0.67 0.253,1.229 0.759,1.675 0.506,0.446 1.248,0.669 2.224,0.669 0.966,0 1.826,-0.211 2.579,-0.635 0.753,-0.423 1.306,-1.002 1.659,-1.736 0.27,-0.567 0.404,-1.404 0.404,-2.512 v -0.92 z" id="path40" style="stroke-width:0.931585"/>
		<path d="m 108.871,145.456 v -20.453 h 2.509 v 20.453 z" id="path42" style="stroke-width:0.931585"/>
		<path d="m 115.868,145.456 v -12.863 h -2.216 v -1.953 h 2.216 v -1.577 c 0,-0.995 0.088,-1.734 0.265,-2.218 0.241,-0.651 0.667,-1.179 1.275,-1.584 0.608,-0.404 1.461,-0.606 2.558,-0.606 0.706,0 1.487,0.084 2.342,0.251 l -0.376,2.19 c -0.521,-0.093 -1.013,-0.14 -1.478,-0.14 -0.762,0 -1.301,0.163 -1.617,0.488 -0.316,0.326 -0.474,0.935 -0.474,1.828 v 1.367 h 2.886 v 1.953 h -2.886 v 12.863 h -2.495 z" id="path44" style="stroke-width:0.931585"/>
		<path d="m 122.225,139.317 v -2.525 h 7.708 v 2.525 z" id="path46" style="stroke-width:0.931585"/>
		<path d="M 132.707,151.135 V 130.64 h 2.286 v 1.925 c 0.539,-0.753 1.147,-1.318 1.826,-1.695 0.678,-0.376 1.501,-0.564 2.467,-0.564 1.264,0 2.379,0.325 3.346,0.977 0.966,0.651 1.696,1.569 2.188,2.755 0.493,1.187 0.739,2.486 0.739,3.9 0,1.516 -0.271,2.881 -0.815,4.095 -0.543,1.214 -1.333,2.144 -2.37,2.79 -1.037,0.646 -2.125,0.97 -3.269,0.97 -0.836,0 -1.587,-0.177 -2.251,-0.53 -0.665,-0.354 -1.21,-0.8 -1.638,-1.34 v 7.214 h -2.509 z m 2.272,-13.003 c 0,1.906 0.386,3.315 1.157,4.227 0.771,0.912 1.705,1.367 2.802,1.367 1.115,0 2.07,-0.472 2.864,-1.416 0.794,-0.943 1.192,-2.406 1.192,-4.388 0,-1.888 -0.388,-3.302 -1.164,-4.241 -0.776,-0.939 -1.703,-1.409 -2.781,-1.409 -1.069,0 -2.014,0.5 -2.836,1.5 -0.823,0.999 -1.234,2.453 -1.234,4.36 z" id="path48" style="stroke-width:0.931585"/>
		<path d="M 148.556,145.456 V 130.64 h 2.258 v 2.246 c 0.576,-1.051 1.108,-1.744 1.596,-2.079 0.488,-0.335 1.024,-0.502 1.61,-0.502 0.846,0 1.705,0.27 2.579,0.809 l -0.864,2.33 c -0.613,-0.362 -1.227,-0.544 -1.84,-0.544 -0.548,0 -1.041,0.165 -1.478,0.495 -0.437,0.33 -0.748,0.788 -0.934,1.374 -0.279,0.894 -0.418,1.87 -0.418,2.931 v 7.757 h -2.509 z" id="path50" style="stroke-width:0.931585"/>
		<path d="m 158.104,127.891 v -2.888 h 2.509 v 2.888 z m 0,17.565 V 130.64 h 2.509 v 14.816 z" id="path52" style="stroke-width:0.931585"/>
		<path d="m 174.092,140.029 2.467,0.32 c -0.27,1.702 -0.959,3.034 -2.07,3.997 -1.111,0.963 -2.474,1.444 -4.091,1.444 -2.026,0 -3.654,-0.663 -4.886,-1.988 -1.232,-1.325 -1.847,-3.225 -1.847,-5.699 0,-1.6 0.265,-3 0.794,-4.199 0.53,-1.2 1.336,-2.1 2.418,-2.7 1.083,-0.6 2.26,-0.899 3.534,-0.899 1.607,0 2.922,0.406 3.945,1.221 1.022,0.813 1.677,1.97 1.965,3.467 l -2.439,0.377 c -0.232,-0.995 -0.644,-1.744 -1.233,-2.246 -0.59,-0.503 -1.304,-0.754 -2.14,-0.754 -1.264,0 -2.291,0.453 -3.081,1.36 -0.79,0.907 -1.185,2.342 -1.185,4.305 0,1.99 0.381,3.437 1.143,4.339 0.762,0.902 1.756,1.353 2.983,1.353 0.985,0 1.807,-0.302 2.467,-0.906 0.661,-0.606 1.079,-1.537 1.256,-2.792 z" id="path54" style="stroke-width:0.931585"/>
		<path d="m 188.84,140.685 2.593,0.321 c -0.409,1.516 -1.167,2.692 -2.272,3.529 -1.105,0.837 -2.518,1.256 -4.237,1.256 -2.166,0 -3.882,-0.667 -5.15,-2.002 -1.268,-1.335 -1.903,-3.207 -1.903,-5.616 0,-2.492 0.641,-4.427 1.924,-5.804 1.282,-1.376 2.945,-2.064 4.99,-2.064 1.979,0 3.596,0.674 4.851,2.022 1.255,1.348 1.882,3.246 1.882,5.692 0,0.149 -0.005,0.372 -0.014,0.67 h -11.04 c 0.093,1.628 0.553,2.874 1.38,3.739 0.827,0.865 1.858,1.297 3.095,1.297 0.92,0 1.705,-0.241 2.355,-0.725 0.649,-0.483 1.164,-1.255 1.546,-2.315 z m -8.238,-4.06 h 8.266 c -0.112,-1.247 -0.428,-2.182 -0.948,-2.805 -0.799,-0.968 -1.835,-1.451 -3.108,-1.451 -1.152,0 -2.121,0.386 -2.907,1.158 -0.785,0.773 -1.219,1.805 -1.303,3.098 z" id="path56" style="stroke-width:0.931585"/>
		<path d="m 207.991,143.21 0.363,2.218 c -0.707,0.149 -1.339,0.224 -1.896,0.224 -0.91,0 -1.616,-0.145 -2.118,-0.433 -0.502,-0.288 -0.855,-0.667 -1.06,-1.137 -0.205,-0.47 -0.307,-1.458 -0.307,-2.965 v -8.524 h -1.84 v -1.953 h 1.84 v -3.67 l 2.495,-1.506 v 5.176 h 2.522 v 1.953 h -2.522 v 8.664 c 0,0.716 0.044,1.177 0.133,1.381 0.088,0.205 0.231,0.367 0.432,0.488 0.201,0.121 0.485,0.182 0.857,0.182 0.279,0 0.646,-0.033 1.101,-0.098 z" id="path58" style="stroke-width:0.931585"/>
		<path d="m 210.459,127.891 v -2.888 h 2.509 v 2.888 z m 0,17.565 V 130.64 h 2.509 v 14.816 z" id="path60" style="stroke-width:0.931585"/>
		<path d="m 226.447,140.029 2.467,0.32 c -0.27,1.702 -0.96,3.034 -2.07,3.997 -1.11,0.963 -2.474,1.444 -4.091,1.444 -2.026,0 -3.654,-0.663 -4.886,-1.988 -1.232,-1.325 -1.847,-3.225 -1.847,-5.699 0,-1.6 0.265,-3 0.794,-4.199 0.53,-1.2 1.336,-2.1 2.419,-2.7 1.082,-0.6 2.261,-0.899 3.533,-0.899 1.607,0 2.923,0.406 3.945,1.221 1.021,0.813 1.677,1.97 1.965,3.467 l -2.439,0.377 c -0.231,-0.995 -0.644,-1.744 -1.233,-2.246 -0.59,-0.503 -1.303,-0.754 -2.14,-0.754 -1.264,0 -2.291,0.453 -3.08,1.36 -0.79,0.907 -1.185,2.342 -1.185,4.305 0,1.99 0.381,3.437 1.143,4.339 0.762,0.902 1.756,1.353 2.983,1.353 0.984,0 1.807,-0.302 2.467,-0.906 0.66,-0.606 1.079,-1.537 1.255,-2.792 z" id="path62" style="stroke-width:0.931585"/>
		<path d="m 231.075,145.456 v -20.453 h 2.509 v 11.663 l 5.938,-6.026 h 3.248 l -5.659,5.497 6.23,9.319 h -3.095 l -4.893,-7.576 -1.771,1.702 v 5.874 z" id="path64" style="stroke-width:0.931585"/>
		<path d="m 255.469,140.685 2.593,0.321 c -0.409,1.516 -1.167,2.692 -2.272,3.529 -1.105,0.837 -2.519,1.256 -4.237,1.256 -2.165,0 -3.882,-0.667 -5.15,-2.002 -1.268,-1.335 -1.902,-3.207 -1.902,-5.616 0,-2.492 0.641,-4.427 1.923,-5.804 1.282,-1.376 2.946,-2.064 4.99,-2.064 1.979,0 3.597,0.674 4.851,2.022 1.255,1.349 1.882,3.246 1.882,5.692 0,0.149 -0.004,0.372 -0.014,0.67 h -11.04 c 0.093,1.628 0.553,2.874 1.381,3.739 0.826,0.865 1.858,1.297 3.094,1.297 0.92,0 1.705,-0.241 2.356,-0.725 0.647,-0.483 1.164,-1.255 1.545,-2.315 z m -8.239,-4.06 h 8.266 c -0.111,-1.247 -0.427,-2.182 -0.947,-2.805 -0.8,-0.968 -1.836,-1.451 -3.108,-1.451 -1.152,0 -2.121,0.386 -2.906,1.158 -0.785,0.772 -1.221,1.805 -1.305,3.098 z" id="path66" style="stroke-width:0.931585"/>
		<path d="m 266.688,143.21 0.363,2.218 c -0.707,0.149 -1.339,0.224 -1.896,0.224 -0.91,0 -1.616,-0.145 -2.118,-0.433 -0.502,-0.288 -0.855,-0.667 -1.06,-1.137 -0.205,-0.47 -0.307,-1.458 -0.307,-2.965 v -8.524 h -1.84 v -1.953 h 1.84 v -3.67 l 2.495,-1.506 v 5.176 h 2.522 v 1.953 h -2.522 v 8.664 c 0,0.716 0.044,1.177 0.133,1.381 0.088,0.205 0.231,0.367 0.432,0.488 0.201,0.121 0.485,0.182 0.857,0.182 0.279,0 0.646,-0.033 1.101,-0.098 z" id="path68" style="stroke-width:0.931585"/>
		<path d="m 268.139,141.033 2.481,-0.391 c 0.14,0.995 0.527,1.758 1.164,2.288 0.636,0.53 1.526,0.795 2.669,0.795 1.152,0 2.008,-0.234 2.565,-0.704 0.557,-0.47 0.836,-1.021 0.836,-1.653 0,-0.567 -0.246,-1.014 -0.739,-1.339 -0.344,-0.224 -1.198,-0.508 -2.564,-0.852 -1.84,-0.465 -3.115,-0.867 -3.826,-1.207 -0.711,-0.339 -1.25,-0.809 -1.617,-1.409 -0.367,-0.6 -0.551,-1.263 -0.551,-1.988 0,-0.66 0.151,-1.271 0.453,-1.834 0.302,-0.563 0.714,-1.03 1.234,-1.402 0.39,-0.288 0.922,-0.532 1.596,-0.732 0.674,-0.2 1.396,-0.3 2.167,-0.3 1.162,0 2.182,0.167 3.061,0.502 0.878,0.335 1.525,0.788 1.944,1.36 0.418,0.572 0.706,1.337 0.864,2.295 l -2.454,0.335 c -0.111,-0.763 -0.434,-1.357 -0.969,-1.786 -0.534,-0.428 -1.289,-0.642 -2.265,-0.642 -1.152,0 -1.975,0.19 -2.467,0.572 -0.493,0.382 -0.739,0.828 -0.739,1.339 0,0.326 0.103,0.619 0.307,0.879 0.204,0.271 0.525,0.493 0.962,0.67 0.251,0.094 0.989,0.308 2.216,0.642 1.775,0.475 3.014,0.863 3.715,1.165 0.702,0.303 1.253,0.742 1.652,1.318 0.399,0.577 0.6,1.293 0.6,2.149 0,0.837 -0.244,1.625 -0.732,2.364 -0.487,0.739 -1.191,1.312 -2.111,1.716 -0.92,0.405 -1.961,0.607 -3.123,0.607 -1.923,0 -3.389,-0.4 -4.397,-1.2 -1.009,-0.799 -1.653,-1.985 -1.932,-3.557 z" id="path70" style="stroke-width:0.931585"/>
		<path d="m 291.947,145.456 v -12.863 h -2.217 v -1.953 h 2.217 v -1.577 c 0,-0.995 0.088,-1.734 0.265,-2.218 0.241,-0.651 0.667,-1.179 1.275,-1.584 0.608,-0.404 1.461,-0.606 2.558,-0.606 0.706,0 1.487,0.084 2.342,0.251 l -0.376,2.19 c -0.521,-0.093 -1.014,-0.14 -1.478,-0.14 -0.763,0 -1.302,0.163 -1.617,0.488 -0.316,0.326 -0.474,0.935 -0.474,1.828 v 1.367 h 2.885 v 1.953 h -2.885 v 12.863 h -2.495 z" id="path72" style="stroke-width:0.931585"/>
		<path d="m 298.346,138.048 c 0,-2.744 0.762,-4.776 2.285,-6.097 1.273,-1.098 2.825,-1.646 4.656,-1.646 2.035,0 3.698,0.667 4.99,2.002 1.291,1.335 1.938,3.179 1.938,5.532 0,1.906 -0.286,3.406 -0.857,4.499 -0.571,1.093 -1.403,1.941 -2.495,2.546 -1.092,0.605 -2.284,0.907 -3.575,0.907 -2.072,0 -3.747,-0.665 -5.025,-1.995 -1.279,-1.33 -1.917,-3.246 -1.917,-5.748 z m 2.578,0 c 0,1.897 0.414,3.318 1.241,4.262 0.826,0.944 1.867,1.416 3.122,1.416 1.245,0 2.281,-0.474 3.108,-1.423 0.827,-0.948 1.24,-2.395 1.24,-4.339 0,-1.832 -0.416,-3.221 -1.247,-4.164 -0.832,-0.944 -1.866,-1.417 -3.102,-1.417 -1.255,0 -2.296,0.47 -3.122,1.409 -0.826,0.939 -1.24,2.358 -1.24,4.256 z" id="path74" style="stroke-width:0.931585"/>
		<path d="M 315.127,145.456 V 130.64 h 2.259 v 2.246 c 0.576,-1.051 1.107,-1.744 1.596,-2.079 0.489,-0.335 1.024,-0.502 1.61,-0.502 0.845,0 1.705,0.27 2.578,0.809 l -0.864,2.33 c -0.613,-0.362 -1.227,-0.544 -1.84,-0.544 -0.548,0 -1.041,0.165 -1.478,0.495 -0.437,0.33 -0.748,0.788 -0.934,1.374 -0.279,0.894 -0.418,1.87 -0.418,2.931 v 7.757 h -2.509 z" id="path76" style="stroke-width:0.931585"/>
		<path d="m 65.59,178.141 2.439,0.363 c 0.102,0.753 0.385,1.302 0.85,1.646 0.623,0.466 1.473,0.698 2.551,0.698 1.162,0 2.058,-0.232 2.69,-0.698 0.632,-0.465 1.059,-1.115 1.282,-1.953 0.13,-0.512 0.19,-1.585 0.181,-3.223 -1.097,1.293 -2.462,1.939 -4.098,1.939 -2.035,0 -3.61,-0.734 -4.725,-2.204 -1.115,-1.47 -1.673,-3.232 -1.673,-5.288 0,-1.414 0.255,-2.718 0.767,-3.913 0.512,-1.195 1.252,-2.118 2.224,-2.77 0.971,-0.651 2.111,-0.977 3.422,-0.977 1.747,0 3.187,0.707 4.321,2.12 v -1.785 h 2.313 v 12.808 c 0,2.307 -0.234,3.941 -0.704,4.903 -0.469,0.963 -1.213,1.724 -2.23,2.281 -1.018,0.559 -2.27,0.838 -3.756,0.838 -1.766,0 -3.192,-0.398 -4.279,-1.193 -1.087,-0.795 -1.612,-1.993 -1.575,-3.592 z m 2.077,-8.902 c 0,1.944 0.386,3.362 1.157,4.256 0.771,0.893 1.737,1.339 2.899,1.339 1.152,0 2.119,-0.443 2.899,-1.332 0.781,-0.889 1.171,-2.281 1.171,-4.179 0,-1.813 -0.402,-3.181 -1.206,-4.102 -0.804,-0.921 -1.772,-1.382 -2.906,-1.382 -1.115,0 -2.063,0.454 -2.844,1.36 -0.779,0.908 -1.17,2.255 -1.17,4.04 z" id="path78" style="stroke-width:0.931585"/>
		<path d="m 81.899,176.913 v -14.816 h 2.258 v 2.246 c 0.576,-1.051 1.108,-1.744 1.596,-2.079 0.488,-0.335 1.024,-0.502 1.61,-0.502 0.846,0 1.705,0.27 2.579,0.809 l -0.864,2.33 c -0.613,-0.362 -1.227,-0.544 -1.84,-0.544 -0.548,0 -1.041,0.165 -1.478,0.495 -0.437,0.33 -0.748,0.788 -0.934,1.374 -0.279,0.894 -0.418,1.87 -0.418,2.931 v 7.757 h -2.509 z" id="path80" style="stroke-width:0.931585"/>
		<path d="m 90.5,169.505 c 0,-2.744 0.762,-4.776 2.286,-6.097 1.273,-1.098 2.825,-1.646 4.656,-1.646 2.035,0 3.698,0.667 4.99,2.002 1.292,1.335 1.938,3.179 1.938,5.532 0,1.906 -0.286,3.406 -0.857,4.499 -0.571,1.093 -1.403,1.941 -2.495,2.546 -1.092,0.605 -2.284,0.907 -3.575,0.907 -2.072,0 -3.748,-0.665 -5.025,-1.995 -1.277,-1.33 -1.918,-3.246 -1.918,-5.748 z m 2.578,0 c 0,1.897 0.414,3.318 1.241,4.262 0.827,0.944 1.868,1.416 3.123,1.416 1.245,0 2.281,-0.474 3.108,-1.423 0.827,-0.948 1.241,-2.395 1.241,-4.339 0,-1.832 -0.416,-3.221 -1.248,-4.164 -0.832,-0.944 -1.866,-1.417 -3.102,-1.417 -1.254,0 -2.295,0.47 -3.123,1.409 -0.828,0.939 -1.24,2.358 -1.24,4.256 z" id="path82" style="stroke-width:0.931585"/>
		<path d="m 117.012,176.913 v -2.177 c -1.152,1.675 -2.718,2.512 -4.698,2.512 -0.874,0 -1.689,-0.168 -2.446,-0.502 -0.757,-0.335 -1.319,-0.756 -1.687,-1.263 -0.368,-0.507 -0.625,-1.128 -0.773,-1.863 -0.103,-0.492 -0.153,-1.273 -0.153,-2.344 v -9.18 h 2.509 v 8.217 c 0,1.312 0.051,2.195 0.153,2.651 0.158,0.66 0.493,1.179 1.004,1.556 0.511,0.377 1.143,0.564 1.896,0.564 0.753,0 1.459,-0.192 2.119,-0.578 0.66,-0.387 1.127,-0.912 1.401,-1.577 0.274,-0.665 0.411,-1.63 0.411,-2.895 v -7.938 h 2.509 v 14.816 h -2.245 z" id="path84" style="stroke-width:0.931585"/>
		<path d="m 123.187,182.592 v -20.495 h 2.286 v 1.925 c 0.539,-0.753 1.147,-1.318 1.826,-1.695 0.678,-0.376 1.501,-0.564 2.467,-0.564 1.264,0 2.379,0.325 3.346,0.977 0.966,0.651 1.696,1.569 2.188,2.755 0.493,1.187 0.739,2.486 0.739,3.9 0,1.516 -0.271,2.881 -0.815,4.095 -0.543,1.214 -1.333,2.144 -2.37,2.79 -1.037,0.646 -2.125,0.97 -3.269,0.97 -0.836,0 -1.587,-0.177 -2.251,-0.53 -0.665,-0.354 -1.21,-0.8 -1.638,-1.34 v 7.214 h -2.509 z m 2.271,-13.003 c 0,1.906 0.386,3.315 1.157,4.227 0.771,0.912 1.705,1.367 2.802,1.367 1.115,0 2.07,-0.472 2.864,-1.416 0.794,-0.943 1.192,-2.406 1.192,-4.388 0,-1.888 -0.388,-3.302 -1.164,-4.241 -0.776,-0.939 -1.703,-1.409 -2.781,-1.409 -1.069,0 -2.014,0.5 -2.836,1.5 -0.822,1 -1.234,2.453 -1.234,4.36 z" id="path86" style="stroke-width:0.931585"/>
		<path d="m 138.06,172.49 2.481,-0.391 c 0.139,0.995 0.527,1.758 1.164,2.288 0.636,0.53 1.526,0.795 2.669,0.795 1.152,0 2.007,-0.234 2.565,-0.704 0.558,-0.47 0.836,-1.021 0.836,-1.653 0,-0.567 -0.247,-1.014 -0.739,-1.339 -0.344,-0.224 -1.199,-0.508 -2.565,-0.852 -1.84,-0.465 -3.115,-0.867 -3.826,-1.207 -0.711,-0.339 -1.25,-0.809 -1.617,-1.409 -0.368,-0.6 -0.551,-1.263 -0.551,-1.988 0,-0.66 0.151,-1.271 0.453,-1.834 0.302,-0.562 0.713,-1.03 1.233,-1.402 0.39,-0.288 0.922,-0.532 1.596,-0.732 0.673,-0.2 1.396,-0.3 2.167,-0.3 1.162,0 2.182,0.167 3.06,0.502 0.878,0.335 1.526,0.788 1.944,1.36 0.418,0.572 0.706,1.337 0.864,2.295 l -2.453,0.335 c -0.111,-0.763 -0.435,-1.357 -0.969,-1.786 -0.535,-0.428 -1.29,-0.642 -2.265,-0.642 -1.152,0 -1.975,0.19 -2.467,0.572 -0.492,0.382 -0.739,0.828 -0.739,1.339 0,0.326 0.102,0.619 0.307,0.879 0.205,0.271 0.525,0.493 0.962,0.67 0.251,0.094 0.99,0.308 2.216,0.642 1.775,0.475 3.013,0.863 3.715,1.165 0.702,0.303 1.252,0.742 1.652,1.318 0.399,0.577 0.599,1.293 0.599,2.149 0,0.837 -0.244,1.625 -0.732,2.364 -0.488,0.739 -1.191,1.312 -2.111,1.716 -0.92,0.405 -1.961,0.607 -3.123,0.607 -1.924,0 -3.39,-0.4 -4.398,-1.2 -1.008,-0.8 -1.65,-1.985 -1.928,-3.557 z" id="path88" style="stroke-width:0.931585"/>
		<path d="m 160.334,169.505 c 0,-2.744 0.762,-4.776 2.286,-6.097 1.273,-1.098 2.825,-1.646 4.656,-1.646 2.035,0 3.698,0.667 4.99,2.002 1.292,1.335 1.938,3.179 1.938,5.532 0,1.906 -0.286,3.406 -0.857,4.499 -0.571,1.093 -1.403,1.941 -2.495,2.546 -1.092,0.605 -2.284,0.907 -3.575,0.907 -2.072,0 -3.748,-0.665 -5.025,-1.995 -1.277,-1.33 -1.918,-3.246 -1.918,-5.748 z m 2.579,0 c 0,1.897 0.414,3.318 1.241,4.262 0.827,0.944 1.868,1.416 3.123,1.416 1.245,0 2.281,-0.474 3.108,-1.423 0.827,-0.948 1.241,-2.395 1.241,-4.339 0,-1.832 -0.416,-3.221 -1.248,-4.164 -0.832,-0.944 -1.866,-1.417 -3.102,-1.417 -1.254,0 -2.295,0.47 -3.123,1.409 -0.828,0.939 -1.24,2.358 -1.24,4.256 z" id="path90" style="stroke-width:0.931585"/>
		<path d="M 177.744,176.913 V 164.05 h -2.216 v -1.953 h 2.216 v -1.577 c 0,-0.995 0.088,-1.734 0.265,-2.218 0.241,-0.651 0.667,-1.18 1.275,-1.584 0.608,-0.404 1.461,-0.606 2.558,-0.606 0.706,0 1.487,0.083 2.342,0.251 l -0.376,2.19 c -0.521,-0.093 -1.013,-0.14 -1.478,-0.14 -0.762,0 -1.301,0.163 -1.617,0.488 -0.316,0.325 -0.474,0.935 -0.474,1.828 v 1.367 h 2.886 v 1.953 h -2.886 v 12.863 h -2.495 z" id="path92" style="stroke-width:0.931585"/>
		<path d="m 201.762,176.913 h -2.509 V 160.91 c -0.604,0.577 -1.396,1.153 -2.376,1.73 -0.98,0.576 -1.861,1.009 -2.642,1.297 v -2.427 c 1.403,-0.661 2.63,-1.461 3.68,-2.4 1.05,-0.939 1.793,-1.851 2.23,-2.734 h 1.617 z" id="path94" style="stroke-width:0.931585"/>
		<path d="m 221.374,174.499 v 2.414 h -13.507 c -0.019,-0.604 0.079,-1.186 0.293,-1.744 0.344,-0.921 0.894,-1.827 1.651,-2.721 0.758,-0.893 1.852,-1.925 3.283,-3.097 2.221,-1.823 3.722,-3.268 4.502,-4.332 0.78,-1.065 1.171,-2.072 1.171,-3.021 0,-0.995 -0.355,-1.835 -1.066,-2.519 -0.711,-0.684 -1.638,-1.025 -2.781,-1.025 -1.208,0 -2.174,0.362 -2.898,1.088 -0.726,0.726 -1.093,1.73 -1.102,3.014 l -2.579,-0.265 c 0.177,-1.926 0.841,-3.393 1.993,-4.402 1.152,-1.009 2.7,-1.514 4.643,-1.514 1.96,0 3.512,0.544 4.655,1.633 1.143,1.088 1.715,2.437 1.715,4.046 0,0.818 -0.168,1.623 -0.502,2.413 -0.335,0.791 -0.891,1.623 -1.666,2.498 -0.776,0.874 -2.065,2.074 -3.868,3.6 -1.505,1.265 -2.472,2.123 -2.899,2.573 -0.428,0.452 -0.78,0.905 -1.06,1.36 h 10.022 z" id="path96" style="stroke-width:0.931585"/>
		<path d="m 231.759,169.505 c 0,-2.744 0.762,-4.776 2.285,-6.097 1.273,-1.098 2.825,-1.646 4.656,-1.646 2.035,0 3.698,0.667 4.99,2.002 1.291,1.335 1.938,3.179 1.938,5.532 0,1.906 -0.286,3.406 -0.857,4.499 -0.571,1.093 -1.403,1.941 -2.495,2.546 -1.092,0.605 -2.284,0.907 -3.575,0.907 -2.072,0 -3.747,-0.665 -5.025,-1.995 -1.279,-1.33 -1.917,-3.246 -1.917,-5.748 z m 2.578,0 c 0,1.897 0.414,3.318 1.241,4.262 0.826,0.944 1.867,1.416 3.122,1.416 1.245,0 2.281,-0.474 3.108,-1.423 0.827,-0.948 1.24,-2.395 1.24,-4.339 0,-1.832 -0.416,-3.221 -1.247,-4.164 -0.832,-0.944 -1.866,-1.417 -3.102,-1.417 -1.255,0 -2.296,0.47 -3.122,1.409 -0.826,0.939 -1.24,2.358 -1.24,4.256 z" id="path98" style="stroke-width:0.931585"/>
		<path d="m 248.541,176.913 v -14.816 h 2.259 v 2.246 c 0.576,-1.051 1.107,-1.744 1.596,-2.079 0.489,-0.335 1.024,-0.502 1.61,-0.502 0.845,0 1.705,0.27 2.578,0.809 l -0.864,2.33 c -0.613,-0.362 -1.227,-0.544 -1.84,-0.544 -0.548,0 -1.041,0.165 -1.478,0.495 -0.437,0.33 -0.748,0.788 -0.934,1.374 -0.279,0.894 -0.418,1.87 -0.418,2.931 v 7.757 h -2.509 z" id="path100" style="stroke-width:0.931585"/>
		<path d="m 266.007,176.913 v -14.816 h 2.244 v 2.078 c 0.465,-0.726 1.082,-1.309 1.854,-1.751 0.771,-0.441 1.649,-0.662 2.635,-0.662 1.097,0 1.995,0.228 2.697,0.684 0.701,0.456 1.196,1.093 1.484,1.911 1.171,-1.73 2.695,-2.595 4.572,-2.595 1.468,0 2.598,0.406 3.387,1.221 0.79,0.813 1.186,2.067 1.186,3.76 v 10.171 h -2.495 v -9.334 c 0,-1.004 -0.082,-1.728 -0.244,-2.169 -0.163,-0.442 -0.458,-0.798 -0.885,-1.067 -0.428,-0.27 -0.93,-0.405 -1.506,-0.405 -1.041,0 -1.905,0.347 -2.593,1.04 -0.688,0.692 -1.031,1.802 -1.031,3.327 v 8.608 h -2.509 v -9.627 c 0,-1.116 -0.205,-1.953 -0.613,-2.511 -0.409,-0.559 -1.078,-0.838 -2.008,-0.838 -0.706,0 -1.359,0.187 -1.958,0.559 -0.6,0.372 -1.034,0.916 -1.304,1.632 -0.27,0.717 -0.404,1.749 -0.404,3.098 v 7.688 h -2.509 z" id="path102" style="stroke-width:0.931585"/>
		<path d="m 288.854,169.505 c 0,-2.744 0.762,-4.776 2.285,-6.097 1.273,-1.098 2.825,-1.646 4.656,-1.646 2.035,0 3.698,0.667 4.99,2.002 1.291,1.335 1.938,3.179 1.938,5.532 0,1.906 -0.286,3.406 -0.857,4.499 -0.571,1.093 -1.403,1.941 -2.495,2.546 -1.092,0.605 -2.284,0.907 -3.575,0.907 -2.072,0 -3.747,-0.665 -5.025,-1.995 -1.279,-1.33 -1.917,-3.246 -1.917,-5.748 z m 2.578,0 c 0,1.897 0.414,3.318 1.241,4.262 0.826,0.944 1.867,1.416 3.122,1.416 1.245,0 2.281,-0.474 3.108,-1.423 0.827,-0.948 1.24,-2.395 1.24,-4.339 0,-1.832 -0.416,-3.221 -1.247,-4.164 -0.832,-0.944 -1.866,-1.417 -3.102,-1.417 -1.255,0 -2.296,0.47 -3.122,1.409 -0.826,0.939 -1.24,2.358 -1.24,4.256 z" id="path104" style="stroke-width:0.931585"/>
		<path d="m 305.636,176.913 v -14.816 h 2.259 v 2.246 c 0.576,-1.051 1.107,-1.744 1.596,-2.079 0.489,-0.335 1.024,-0.502 1.61,-0.502 0.845,0 1.705,0.27 2.578,0.809 l -0.864,2.33 c -0.613,-0.362 -1.227,-0.544 -1.84,-0.544 -0.548,0 -1.041,0.165 -1.478,0.495 -0.437,0.33 -0.748,0.788 -0.934,1.374 -0.279,0.894 -0.418,1.87 -0.418,2.931 v 7.757 h -2.509 z" id="path106" style="stroke-width:0.931585"/>
		<path d="m 325.304,172.142 2.593,0.321 c -0.409,1.516 -1.167,2.692 -2.272,3.529 -1.105,0.837 -2.519,1.256 -4.237,1.256 -2.165,0 -3.882,-0.667 -5.15,-2.002 -1.268,-1.335 -1.902,-3.207 -1.902,-5.616 0,-2.492 0.641,-4.427 1.923,-5.804 1.282,-1.376 2.946,-2.064 4.99,-2.064 1.979,0 3.597,0.674 4.851,2.022 1.255,1.349 1.882,3.246 1.882,5.692 0,0.149 -0.004,0.372 -0.014,0.67 h -11.04 c 0.093,1.628 0.553,2.874 1.381,3.739 0.826,0.865 1.858,1.297 3.094,1.297 0.92,0 1.705,-0.241 2.356,-0.725 0.647,-0.483 1.164,-1.255 1.545,-2.315 z m -8.239,-4.06 h 8.266 c -0.111,-1.247 -0.427,-2.182 -0.947,-2.805 -0.8,-0.968 -1.836,-1.451 -3.108,-1.451 -1.152,0 -2.121,0.386 -2.906,1.158 -0.785,0.772 -1.221,1.805 -1.305,3.098 z" id="path108" style="stroke-width:0.931585"/>
	</g>
	<g id="g138" style="stroke-width:0.931585">
		<path d="m 97.448,224.123 7.848,-20.453 h 2.914 l 8.363,20.453 h -3.081 l -2.383,-6.194 h -8.545 l -2.244,6.194 z m 5.896,-8.399 h 6.928 l -2.133,-5.664 c -0.65,-1.721 -1.134,-3.134 -1.45,-4.241 -0.26,1.312 -0.627,2.613 -1.101,3.906 z" id="path112" style="stroke-width:0.931585"/>
		<path d="m 117.409,219.7 2.481,-0.391 c 0.139,0.995 0.527,1.758 1.164,2.288 0.636,0.53 1.526,0.795 2.669,0.795 1.152,0 2.007,-0.234 2.565,-0.704 0.558,-0.47 0.836,-1.021 0.836,-1.653 0,-0.567 -0.247,-1.014 -0.739,-1.339 -0.344,-0.224 -1.199,-0.508 -2.565,-0.852 -1.84,-0.465 -3.115,-0.867 -3.826,-1.207 -0.711,-0.339 -1.25,-0.809 -1.617,-1.409 -0.368,-0.6 -0.551,-1.263 -0.551,-1.988 0,-0.66 0.151,-1.271 0.453,-1.834 0.302,-0.562 0.713,-1.03 1.233,-1.402 0.39,-0.288 0.922,-0.532 1.596,-0.732 0.673,-0.2 1.396,-0.3 2.167,-0.3 1.162,0 2.182,0.167 3.06,0.502 0.878,0.335 1.526,0.788 1.944,1.36 0.418,0.572 0.706,1.337 0.864,2.295 l -2.453,0.335 c -0.111,-0.763 -0.435,-1.357 -0.969,-1.786 -0.535,-0.428 -1.29,-0.642 -2.265,-0.642 -1.152,0 -1.975,0.19 -2.467,0.572 -0.492,0.382 -0.739,0.828 -0.739,1.339 0,0.326 0.102,0.619 0.307,0.879 0.205,0.271 0.525,0.493 0.962,0.67 0.251,0.094 0.99,0.308 2.216,0.642 1.775,0.475 3.013,0.863 3.715,1.165 0.702,0.303 1.252,0.742 1.652,1.318 0.399,0.577 0.599,1.293 0.599,2.149 0,0.837 -0.244,1.625 -0.732,2.364 -0.488,0.739 -1.191,1.312 -2.111,1.716 -0.92,0.405 -1.961,0.607 -3.123,0.607 -1.924,0 -3.39,-0.4 -4.398,-1.2 -1.008,-0.8 -1.649,-1.985 -1.928,-3.557 z" id="path114" style="stroke-width:0.931585"/>
		<path d="M 132.7,224.123 V 203.67 h 2.509 v 11.663 l 5.938,-6.026 h 3.248 l -5.66,5.497 6.231,9.319 h -3.094 l -4.893,-7.576 -1.77,1.702 v 5.874 H 132.7 Z" id="path116" style="stroke-width:0.931585"/>
		<path d="m 164.551,222.295 c -0.929,0.791 -1.824,1.35 -2.683,1.675 -0.86,0.325 -1.782,0.488 -2.767,0.488 -1.626,0 -2.876,-0.397 -3.75,-1.193 -0.874,-0.795 -1.311,-1.811 -1.311,-3.048 0,-0.726 0.165,-1.389 0.495,-1.988 0.33,-0.6 0.762,-1.081 1.296,-1.444 0.534,-0.362 1.136,-0.637 1.805,-0.823 0.492,-0.13 1.236,-0.256 2.23,-0.376 2.026,-0.242 3.518,-0.53 4.475,-0.865 0.009,-0.344 0.014,-0.562 0.014,-0.656 0,-1.022 -0.237,-1.743 -0.711,-2.162 -0.642,-0.567 -1.594,-0.852 -2.858,-0.852 -1.18,0 -2.051,0.208 -2.613,0.621 -0.562,0.414 -0.978,1.146 -1.248,2.197 l -2.454,-0.335 c 0.223,-1.051 0.59,-1.899 1.102,-2.546 0.511,-0.646 1.25,-1.144 2.216,-1.493 0.966,-0.349 2.086,-0.522 3.359,-0.522 1.264,0 2.291,0.148 3.081,0.446 0.79,0.298 1.371,0.672 1.742,1.123 0.371,0.451 0.632,1.021 0.781,1.709 0.083,0.428 0.125,1.2 0.125,2.316 v 3.348 c 0,2.335 0.053,3.812 0.16,4.43 0.106,0.619 0.318,1.212 0.634,1.779 h -2.621 c -0.258,-0.521 -0.425,-1.131 -0.499,-1.829 z m -0.209,-5.608 c -0.911,0.372 -2.277,0.688 -4.098,0.949 -1.031,0.148 -1.761,0.316 -2.188,0.502 -0.427,0.187 -0.757,0.458 -0.99,0.816 -0.233,0.358 -0.348,0.756 -0.348,1.192 0,0.67 0.253,1.229 0.759,1.675 0.506,0.446 1.248,0.669 2.224,0.669 0.966,0 1.826,-0.211 2.579,-0.635 0.753,-0.423 1.306,-1.002 1.659,-1.736 0.27,-0.567 0.404,-1.404 0.404,-2.512 v -0.92 z" id="path118" style="stroke-width:0.931585"/>
		<path d="m 176.246,221.877 0.362,2.218 c -0.706,0.149 -1.338,0.224 -1.896,0.224 -0.911,0 -1.617,-0.145 -2.119,-0.433 -0.502,-0.288 -0.855,-0.667 -1.06,-1.137 -0.205,-0.47 -0.307,-1.458 -0.307,-2.965 v -8.524 h -1.84 v -1.953 h 1.84 v -3.67 l 2.495,-1.506 v 5.176 h 2.523 v 1.953 h -2.523 v 8.664 c 0,0.716 0.044,1.177 0.132,1.381 0.088,0.205 0.232,0.367 0.432,0.488 0.2,0.121 0.485,0.182 0.857,0.182 0.281,0 0.648,-0.033 1.104,-0.098 z" id="path120" style="stroke-width:0.931585"/>
		<path d="m 196.764,219.352 2.593,0.321 c -0.409,1.516 -1.167,2.692 -2.272,3.529 -1.105,0.837 -2.518,1.256 -4.237,1.256 -2.166,0 -3.882,-0.667 -5.15,-2.002 -1.268,-1.335 -1.903,-3.207 -1.903,-5.616 0,-2.492 0.641,-4.427 1.924,-5.804 1.282,-1.376 2.945,-2.064 4.99,-2.064 1.979,0 3.596,0.674 4.851,2.022 1.255,1.348 1.882,3.246 1.882,5.692 0,0.149 -0.005,0.372 -0.014,0.67 h -11.04 c 0.093,1.628 0.553,2.874 1.38,3.739 0.827,0.865 1.858,1.297 3.095,1.297 0.92,0 1.705,-0.241 2.355,-0.725 0.649,-0.483 1.165,-1.255 1.546,-2.315 z m -8.238,-4.06 h 8.266 c -0.112,-1.247 -0.428,-2.182 -0.948,-2.805 -0.799,-0.968 -1.835,-1.451 -3.108,-1.451 -1.152,0 -2.121,0.386 -2.907,1.158 -0.785,0.773 -1.219,1.805 -1.303,3.098 z" id="path122" style="stroke-width:0.931585"/>
		<path d="m 202.507,224.123 v -14.816 h 2.258 v 2.106 c 1.088,-1.628 2.658,-2.441 4.712,-2.441 0.892,0 1.712,0.16 2.46,0.481 0.748,0.32 1.308,0.741 1.68,1.263 0.372,0.521 0.632,1.139 0.78,1.855 0.093,0.465 0.14,1.278 0.14,2.441 v 9.11 h -2.509 v -9.013 c 0,-1.023 -0.098,-1.788 -0.293,-2.295 -0.195,-0.507 -0.541,-0.912 -1.038,-1.214 -0.497,-0.303 -1.08,-0.454 -1.75,-0.454 -1.068,0 -1.991,0.34 -2.767,1.019 -0.776,0.68 -1.164,1.968 -1.164,3.865 v 8.092 h -2.509 z" id="path124" style="stroke-width:0.931585"/>
		<path d="m 223.861,221.877 0.363,2.218 c -0.707,0.149 -1.339,0.224 -1.896,0.224 -0.91,0 -1.616,-0.145 -2.118,-0.433 -0.502,-0.288 -0.855,-0.667 -1.06,-1.137 -0.205,-0.47 -0.307,-1.458 -0.307,-2.965 v -8.524 h -1.84 v -1.953 h 1.84 v -3.67 l 2.495,-1.506 v 5.176 h 2.522 v 1.953 h -2.522 v 8.664 c 0,0.716 0.044,1.177 0.133,1.381 0.088,0.205 0.231,0.367 0.432,0.488 0.201,0.121 0.485,0.182 0.857,0.182 0.279,0 0.646,-0.033 1.101,-0.098 z" id="path126" style="stroke-width:0.931585"/>
		<path d="m 226.287,224.123 v -14.816 h 2.259 v 2.246 c 0.576,-1.051 1.107,-1.744 1.596,-2.079 0.489,-0.335 1.024,-0.502 1.61,-0.502 0.845,0 1.705,0.27 2.578,0.809 l -0.864,2.33 c -0.613,-0.362 -1.227,-0.544 -1.84,-0.544 -0.548,0 -1.041,0.165 -1.478,0.495 -0.437,0.33 -0.748,0.788 -0.934,1.374 -0.279,0.894 -0.418,1.87 -0.418,2.931 v 7.757 h -2.509 z" id="path128" style="stroke-width:0.931585"/>
		<path d="m 245.481,222.295 c -0.93,0.791 -1.824,1.35 -2.684,1.675 -0.86,0.325 -1.782,0.488 -2.767,0.488 -1.627,0 -2.877,-0.397 -3.75,-1.193 -0.874,-0.795 -1.311,-1.811 -1.311,-3.048 0,-0.726 0.165,-1.389 0.495,-1.988 0.33,-0.599 0.762,-1.081 1.296,-1.444 0.534,-0.362 1.137,-0.637 1.806,-0.823 0.492,-0.13 1.235,-0.256 2.23,-0.376 2.025,-0.242 3.517,-0.53 4.474,-0.865 0.01,-0.344 0.015,-0.562 0.015,-0.656 0,-1.022 -0.237,-1.743 -0.711,-2.162 -0.642,-0.567 -1.594,-0.852 -2.857,-0.852 -1.181,0 -2.052,0.208 -2.614,0.621 -0.562,0.414 -0.978,1.146 -1.247,2.197 l -2.453,-0.335 c 0.223,-1.051 0.59,-1.899 1.101,-2.546 0.512,-0.646 1.25,-1.144 2.217,-1.493 0.966,-0.349 2.086,-0.522 3.359,-0.522 1.264,0 2.29,0.148 3.08,0.446 0.79,0.298 1.371,0.672 1.742,1.123 0.372,0.451 0.632,1.021 0.781,1.709 0.083,0.428 0.125,1.2 0.125,2.316 v 3.348 c 0,2.335 0.054,3.812 0.16,4.43 0.107,0.619 0.318,1.212 0.635,1.779 h -2.621 c -0.259,-0.521 -0.426,-1.131 -0.501,-1.829 z m -0.21,-5.608 c -0.91,0.372 -2.276,0.688 -4.098,0.949 -1.031,0.148 -1.761,0.316 -2.188,0.502 -0.428,0.187 -0.758,0.458 -0.989,0.816 -0.232,0.358 -0.349,0.756 -0.349,1.192 0,0.67 0.253,1.229 0.76,1.675 0.506,0.446 1.247,0.669 2.223,0.669 0.967,0 1.826,-0.211 2.579,-0.635 0.753,-0.423 1.306,-1.002 1.659,-1.736 0.269,-0.567 0.403,-1.404 0.403,-2.512 z" id="path130" style="stroke-width:0.931585"/>
		<path d="m 251.698,224.123 v -14.816 h 2.258 v 2.106 c 1.088,-1.628 2.658,-2.441 4.712,-2.441 0.892,0 1.712,0.16 2.46,0.481 0.748,0.32 1.308,0.741 1.68,1.263 0.372,0.521 0.632,1.139 0.78,1.855 0.093,0.465 0.14,1.278 0.14,2.441 v 9.11 h -2.509 v -9.013 c 0,-1.023 -0.098,-1.788 -0.293,-2.295 -0.195,-0.507 -0.541,-0.912 -1.038,-1.214 -0.497,-0.303 -1.08,-0.454 -1.75,-0.454 -1.068,0 -1.991,0.34 -2.767,1.019 -0.776,0.68 -1.164,1.968 -1.164,3.865 v 8.092 h -2.509 z" id="path132" style="stroke-width:0.931585"/>
		<path d="m 277.235,218.696 2.467,0.32 c -0.27,1.702 -0.96,3.034 -2.07,3.997 -1.11,0.963 -2.474,1.444 -4.091,1.444 -2.026,0 -3.654,-0.663 -4.886,-1.988 -1.232,-1.325 -1.847,-3.225 -1.847,-5.699 0,-1.6 0.265,-3 0.794,-4.199 0.53,-1.2 1.336,-2.1 2.419,-2.7 1.082,-0.6 2.261,-0.899 3.533,-0.899 1.607,0 2.923,0.406 3.945,1.221 1.021,0.813 1.677,1.97 1.965,3.467 l -2.439,0.377 c -0.231,-0.995 -0.644,-1.744 -1.233,-2.246 -0.59,-0.503 -1.303,-0.754 -2.14,-0.754 -1.264,0 -2.291,0.453 -3.08,1.36 -0.79,0.907 -1.185,2.342 -1.185,4.305 0,1.99 0.381,3.437 1.143,4.339 0.762,0.902 1.756,1.353 2.983,1.353 0.984,0 1.807,-0.302 2.467,-0.906 0.66,-0.606 1.079,-1.537 1.255,-2.792 z" id="path134" style="stroke-width:0.931585"/>
		<path d="m 291.982,219.352 2.593,0.321 c -0.409,1.516 -1.167,2.692 -2.272,3.529 -1.105,0.837 -2.519,1.256 -4.237,1.256 -2.165,0 -3.882,-0.667 -5.15,-2.002 -1.268,-1.335 -1.902,-3.207 -1.902,-5.616 0,-2.492 0.641,-4.427 1.923,-5.804 1.282,-1.376 2.946,-2.064 4.99,-2.064 1.979,0 3.597,0.674 4.851,2.022 1.255,1.349 1.882,3.246 1.882,5.692 0,0.149 -0.004,0.372 -0.014,0.67 h -11.04 c 0.093,1.628 0.553,2.874 1.381,3.739 0.826,0.865 1.858,1.297 3.094,1.297 0.92,0 1.705,-0.241 2.356,-0.725 0.648,-0.483 1.165,-1.255 1.545,-2.315 z m -8.238,-4.06 h 8.266 c -0.111,-1.247 -0.427,-2.182 -0.947,-2.805 -0.8,-0.968 -1.836,-1.451 -3.108,-1.451 -1.152,0 -2.121,0.386 -2.906,1.158 -0.785,0.772 -1.221,1.805 -1.305,3.098 z" id="path136" style="stroke-width:0.931585"/>
	</g>
</g>
<text xml:space="preserve" style="font-style:normal;font-variant:normal;font-weight:bold;font-stretch:normal;font-size:46.4035px;line-height:1.25;font-family:Arial;-inkscape-font-specification:'Arial Bold';font-variant-ligatures:normal;font-variant-caps:normal;font-variant-numeric:normal;font-variant-east-asian:normal;text-align:center;writing-mode:lr-tb;text-anchor:middle;fill:#000000;fill-opacity:1;stroke:#000000;stroke-width:4;stroke-linecap:square;paint-order:markers fill stroke" x="232.05913" y="65.112923" id="text682" transform="scale(0.8620041,1.1600873)"><tspan sodipodi:role="line" id="tspan680" x="232.05911" y="65.112923" style="font-style:normal;font-variant:normal;font-weight:bold;font-stretch:normal;font-size:46.4035px;font-family:Arial;-inkscape-font-specification:'Arial Bold';font-variant-ligatures:normal;font-variant-caps:normal;font-variant-numeric:normal;font-variant-east-asian:normal;text-align:center;text-anchor:middle;fill:#000000;fill-opacity:1;stroke:none;stroke-width:4">A<tspan style="font-size:42.6667px" id="tspan3106">DVENTURE</tspan> P<tspan style="font-size:42.6667px" id="tspan3110">ARK</tspan></tspan></text></svg>