<?xml version="1.0" encoding="UTF-8"?><svg xmlns:dc="http://purl.org/dc/elements/1.1/" xmlns:cc="http://creativecommons.org/ns#" xmlns:rdf="http://www.w3.org/1999/02/22-rdf-syntax-ns#" xmlns:svg="http://www.w3.org/2000/svg" xmlns="http://www.w3.org/2000/svg" id="svg2" xml:space="preserve" enable-background="new 0 0 271.366 400" viewBox="0 0 248.123 400" height="400" width="248.123" y="0px" x="0px" version="1.1"><metadata id="metadata458"><rdf:RDF><cc:Work rdf:about=""><dc:format>image/svg+xml</dc:format><dc:type rdf:resource="http://purl.org/dc/dcmitype/StillImage"/><dc:title/></cc:Work></rdf:RDF></metadata><defs id="defs456"/><g transform="translate(-11.685,0)" id="Transparent_Background"><rect style="opacity:0;fill:#0071bb" y="0" x="0" id="rect5" height="400" width="271.366"/></g><g transform="translate(-11.685,0)" id="Layer_3"><g id="g8"><linearGradient gradientTransform="translate(11.685,0)" y2="200" x2="259.80789" y1="200" x1="11.685" gradientUnits="userSpaceOnUse" id="SVGID_1_"><stop id="stop11" style="stop-color:#BFBFBF" offset="0"/><stop id="stop13" style="stop-color:#ABABAB" offset="0.0067"/><stop id="stop15" style="stop-color:#777777" offset="0.0204"/><stop id="stop17" style="stop-color:#404040" offset="0.0336"/><stop id="stop19" style="stop-color:#505050" offset="0.0454"/><stop id="stop21" style="stop-color:#797979" offset="0.0789"/><stop id="stop23" style="stop-color:#9D9D9D" offset="0.1156"/><stop id="stop25" style="stop-color:#BCBCBC" offset="0.1549"/><stop id="stop27" style="stop-color:#D4D4D4" offset="0.1979"/><stop id="stop29" style="stop-color:#E7E7E7" offset="0.246"/><stop id="stop31" style="stop-color:#F5F5F5" offset="0.3019"/><stop id="stop33" style="stop-color:#FDFDFD" offset="0.3729"/><stop id="stop35" style="stop-color:#FFFFFF" offset="0.5094"/><stop id="stop37" style="stop-color:#FDFDFD" offset="0.6402"/><stop id="stop39" style="stop-color:#F5F5F5" offset="0.7082"/><stop id="stop41" style="stop-color:#E7E7E7" offset="0.7618"/><stop id="stop43" style="stop-color:#D4D4D4" offset="0.8079"/><stop id="stop45" style="stop-color:#BCBCBC" offset="0.8492"/><stop id="stop47" style="stop-color:#9D9D9D" offset="0.887"/><stop id="stop49" style="stop-color:#797979" offset="0.9221"/><stop id="stop51" style="stop-color:#505050" offset="0.9544"/><stop id="stop53" style="stop-color:#404040" offset="0.9656"/><stop id="stop55" style="stop-color:#535353" offset="0.9675"/><stop id="stop57" style="stop-color:#747474" offset="0.9714"/><stop id="stop59" style="stop-color:#909090" offset="0.9756"/><stop id="stop61" style="stop-color:#A5A5A5" offset="0.9801"/><stop id="stop63" style="stop-color:#B4B4B4" offset="0.9851"/><stop id="stop65" style="stop-color:#BDBDBD" offset="0.991"/><stop id="stop67" style="stop-color:#BFBFBF" offset="1"/></linearGradient><path style="fill:url(#SVGID_1_)" id="path69" d="m 235.292,400 -199.091,0 c -13.54,0 -24.516,-10.976 -24.516,-24.516 l 0,-350.968 C 11.685,10.976 22.661,0 36.201,0 l 199.091,0 c 13.54,0 24.516,10.976 24.516,24.516 l 0,350.968 c 0,13.54 -10.976,24.516 -24.516,24.516 z"/><g id="g71"><linearGradient gradientTransform="translate(11.685,0)" y2="31.5933" x2="31.0755" y1="170.25999" x1="141.0755" gradientUnits="userSpaceOnUse" id="SVGID_2_"><stop id="stop74" style="stop-color:#404040" offset="0"/><stop id="stop76" style="stop-color:#7E7F81" offset="1"/></linearGradient><path style="fill:url(#SVGID_2_)" id="path78" d="m 22.689,295.729 0,-261.622 c 0,-11.323 9.179,-20.503 20.503,-20.503 l 181.624,0 c 11.323,0 20.503,9.179 20.503,20.503 l 0,63.122 -222.63,198.5 z"/><linearGradient gradientTransform="translate(11.685,0)" y2="388.66739" x2="257.14749" y1="209.1674" x1="113.1475" gradientUnits="userSpaceOnUse" id="SVGID_3_"><stop id="stop81" style="stop-color:#231F20" offset="0"/><stop id="stop83" style="stop-color:#404040" offset="1"/></linearGradient><path style="fill:url(#SVGID_3_)" id="path85" d="m 245.318,97.229 0,268.664 c 0,11.323 -9.179,20.503 -20.503,20.503 l -181.623,0 c -11.323,0 -20.503,-9.179 -20.503,-20.503 l 0,-70.164 222.629,-198.5 z"/></g><linearGradient gradientTransform="translate(11.685,0)" y2="337.33591" x2="117.2246" y1="367.83069" x1="153.56689" gradientUnits="userSpaceOnUse" id="SVGID_4_"><stop id="stop88" style="stop-color:#BFBFBF" offset="0"/><stop id="stop90" style="stop-color:#BFBFBF" offset="4.112583e-05"/><stop id="stop92" style="stop-color:#A4A4A5" offset="0.0033"/><stop id="stop94" style="stop-color:#8E8F90" offset="0.0069"/><stop id="stop96" style="stop-color:#7D7E80" offset="0.0112"/><stop id="stop98" style="stop-color:#727374" offset="0.0165"/><stop id="stop100" style="stop-color:#6B6C6E" offset="0.024"/><stop id="stop102" style="stop-color:#696A6C" offset="0.0447"/><stop id="stop104" style="stop-color:#838385" offset="0.074"/><stop id="stop106" style="stop-color:#9D9D9E" offset="0.1125"/><stop id="stop108" style="stop-color:#B0B0B0" offset="0.1519"/><stop id="stop110" style="stop-color:#BBBBBB" offset="0.1924"/><stop id="stop112" style="stop-color:#BFBFBF" offset="0.2356"/><stop id="stop114" style="stop-color:#ADADAD" offset="0.4148"/><stop id="stop116" style="stop-color:#A1A1A1" offset="0.5155"/><stop id="stop118" style="stop-color:#BFBFBF" offset="0.7389"/><stop id="stop120" style="stop-color:#BCBCBC" offset="0.8018"/><stop id="stop122" style="stop-color:#B2B2B3" offset="0.8503"/><stop id="stop124" style="stop-color:#A2A2A3" offset="0.8939"/><stop id="stop126" style="stop-color:#8B8C8D" offset="0.9345"/><stop id="stop128" style="stop-color:#7E7F81" offset="0.9524"/><stop id="stop130" style="stop-color:#9C9C9D" offset="0.9729"/><stop id="stop132" style="stop-color:#BFBFBF" offset="1"/></linearGradient><path style="fill:url(#SVGID_4_)" id="path134" d="m 147.961,371.167 -25.131,0 c -3.323,0 -6.018,-2.694 -6.018,-6.018 l 0,-25.131 c 0,-3.323 2.694,-6.018 6.018,-6.018 l 25.131,0 c 3.323,0 6.018,2.694 6.018,6.018 l 0,25.131 c 0,3.323 -2.694,6.018 -6.018,6.018 z"/><path style="fill:#ffffff" id="path136" d="m 234.807,321.031 -198.249,0 c -2.278,0 -4.125,-1.847 -4.125,-4.125 l 0,-257.151 c 0,-2.278 1.847,-4.125 4.125,-4.125 l 198.249,0 c 2.278,0 4.125,1.847 4.125,4.125 l 0,257.151 c 0.001,2.278 -1.846,4.125 -4.125,4.125 z"/><linearGradient gradientTransform="translate(11.685,0)" y2="21.7206" x2="117.7018" y1="51.553501" x1="153.2552" gradientUnits="userSpaceOnUse" id="SVGID_5_"><stop id="stop139" style="stop-color:#BFBFBF" offset="0"/><stop id="stop141" style="stop-color:#BFBFBF" offset="4.112583e-05"/><stop id="stop143" style="stop-color:#A4A4A5" offset="0.0033"/><stop id="stop145" style="stop-color:#8E8F90" offset="0.0069"/><stop id="stop147" style="stop-color:#7D7E80" offset="0.0112"/><stop id="stop149" style="stop-color:#727374" offset="0.0165"/><stop id="stop151" style="stop-color:#6B6C6E" offset="0.024"/><stop id="stop153" style="stop-color:#696A6C" offset="0.0447"/><stop id="stop155" style="stop-color:#8D8E8F" offset="0.0829"/><stop id="stop157" style="stop-color:#AEAEAF" offset="0.102"/><stop id="stop159" style="stop-color:#CBCBCC" offset="0.1237"/><stop id="stop161" style="stop-color:#E2E2E2" offset="0.1468"/><stop id="stop163" style="stop-color:#F2F2F3" offset="0.1716"/><stop id="stop165" style="stop-color:#FCFCFC" offset="0.1993"/><stop id="stop167" style="stop-color:#FFFFFF" offset="0.2356"/><stop id="stop169" style="stop-color:#EDEDED" offset="0.3751"/><stop id="stop171" style="stop-color:#D6D6D6" offset="0.5155"/><stop id="stop173" style="stop-color:#DDDDDD" offset="0.5433"/><stop id="stop175" style="stop-color:#F6F6F6" offset="0.6651"/><stop id="stop177" style="stop-color:#FFFFFF" offset="0.7389"/><stop id="stop179" style="stop-color:#FCFCFC" offset="0.7823"/><stop id="stop181" style="stop-color:#F2F2F2" offset="0.8157"/><stop id="stop183" style="stop-color:#E2E2E2" offset="0.8458"/><stop id="stop185" style="stop-color:#CBCBCB" offset="0.8738"/><stop id="stop187" style="stop-color:#B0B0B1" offset="0.8981"/><stop id="stop189" style="stop-color:#8F8F91" offset="0.9311"/><stop id="stop191" style="stop-color:#7E7F81" offset="0.9524"/><stop id="stop193" style="stop-color:#9C9C9D" offset="0.9729"/><stop id="stop195" style="stop-color:#BFBFBF" offset="1"/></linearGradient><rect style="fill:url(#SVGID_5_)" id="rect197" height="3.9760001" width="57.25" y="34.648998" x="106.854"/><g id="g199"><path style="fill:#404040" id="path201" d="m 224.815,387 -178.839,0 c -11.857,0 -21.503,-9.646 -21.503,-21.503 l 0,-328.455 c 0,-11.857 9.646,-21.503 21.503,-21.503 l 178.839,0 c 11.857,0 21.503,9.646 21.503,21.503 l 0,328.455 c 0,11.857 -9.646,21.503 -21.503,21.503 z M 45.976,17.539 c -10.754,0 -19.503,8.749 -19.503,19.503 l 0,328.455 c 0,10.754 8.749,19.503 19.503,19.503 l 178.839,0 c 10.754,0 19.503,-8.749 19.503,-19.503 l 0,-328.455 c 0,-10.754 -8.749,-19.503 -19.503,-19.503 l -178.839,0 z"/></g><path style="fill:none;stroke:#ffffff;stroke-width:2;stroke-miterlimit:10" id="path203" d="m 226.208,387 -181.624,0 c -11.323,0 -20.503,-9.179 -20.503,-20.503 l 0,-331.786 c 0,-11.323 9.179,-20.503 20.503,-20.503 l 181.624,0 c 11.323,0 20.503,9.179 20.503,20.503 l 0,331.786 C 246.71,377.821 237.531,387 226.208,387 Z" stroke-miterlimit="10"/><g id="g205"><path style="fill:#666666" id="path207" d="m 234.767,322.031 -198.168,0 c -2.849,0 -5.167,-2.317 -5.167,-5.166 l 0,-28.932 2,-1.767 0,30.699 c 0,1.746 1.42,3.166 3.167,3.166 l 198.167,0 c 1.746,0 3.166,-1.42 3.166,-3.166 l 0,-212.823 2,-2.011 0,214.835 c 0.001,2.848 -2.317,5.165 -5.165,5.165 z"/></g><g id="g209"><path style="fill:#333333" id="path211" d="m 33.433,286.167 -2,1.767 0,-228.139 c 0,-2.849 2.318,-5.166 5.167,-5.166 l 198.167,0 c 2.849,0 5.166,2.317 5.166,5.166 l 0,42.235 -2,2.011 0,-44.246 c 0,-1.746 -1.42,-3.166 -3.166,-3.166 l -198.168,0 c -1.746,0 -3.167,1.42 -3.167,3.166 l 0,226.372 z"/></g><g id="g213"><path style="fill:#666666" id="path215" d="m 162.116,39.125 -53.899,0 c -1.372,0 -2.488,-1.116 -2.488,-2.488 l 1,0 c 0,0.82 0.667,1.488 1.488,1.488 l 53.899,0 c 0.82,0 1.488,-0.667 1.488,-1.488 l 1,0 c 0,1.372 -1.117,2.488 -2.488,2.488 z"/></g><g id="g217"><path style="fill:#333333" id="path219" d="m 165.104,36.637 -2,0 c 0,-0.545 -0.443,-0.988 -0.988,-0.988 l -53.899,0 c -0.544,0 -0.988,0.443 -0.988,0.988 l -2,0 c 0,-1.648 1.34,-2.988 2.988,-2.988 l 53.899,0 c 1.647,0 2.988,1.34 2.988,2.988 z"/></g><g id="g221"><path style="fill:#666666" id="path223" d="m 149.205,372.167 -27.119,0 c -1.609,0 -3.122,-0.627 -4.259,-1.765 l 1.414,-1.414 c 0.76,0.76 1.771,1.179 2.845,1.179 l 27.119,0 c 2.219,0 4.024,-1.806 4.024,-4.024 l 0,-27.119 c 0,-1.074 -0.418,-2.084 -1.179,-2.845 l 1.415,-1.414 c 1.137,1.139 1.764,2.65 1.764,4.259 l 0,27.119 c 0,3.322 -2.703,6.024 -6.024,6.024 z"/></g><g id="g225"><path style="fill:#333333" id="path227" d="m 117.826,370.402 c -1.138,-1.138 -1.764,-2.65 -1.764,-4.26 l 0,-27.119 c 0,-3.321 2.702,-6.023 6.023,-6.023 l 27.119,0 c 1.609,0 3.122,0.627 4.26,1.765 l -1.414,1.414 C 151.29,335.419 150.279,335 149.204,335 l -27.119,0 c -2.219,0 -4.023,1.805 -4.023,4.023 l 0,27.119 c 0,1.075 0.418,2.086 1.178,2.846 l -1.414,1.414 z"/></g><g id="g229"><path style="fill:#8c8c8c" id="path231" d="m 70.479,350 -14.667,0 c 0,0 -1.75,2.706 -1.75,4.714 0,2.008 0,2.619 0,2.619 l 8.208,0 c 0,0 0.125,-3.667 1.708,-3.667 1.583,0 6.5,0 6.5,0"/><path style="fill:#8c8c8c" id="path233" d="m 70.395,350 14.667,0 c 0,0 1.75,2.706 1.75,4.714 0,2.008 0,2.619 0,2.619 l -8.208,0 c 0,0 -0.125,-3.667 -1.708,-3.667 -1.583,0 -6.5,0 -6.5,0"/></g><g id="g235"><path style="fill:#8c8c8c" id="path237" d="m 200.479,350 -14.667,0 c 0,0 -1.75,2.706 -1.75,4.714 0,2.008 0,2.619 0,2.619 l 8.208,0 c 0,0 0.125,-3.667 1.708,-3.667 1.583,0 6.5,0 6.5,0"/><path style="fill:#8c8c8c" id="path239" d="m 200.395,350 14.667,0 c 0,0 1.75,2.706 1.75,4.714 0,2.008 0,2.619 0,2.619 l -8.208,0 c 0,0 -0.125,-3.667 -1.708,-3.667 -1.583,0 -6.5,0 -6.5,0"/></g></g></g><g transform="translate(-11.685,0)" id="Layer_5"><g id="g242"><path id="path244" d="m 41.092,74.213 1.914,0 0,13.224 6.337,0 0,1.606 -8.251,0 0,-14.83 z"/><path id="path246" d="m 51.52,78.394 2.332,6.293 c 0.242,0.704 0.506,1.54 0.682,2.178 l 0.044,0 c 0.198,-0.638 0.418,-1.452 0.682,-2.222 l 2.112,-6.249 2.046,0 -2.904,7.591 c -1.386,3.653 -2.333,5.523 -3.653,6.667 -0.946,0.836 -1.892,1.167 -2.376,1.254 l -0.484,-1.628 c 0.484,-0.154 1.122,-0.462 1.694,-0.946 0.528,-0.418 1.188,-1.166 1.628,-2.156 0.088,-0.198 0.154,-0.352 0.154,-0.462 0,-0.11 -0.044,-0.264 -0.132,-0.506 l -3.938,-9.813 2.113,0 z"/><path id="path248" d="m 61.178,81.276 c 0,-1.1 -0.022,-2.002 -0.088,-2.882 l 1.716,0 0.11,1.76 0.044,0 c 0.528,-1.012 1.76,-2.002 3.521,-2.002 1.474,0 3.762,0.88 3.762,4.533 l 0,6.359 -1.936,0 0,-6.139 c 0,-1.716 -0.638,-3.146 -2.464,-3.146 -1.276,0 -2.267,0.902 -2.597,1.98 -0.088,0.242 -0.132,0.572 -0.132,0.902 l 0,6.403 -1.936,0 0,-7.768 z"/><path id="path250" d="m 73.388,81.276 c 0,-1.1 -0.022,-2.002 -0.088,-2.882 l 1.716,0 0.11,1.76 0.044,0 c 0.528,-1.012 1.76,-2.002 3.521,-2.002 1.474,0 3.762,0.88 3.762,4.533 l 0,6.359 -1.936,0 0,-6.139 c 0,-1.716 -0.638,-3.146 -2.464,-3.146 -1.276,0 -2.267,0.902 -2.597,1.98 -0.088,0.242 -0.132,0.572 -0.132,0.902 l 0,6.403 -1.936,0 0,-7.768 z"/><path id="path252" d="m 86.676,84.071 c 0.044,2.618 1.716,3.696 3.652,3.696 1.386,0 2.222,-0.242 2.948,-0.55 l 0.33,1.386 c -0.682,0.308 -1.848,0.66 -3.542,0.66 -3.278,0 -5.237,-2.157 -5.237,-5.369 0,-3.212 1.893,-5.743 4.995,-5.743 3.476,0 4.4,3.059 4.4,5.017 0,0.396 -0.044,0.704 -0.066,0.902 l -7.48,0 z m 5.677,-1.386 c 0.022,-1.232 -0.506,-3.146 -2.685,-3.146 -1.958,0 -2.816,1.804 -2.97,3.146 l 5.655,0 z"/><path id="path254" d="m 41.092,100.613 1.914,0 0,7.151 0.066,0 c 0.396,-0.572 0.792,-1.1 1.167,-1.584 l 4.533,-5.567 2.376,0 -5.369,6.293 5.787,8.537 -2.266,0 -4.885,-7.283 -1.408,1.628 0,5.655 -1.914,0 0,-14.83 z"/><path id="path256" d="m 55.326,101.801 c 0.022,0.66 -0.462,1.188 -1.232,1.188 -0.682,0 -1.166,-0.528 -1.166,-1.188 0,-0.682 0.506,-1.21 1.21,-1.21 0.726,0 1.188,0.528 1.188,1.21 z m -2.156,13.642 0,-10.649 1.936,0 0,10.649 -1.936,0 z"/><path id="path258" d="m 58.318,107.676 c 0,-1.1 -0.022,-2.002 -0.088,-2.882 l 1.694,0 0.088,1.716 0.066,0 c 0.594,-1.012 1.584,-1.958 3.344,-1.958 1.452,0 2.552,0.88 3.015,2.134 l 0.044,0 c 0.33,-0.594 0.748,-1.056 1.188,-1.386 0.638,-0.484 1.342,-0.748 2.354,-0.748 1.408,0 3.499,0.924 3.499,4.621 l 0,6.271 -1.893,0 0,-6.029 c 0,-2.046 -0.748,-3.278 -2.31,-3.278 -1.1,0 -1.958,0.814 -2.289,1.76 -0.088,0.264 -0.154,0.616 -0.154,0.968 l 0,6.579 -1.893,0 0,-6.381 c 0,-1.694 -0.748,-2.926 -2.222,-2.926 -1.21,0 -2.09,0.968 -2.398,1.936 -0.11,0.286 -0.154,0.616 -0.154,0.946 l 0,6.425 -1.892,0 0,-7.768 z"/><path id="path260" d="m 78.382,100.371 c -0.506,1.848 -1.452,4.203 -2.068,5.215 l -1.232,0.154 c 0.484,-1.298 1.056,-3.586 1.298,-5.17 l 2.002,-0.199 z"/><path id="path262" d="m 78.646,113.463 c 0.572,0.374 1.584,0.771 2.552,0.771 1.408,0 2.068,-0.704 2.068,-1.584 0,-0.924 -0.55,-1.43 -1.98,-1.958 -1.914,-0.682 -2.816,-1.738 -2.816,-3.015 0,-1.716 1.386,-3.125 3.675,-3.125 1.078,0 2.024,0.308 2.618,0.66 l -0.484,1.408 c -0.418,-0.264 -1.188,-0.616 -2.178,-0.616 -1.145,0 -1.782,0.66 -1.782,1.452 0,0.88 0.638,1.276 2.024,1.804 1.849,0.704 2.794,1.628 2.794,3.213 0,1.87 -1.452,3.19 -3.982,3.19 -1.166,0 -2.244,-0.286 -2.993,-0.726 l 0.484,-1.474 z"/><path id="path264" d="m 92.286,108.271 c 0,-1.364 -0.044,-2.464 -0.088,-3.477 l 1.738,0 0.088,1.826 0.044,0 c 0.792,-1.298 2.046,-2.068 3.784,-2.068 2.575,0 4.511,2.178 4.511,5.413 0,3.829 -2.332,5.721 -4.841,5.721 -1.408,0 -2.64,-0.616 -3.278,-1.672 l -0.044,0 0,5.787 -1.914,0 0,-11.53 z m 1.914,2.838 c 0,0.286 0.044,0.55 0.088,0.792 0.352,1.342 1.519,2.266 2.905,2.266 2.046,0 3.234,-1.672 3.234,-4.114 0,-2.134 -1.122,-3.961 -3.168,-3.961 -1.32,0 -2.553,0.946 -2.927,2.398 -0.066,0.242 -0.132,0.528 -0.132,0.792 l 0,1.827 z"/><path id="path266" d="m 110.7,115.443 -0.154,-1.342 -0.066,0 c -0.594,0.836 -1.738,1.584 -3.257,1.584 -2.156,0 -3.256,-1.519 -3.256,-3.059 0,-2.574 2.289,-3.982 6.403,-3.96 l 0,-0.22 c 0,-0.88 -0.242,-2.464 -2.42,-2.464 -0.99,0 -2.024,0.308 -2.772,0.792 l -0.44,-1.276 c 0.88,-0.572 2.157,-0.946 3.499,-0.946 3.257,0 4.049,2.222 4.049,4.356 l 0,3.983 c 0,0.924 0.044,1.826 0.176,2.552 l -1.762,0 z m -0.286,-5.434 c -2.112,-0.044 -4.511,0.33 -4.511,2.398 0,1.254 0.836,1.849 1.826,1.849 1.386,0 2.266,-0.88 2.574,-1.782 0.066,-0.198 0.11,-0.418 0.11,-0.616 l 0,-1.849 z"/><path id="path268" d="m 115.407,108.116 c 0,-1.254 -0.022,-2.332 -0.088,-3.322 l 1.694,0 0.066,2.09 0.088,0 c 0.484,-1.43 1.65,-2.333 2.948,-2.333 0.22,0 0.374,0.022 0.55,0.066 l 0,1.826 c -0.198,-0.044 -0.396,-0.066 -0.66,-0.066 -1.364,0 -2.333,1.034 -2.597,2.486 -0.044,0.264 -0.088,0.572 -0.088,0.902 l 0,5.677 -1.914,0 0,-7.326 z"/><path id="path270" d="m 125.461,101.735 0,3.059 2.772,0 0,1.474 -2.772,0 0,5.743 c 0,1.32 0.374,2.068 1.452,2.068 0.506,0 0.88,-0.066 1.122,-0.132 l 0.088,1.452 c -0.374,0.154 -0.968,0.264 -1.716,0.264 -0.902,0 -1.628,-0.286 -2.09,-0.814 -0.55,-0.572 -0.748,-1.518 -0.748,-2.772 l 0,-5.809 -1.65,0 0,-1.474 1.65,0 0,-2.552 1.892,-0.507 z"/><path id="path272" d="m 131.312,104.794 2.332,6.293 c 0.242,0.704 0.506,1.54 0.682,2.178 l 0.044,0 c 0.198,-0.638 0.418,-1.452 0.682,-2.223 l 2.112,-6.249 2.046,0 -2.904,7.591 c -1.386,3.653 -2.333,5.523 -3.653,6.667 -0.946,0.836 -1.892,1.167 -2.376,1.254 l -0.484,-1.628 c 0.484,-0.154 1.122,-0.462 1.694,-0.946 0.528,-0.418 1.188,-1.167 1.628,-2.157 0.088,-0.198 0.154,-0.352 0.154,-0.462 0,-0.11 -0.044,-0.264 -0.132,-0.506 l -3.938,-9.813 2.113,0 z"/><path id="path274" d="m 145.37,113.463 c 0.572,0.374 1.584,0.771 2.552,0.771 1.408,0 2.068,-0.704 2.068,-1.584 0,-0.924 -0.55,-1.43 -1.98,-1.958 -1.914,-0.682 -2.816,-1.738 -2.816,-3.015 0,-1.716 1.386,-3.125 3.675,-3.125 1.078,0 2.024,0.308 2.618,0.66 l -0.484,1.408 c -0.418,-0.264 -1.188,-0.616 -2.178,-0.616 -1.145,0 -1.782,0.66 -1.782,1.452 0,0.88 0.638,1.276 2.024,1.804 1.849,0.704 2.794,1.628 2.794,3.213 0,1.87 -1.452,3.19 -3.982,3.19 -1.166,0 -2.244,-0.286 -2.993,-0.726 l 0.484,-1.474 z"/><path id="path276" d="m 156.678,101.735 0,3.059 2.772,0 0,1.474 -2.772,0 0,5.743 c 0,1.32 0.374,2.068 1.452,2.068 0.506,0 0.88,-0.066 1.123,-0.132 l 0.088,1.452 c -0.374,0.154 -0.968,0.264 -1.716,0.264 -0.902,0 -1.628,-0.286 -2.09,-0.814 -0.55,-0.572 -0.748,-1.518 -0.748,-2.772 l 0,-5.809 -1.65,0 0,-1.474 1.65,0 0,-2.552 1.891,-0.507 z"/><path id="path278" d="m 167.524,115.443 -0.154,-1.342 -0.066,0 c -0.594,0.836 -1.738,1.584 -3.257,1.584 -2.156,0 -3.256,-1.519 -3.256,-3.059 0,-2.574 2.289,-3.982 6.403,-3.96 l 0,-0.22 c 0,-0.88 -0.242,-2.464 -2.42,-2.464 -0.99,0 -2.024,0.308 -2.772,0.792 l -0.44,-1.276 c 0.88,-0.572 2.156,-0.946 3.499,-0.946 3.257,0 4.049,2.222 4.049,4.356 l 0,3.983 c 0,0.924 0.044,1.826 0.176,2.552 l -1.762,0 z m -0.286,-5.434 c -2.112,-0.044 -4.51,0.33 -4.51,2.398 0,1.254 0.836,1.849 1.826,1.849 1.386,0 2.266,-0.88 2.574,-1.782 0.066,-0.198 0.11,-0.418 0.11,-0.616 l 0,-1.849 z"/><path id="path280" d="m 172.232,108.116 c 0,-1.254 -0.022,-2.332 -0.088,-3.322 l 1.694,0 0.066,2.09 0.088,0 c 0.484,-1.43 1.65,-2.333 2.948,-2.333 0.22,0 0.374,0.022 0.55,0.066 l 0,1.826 c -0.198,-0.044 -0.396,-0.066 -0.66,-0.066 -1.364,0 -2.333,1.034 -2.597,2.486 -0.044,0.264 -0.088,0.572 -0.088,0.902 l 0,5.677 -1.914,0 0,-7.326 z"/><path id="path282" d="m 182.286,101.735 0,3.059 2.772,0 0,1.474 -2.772,0 0,5.743 c 0,1.32 0.374,2.068 1.452,2.068 0.506,0 0.88,-0.066 1.123,-0.132 l 0.088,1.452 c -0.374,0.154 -0.968,0.264 -1.716,0.264 -0.902,0 -1.628,-0.286 -2.09,-0.814 -0.55,-0.572 -0.748,-1.518 -0.748,-2.772 l 0,-5.809 -1.65,0 0,-1.474 1.65,0 0,-2.552 1.891,-0.507 z"/><path id="path284" d="m 186.971,113.463 c 0.572,0.374 1.584,0.771 2.552,0.771 1.408,0 2.068,-0.704 2.068,-1.584 0,-0.924 -0.55,-1.43 -1.98,-1.958 -1.914,-0.682 -2.816,-1.738 -2.816,-3.015 0,-1.716 1.386,-3.125 3.675,-3.125 1.078,0 2.024,0.308 2.618,0.66 l -0.484,1.408 c -0.418,-0.264 -1.188,-0.616 -2.178,-0.616 -1.145,0 -1.782,0.66 -1.782,1.452 0,0.88 0.638,1.276 2.024,1.804 1.849,0.704 2.794,1.628 2.794,3.213 0,1.87 -1.452,3.19 -3.982,3.19 -1.166,0 -2.244,-0.286 -2.993,-0.726 l 0.484,-1.474 z"/><path id="path286" d="m 206.507,115.443 -0.154,-1.342 -0.066,0 c -0.594,0.836 -1.738,1.584 -3.257,1.584 -2.156,0 -3.256,-1.519 -3.256,-3.059 0,-2.574 2.289,-3.982 6.403,-3.96 l 0,-0.22 c 0,-0.88 -0.242,-2.464 -2.42,-2.464 -0.99,0 -2.024,0.308 -2.772,0.792 l -0.44,-1.276 c 0.88,-0.572 2.157,-0.946 3.499,-0.946 3.257,0 4.049,2.222 4.049,4.356 l 0,3.983 c 0,0.924 0.044,1.826 0.176,2.552 l -1.762,0 z m -0.285,-5.434 c -2.112,-0.044 -4.511,0.33 -4.511,2.398 0,1.254 0.836,1.849 1.826,1.849 1.386,0 2.266,-0.88 2.574,-1.782 0.066,-0.198 0.11,-0.418 0.11,-0.616 l 0,-1.849 z"/><path id="path288" d="m 213.459,101.735 0,3.059 2.772,0 0,1.474 -2.772,0 0,5.743 c 0,1.32 0.374,2.068 1.452,2.068 0.506,0 0.88,-0.066 1.122,-0.132 l 0.088,1.452 c -0.374,0.154 -0.968,0.264 -1.716,0.264 -0.902,0 -1.628,-0.286 -2.09,-0.814 -0.55,-0.572 -0.748,-1.518 -0.748,-2.772 l 0,-5.809 -1.65,0 0,-1.474 1.65,0 0,-2.552 1.892,-0.507 z"/><path id="path290" d="m 40.234,138.213 c 0,-1.804 1.078,-3.081 2.838,-3.829 l -0.022,-0.066 c -1.584,-0.749 -2.266,-1.98 -2.266,-3.212 0,-2.267 1.914,-3.807 4.422,-3.807 2.772,0 4.159,1.738 4.159,3.521 0,1.21 -0.594,2.508 -2.354,3.344 l 0,0.066 c 1.782,0.704 2.882,1.958 2.882,3.697 0,2.486 -2.134,4.159 -4.863,4.159 -2.992,-0.001 -4.796,-1.783 -4.796,-3.873 z m 7.701,-0.088 c 0,-1.738 -1.21,-2.574 -3.146,-3.124 -1.672,0.484 -2.574,1.584 -2.574,2.948 -0.066,1.452 1.034,2.729 2.86,2.729 1.738,-0.001 2.86,-1.079 2.86,-2.553 z m -5.325,-7.151 c 0,1.43 1.078,2.2 2.729,2.641 1.232,-0.418 2.178,-1.298 2.178,-2.597 0,-1.144 -0.682,-2.332 -2.42,-2.332 -1.606,0 -2.487,1.056 -2.487,2.288 z"/><path id="path292" d="m 56.976,134.67 c 0,-1.364 -0.044,-2.464 -0.088,-3.477 l 1.738,0 0.088,1.826 0.044,0 c 0.792,-1.298 2.046,-2.068 3.784,-2.068 2.575,0 4.511,2.178 4.511,5.413 0,3.829 -2.332,5.721 -4.841,5.721 -1.408,0 -2.64,-0.616 -3.278,-1.672 l -0.044,0 0,5.787 -1.914,0 0,-11.53 z m 1.914,2.839 c 0,0.286 0.044,0.55 0.088,0.792 0.352,1.342 1.519,2.266 2.904,2.266 2.046,0 3.235,-1.672 3.235,-4.114 0,-2.134 -1.123,-3.961 -3.168,-3.961 -1.32,0 -2.553,0.946 -2.927,2.398 -0.066,0.242 -0.132,0.528 -0.132,0.792 l 0,1.827 z"/><path id="path294" d="m 68.503,140.699 c 0,-0.814 0.55,-1.386 1.32,-1.386 0.77,0 1.298,0.572 1.298,1.386 0,0.792 -0.506,1.386 -1.32,1.386 -0.769,0 -1.298,-0.594 -1.298,-1.386 z"/><path id="path296" d="m 73.52,134.076 c 0,-1.1 -0.022,-2.002 -0.088,-2.882 l 1.694,0 0.088,1.716 0.066,0 c 0.594,-1.012 1.584,-1.958 3.344,-1.958 1.452,0 2.552,0.88 3.015,2.134 l 0.044,0 c 0.33,-0.594 0.748,-1.056 1.188,-1.386 0.638,-0.484 1.342,-0.748 2.354,-0.748 1.408,0 3.499,0.924 3.499,4.621 l 0,6.271 -1.893,0 0,-6.029 c 0,-2.046 -0.748,-3.278 -2.31,-3.278 -1.1,0 -1.958,0.814 -2.289,1.76 -0.088,0.264 -0.154,0.616 -0.154,0.968 l 0,6.579 -1.892,0 0,-6.381 c 0,-1.694 -0.749,-2.926 -2.223,-2.926 -1.21,0 -2.09,0.968 -2.398,1.936 -0.11,0.286 -0.154,0.616 -0.154,0.946 l 0,6.425 -1.891,0 0,-7.768 z"/><path id="path298" d="m 91.405,140.699 c 0,-0.814 0.55,-1.386 1.32,-1.386 0.77,0 1.298,0.572 1.298,1.386 0,0.792 -0.506,1.386 -1.32,1.386 -0.769,0 -1.298,-0.594 -1.298,-1.386 z"/><path id="path300" d="m 100.997,141.843 c 0.044,-0.726 0.088,-1.804 0.088,-2.75 l 0,-12.872 1.914,0 0,6.689 0.044,0 c 0.682,-1.188 1.915,-1.958 3.63,-1.958 2.641,0 4.511,2.2 4.489,5.435 0,3.807 -2.398,5.699 -4.774,5.699 -1.541,0 -2.772,-0.594 -3.564,-2.002 l -0.066,0 -0.088,1.76 -1.673,0 z m 2.002,-4.268 c 0,0.242 0.044,0.484 0.088,0.704 0.374,1.342 1.496,2.266 2.904,2.266 2.024,0 3.235,-1.65 3.235,-4.092 0,-2.134 -1.1,-3.961 -3.168,-3.961 -1.32,0 -2.553,0.902 -2.949,2.376 -0.044,0.22 -0.11,0.484 -0.11,0.792 l 0,1.915 z"/><path id="path302" d="m 122.514,138.939 c 0,1.1 0.022,2.068 0.088,2.904 l -1.716,0 -0.11,-1.738 -0.044,0 c -0.506,0.858 -1.628,1.98 -3.521,1.98 -1.672,0 -3.675,-0.924 -3.675,-4.665 l 0,-6.227 1.937,0 0,5.896 c 0,2.024 0.616,3.389 2.376,3.389 1.298,0 2.2,-0.902 2.552,-1.76 0.11,-0.286 0.176,-0.638 0.176,-0.99 l 0,-6.535 1.937,0 0,7.746 z"/><path id="path304" d="m 128.057,128.135 0,3.059 2.772,0 0,1.474 -2.772,0 0,5.743 c 0,1.32 0.374,2.068 1.452,2.068 0.506,0 0.88,-0.066 1.122,-0.132 l 0.088,1.452 c -0.374,0.154 -0.968,0.264 -1.716,0.264 -0.902,0 -1.628,-0.286 -2.09,-0.814 -0.55,-0.572 -0.748,-1.518 -0.748,-2.772 l 0,-5.809 -1.65,0 0,-1.474 1.65,0 0,-2.553 1.892,-0.506 z"/><path id="path306" d="m 147.307,136.431 c 0,3.938 -2.729,5.655 -5.303,5.655 -2.882,0 -5.105,-2.112 -5.105,-5.479 0,-3.564 2.333,-5.655 5.281,-5.655 3.059,0 5.127,2.222 5.127,5.479 z m -8.449,0.11 c 0,2.333 1.342,4.093 3.234,4.093 1.848,0 3.234,-1.738 3.234,-4.137 0,-1.804 -0.902,-4.093 -3.19,-4.093 -2.288,0 -3.278,2.112 -3.278,4.137 z"/><path id="path308" d="m 149.946,141.843 0,-9.175 -1.496,0 0,-1.474 1.496,0 0,-0.506 c 0,-1.496 0.33,-2.86 1.232,-3.718 0.726,-0.704 1.694,-0.99 2.596,-0.99 0.682,0 1.276,0.154 1.65,0.308 l -0.264,1.496 c -0.286,-0.132 -0.682,-0.242 -1.232,-0.242 -1.65,0 -2.068,1.453 -2.068,3.081 l 0,0.572 2.574,0 0,1.474 -2.574,0 0,9.175 -1.914,0 z"/><path id="path310" d="m 168.426,141.447 c -0.506,0.264 -1.628,0.616 -3.059,0.616 -3.212,0 -5.303,-2.179 -5.303,-5.435 0,-3.278 2.245,-5.655 5.721,-5.655 1.144,0 2.156,0.286 2.684,0.55 l -0.44,1.496 c -0.462,-0.264 -1.188,-0.506 -2.244,-0.506 -2.442,0 -3.763,1.804 -3.763,4.026 0,2.464 1.584,3.982 3.696,3.982 1.101,0 1.827,-0.286 2.376,-0.528 l 0.332,1.454 z"/><path id="path312" d="m 180.197,136.431 c 0,3.938 -2.729,5.655 -5.303,5.655 -2.882,0 -5.105,-2.112 -5.105,-5.479 0,-3.564 2.333,-5.655 5.281,-5.655 3.058,0 5.127,2.222 5.127,5.479 z m -8.449,0.11 c 0,2.333 1.342,4.093 3.234,4.093 1.848,0 3.234,-1.738 3.234,-4.137 0,-1.804 -0.902,-4.093 -3.19,-4.093 -2.288,0 -3.278,2.112 -3.278,4.137 z"/><path id="path314" d="m 191.549,138.939 c 0,1.1 0.022,2.068 0.088,2.904 l -1.716,0 -0.11,-1.738 -0.044,0 c -0.506,0.858 -1.628,1.98 -3.521,1.98 -1.672,0 -3.675,-0.924 -3.675,-4.665 l 0,-6.227 1.937,0 0,5.896 c 0,2.024 0.616,3.389 2.376,3.389 1.298,0 2.2,-0.902 2.552,-1.76 0.11,-0.286 0.176,-0.638 0.176,-0.99 l 0,-6.535 1.937,0 0,7.746 z"/><path id="path316" d="m 194.759,134.516 c 0,-1.254 -0.022,-2.332 -0.088,-3.322 l 1.694,0 0.066,2.09 0.088,0 c 0.484,-1.43 1.65,-2.333 2.948,-2.333 0.22,0 0.374,0.022 0.55,0.066 l 0,1.826 c -0.198,-0.044 -0.396,-0.066 -0.66,-0.066 -1.364,0 -2.333,1.034 -2.597,2.486 -0.044,0.264 -0.088,0.572 -0.088,0.902 l 0,5.677 -1.914,0 0,-7.326 z"/><path id="path318" d="m 201.689,139.863 c 0.572,0.374 1.584,0.771 2.552,0.771 1.408,0 2.068,-0.704 2.068,-1.584 0,-0.924 -0.55,-1.43 -1.98,-1.958 -1.914,-0.682 -2.816,-1.738 -2.816,-3.014 0,-1.716 1.386,-3.125 3.675,-3.125 1.078,0 2.024,0.308 2.618,0.66 l -0.484,1.408 c -0.418,-0.264 -1.188,-0.616 -2.178,-0.616 -1.145,0 -1.782,0.66 -1.782,1.452 0,0.88 0.638,1.276 2.024,1.804 1.849,0.704 2.794,1.628 2.794,3.213 0,1.87 -1.452,3.19 -3.982,3.19 -1.166,0 -2.244,-0.286 -2.993,-0.726 l 0.484,-1.475 z"/><path id="path320" d="m 211.744,136.871 c 0.044,2.618 1.716,3.696 3.652,3.696 1.386,0 2.222,-0.242 2.948,-0.55 l 0.33,1.386 c -0.682,0.308 -1.848,0.66 -3.542,0.66 -3.278,0 -5.237,-2.157 -5.237,-5.369 0,-3.212 1.893,-5.743 4.995,-5.743 3.476,0 4.4,3.059 4.4,5.017 0,0.396 -0.044,0.704 -0.066,0.902 l -7.48,0 z m 5.676,-1.387 c 0.022,-1.232 -0.506,-3.146 -2.685,-3.146 -1.958,0 -2.816,1.804 -2.97,3.146 l 5.655,0 z"/><path id="path322" d="m 41.73,157.594 2.332,6.293 c 0.242,0.704 0.506,1.54 0.682,2.178 l 0.044,0 c 0.198,-0.638 0.418,-1.452 0.682,-2.222 l 2.112,-6.249 2.046,0 -2.904,7.591 c -1.386,3.653 -2.333,5.523 -3.653,6.667 -0.946,0.836 -1.892,1.167 -2.376,1.254 l -0.484,-1.628 c 0.484,-0.154 1.122,-0.462 1.694,-0.946 0.528,-0.418 1.188,-1.166 1.628,-2.156 0.088,-0.198 0.154,-0.352 0.154,-0.462 0,-0.11 -0.044,-0.264 -0.132,-0.506 l -3.938,-9.813 2.113,0 z"/><path id="path324" d="m 60.806,162.831 c 0,3.938 -2.729,5.655 -5.303,5.655 -2.882,0 -5.105,-2.112 -5.105,-5.479 0,-3.564 2.333,-5.655 5.281,-5.655 3.058,0 5.127,2.222 5.127,5.479 z m -8.45,0.11 c 0,2.333 1.342,4.093 3.234,4.093 1.848,0 3.234,-1.738 3.234,-4.137 0,-1.804 -0.902,-4.093 -3.19,-4.093 -2.287,0 -3.278,2.113 -3.278,4.137 z"/><path id="path326" d="m 72.157,165.339 c 0,1.1 0.022,2.068 0.088,2.904 l -1.716,0 -0.11,-1.738 -0.044,0 c -0.506,0.858 -1.628,1.98 -3.521,1.98 -1.672,0 -3.675,-0.924 -3.675,-4.665 l 0,-6.227 1.937,0 0,5.896 c 0,2.024 0.616,3.389 2.376,3.389 1.298,0 2.2,-0.902 2.552,-1.76 0.11,-0.286 0.176,-0.638 0.176,-0.99 l 0,-6.535 1.937,0 0,7.746 z"/><path id="path328" d="m 89.229,152.622 0,12.872 c 0,0.946 0.022,2.024 0.088,2.75 l -1.738,0 -0.088,-1.848 -0.044,0 c -0.594,1.188 -1.893,2.09 -3.631,2.09 -2.574,0 -4.555,-2.179 -4.555,-5.413 -0.022,-3.542 2.179,-5.721 4.775,-5.721 1.628,0 2.729,0.77 3.212,1.628 l 0.044,0 0,-6.359 1.937,0 z m -1.937,9.307 c 0,-0.242 -0.022,-0.572 -0.088,-0.814 -0.286,-1.232 -1.342,-2.245 -2.794,-2.245 -2.002,0 -3.19,1.76 -3.19,4.115 0,2.156 1.056,3.938 3.146,3.938 1.298,0 2.486,-0.858 2.838,-2.31 0.066,-0.264 0.088,-0.528 0.088,-0.836 l 0,-1.848 z"/><path id="path330" d="m 102.077,162.831 c 0,3.938 -2.729,5.655 -5.303,5.655 -2.882,0 -5.105,-2.112 -5.105,-5.479 0,-3.564 2.333,-5.655 5.281,-5.655 3.059,0 5.127,2.222 5.127,5.479 z m -8.449,0.11 c 0,2.333 1.342,4.093 3.234,4.093 1.848,0 3.234,-1.738 3.234,-4.137 0,-1.804 -0.902,-4.093 -3.19,-4.093 -2.288,0 -3.278,2.113 -3.278,4.137 z"/><path id="path332" d="m 104.518,160.477 c 0,-1.1 -0.022,-2.002 -0.088,-2.882 l 1.716,0 0.11,1.76 0.044,0 c 0.528,-1.012 1.76,-2.002 3.521,-2.002 1.474,0 3.762,0.88 3.762,4.533 l 0,6.359 -1.936,0 0,-6.139 c 0,-1.716 -0.638,-3.146 -2.464,-3.146 -1.276,0 -2.267,0.902 -2.597,1.98 -0.088,0.242 -0.132,0.572 -0.132,0.902 l 0,6.403 -1.936,0 0,-7.768 z"/><path id="path334" d="m 118.444,153.171 c -0.506,1.848 -1.453,4.203 -2.068,5.215 l -1.232,0.154 c 0.484,-1.298 1.056,-3.586 1.298,-5.17 l 2.002,-0.199 z"/><path id="path336" d="m 122.646,154.536 0,3.059 2.772,0 0,1.474 -2.772,0 0,5.743 c 0,1.32 0.374,2.068 1.452,2.068 0.506,0 0.88,-0.066 1.123,-0.132 l 0.088,1.452 c -0.374,0.154 -0.968,0.264 -1.716,0.264 -0.902,0 -1.628,-0.286 -2.09,-0.814 -0.55,-0.572 -0.748,-1.518 -0.748,-2.772 l 0,-5.809 -1.65,0 0,-1.474 1.65,0 0,-2.553 1.891,-0.506 z"/><path id="path338" d="m 132.457,168.244 0,-9.175 -1.496,0 0,-1.474 1.496,0 0,-0.572 c 0,-2.816 1.65,-4.643 4.643,-4.643 0.99,0 2.156,0.308 2.707,0.704 l -0.55,1.474 c -0.462,-0.33 -1.298,-0.616 -2.244,-0.616 -2.046,0 -2.64,1.43 -2.64,3.125 l 0,0.528 6.183,0 0,10.649 -1.914,0 0,-9.175 -4.269,0 0,9.175 -1.916,0 z"/><path id="path340" d="m 143.765,160.477 c 0,-1.1 -0.022,-2.002 -0.088,-2.882 l 1.716,0 0.11,1.76 0.044,0 c 0.528,-1.012 1.76,-2.002 3.521,-2.002 1.474,0 3.762,0.88 3.762,4.533 l 0,6.359 -1.936,0 0,-6.139 c 0,-1.716 -0.638,-3.146 -2.464,-3.146 -1.276,0 -2.267,0.902 -2.597,1.98 -0.088,0.242 -0.132,0.572 -0.132,0.902 l 0,6.403 -1.936,0 0,-7.768 z"/><path id="path342" d="m 158.131,154.602 c 0.022,0.66 -0.462,1.188 -1.232,1.188 -0.682,0 -1.166,-0.528 -1.166,-1.188 0,-0.682 0.506,-1.21 1.21,-1.21 0.726,0 1.188,0.527 1.188,1.21 z m -2.156,13.642 0,-10.649 1.936,0 0,10.649 -1.936,0 z"/><path id="path344" d="m 160.859,166.263 c 0.572,0.374 1.584,0.771 2.552,0.771 1.408,0 2.068,-0.704 2.068,-1.584 0,-0.924 -0.55,-1.43 -1.98,-1.958 -1.914,-0.682 -2.816,-1.738 -2.816,-3.014 0,-1.716 1.386,-3.125 3.675,-3.125 1.078,0 2.024,0.308 2.618,0.66 l -0.484,1.408 c -0.418,-0.264 -1.188,-0.616 -2.178,-0.616 -1.145,0 -1.782,0.66 -1.782,1.452 0,0.88 0.638,1.276 2.024,1.804 1.849,0.704 2.794,1.628 2.794,3.213 0,1.87 -1.452,3.19 -3.982,3.19 -1.166,0 -2.244,-0.286 -2.993,-0.726 l 0.484,-1.475 z"/><path id="path346" d="m 169.835,152.622 1.936,0 0,6.645 0.044,0 c 0.308,-0.55 0.792,-1.034 1.386,-1.364 0.572,-0.33 1.254,-0.55 1.98,-0.55 1.43,0 3.718,0.88 3.718,4.555 l 0,6.337 -1.936,0 0,-6.117 c 0,-1.716 -0.638,-3.168 -2.464,-3.168 -1.254,0 -2.245,0.88 -2.597,1.936 -0.11,0.264 -0.132,0.55 -0.132,0.924 l 0,6.425 -1.936,0 0,-15.623 z"/><path id="path348" d="m 187.479,157.594 1.408,5.413 c 0.308,1.188 0.594,2.289 0.792,3.389 l 0.066,0 c 0.242,-1.078 0.594,-2.223 0.946,-3.367 l 1.738,-5.435 1.628,0 1.65,5.325 c 0.396,1.276 0.704,2.398 0.946,3.477 l 0.066,0 c 0.176,-1.078 0.462,-2.201 0.814,-3.455 l 1.519,-5.347 1.914,0 -3.433,10.649 -1.76,0 -1.628,-5.083 c -0.374,-1.188 -0.682,-2.245 -0.946,-3.499 l -0.044,0 c -0.264,1.276 -0.594,2.376 -0.968,3.521 l -1.716,5.061 -1.76,0 -3.212,-10.649 1.98,0 z"/><path id="path350" d="m 212.318,162.831 c 0,3.938 -2.729,5.655 -5.303,5.655 -2.882,0 -5.105,-2.112 -5.105,-5.479 0,-3.564 2.333,-5.655 5.281,-5.655 3.058,0 5.127,2.222 5.127,5.479 z m -8.449,0.11 c 0,2.333 1.342,4.093 3.234,4.093 1.848,0 3.234,-1.738 3.234,-4.137 0,-1.804 -0.902,-4.093 -3.19,-4.093 -2.288,0 -3.278,2.113 -3.278,4.137 z"/><path id="path352" d="m 214.758,160.917 c 0,-1.254 -0.022,-2.332 -0.088,-3.322 l 1.694,0 0.066,2.09 0.088,0 c 0.484,-1.43 1.65,-2.333 2.948,-2.333 0.22,0 0.374,0.022 0.55,0.066 l 0,1.826 c -0.198,-0.044 -0.396,-0.066 -0.66,-0.066 -1.364,0 -2.333,1.034 -2.597,2.486 -0.044,0.264 -0.088,0.572 -0.088,0.902 l 0,5.677 -1.914,0 0,-7.326 z"/><path id="path354" d="m 223.954,162.479 0.044,0 c 0.264,-0.374 0.638,-0.836 0.946,-1.21 l 3.125,-3.674 2.332,0 -4.114,4.378 4.687,6.271 -2.354,0 -3.674,-5.104 -0.99,1.1 0,4.004 -1.914,0 0,-15.622 1.914,0 0,9.857 z"/><path id="path356" d="m 49.937,191.739 c 0,1.1 0.022,2.068 0.088,2.904 l -1.716,0 -0.11,-1.738 -0.044,0 c -0.506,0.858 -1.628,1.98 -3.521,1.98 -1.672,0 -3.675,-0.924 -3.675,-4.665 l 0,-6.227 1.937,0 0,5.897 c 0,2.024 0.616,3.388 2.376,3.388 1.298,0 2.2,-0.902 2.552,-1.76 0.11,-0.286 0.176,-0.638 0.176,-0.99 l 0,-6.535 1.937,0 0,7.746 z"/><path id="path358" d="m 53.148,186.876 c 0,-1.1 -0.022,-2.002 -0.088,-2.882 l 1.716,0 0.11,1.76 0.044,0 c 0.528,-1.012 1.76,-2.002 3.521,-2.002 1.474,0 3.762,0.88 3.762,4.533 l 0,6.359 -1.936,0 0,-6.139 c 0,-1.716 -0.638,-3.146 -2.464,-3.146 -1.276,0 -2.267,0.902 -2.597,1.98 -0.088,0.242 -0.132,0.572 -0.132,0.902 l 0,6.403 -1.936,0 0,-7.768 z"/><path id="path360" d="m 67.602,180.936 0,3.059 2.772,0 0,1.474 -2.772,0 0,5.743 c 0,1.32 0.374,2.068 1.452,2.068 0.506,0 0.88,-0.066 1.123,-0.132 l 0.088,1.452 c -0.374,0.154 -0.968,0.264 -1.716,0.264 -0.902,0 -1.628,-0.286 -2.09,-0.814 -0.55,-0.572 -0.748,-1.518 -0.748,-2.772 l 0,-5.809 -1.65,0 0,-1.474 1.65,0 0,-2.552 1.891,-0.507 z"/><path id="path362" d="m 74.708,181.001 c 0.022,0.66 -0.462,1.188 -1.232,1.188 -0.682,0 -1.166,-0.528 -1.166,-1.188 0,-0.682 0.506,-1.21 1.21,-1.21 0.726,0.001 1.188,0.528 1.188,1.21 z m -2.156,13.643 0,-10.649 1.936,0 0,10.649 -1.936,0 z"/><path id="path364" d="m 77.7,179.021 1.936,0 0,15.622 -1.936,0 0,-15.622 z"/><path id="path366" d="m 88.062,193.279 c 0.418,0.044 0.902,0 1.562,-0.066 1.123,-0.154 2.179,-0.616 2.993,-1.386 0.946,-0.858 1.628,-2.112 1.892,-3.807 l -0.066,0 c -0.792,0.968 -1.936,1.541 -3.366,1.541 -2.575,0 -4.225,-1.937 -4.225,-4.379 0,-2.707 1.958,-5.083 4.884,-5.083 2.927,0 4.731,2.376 4.731,6.029 0,3.146 -1.056,5.347 -2.464,6.711 -1.1,1.078 -2.619,1.738 -4.159,1.914 -0.704,0.11 -1.32,0.132 -1.782,0.11 l 0,-1.584 z m 0.704,-8.229 c 0,1.782 1.078,3.036 2.75,3.036 1.298,0 2.31,-0.638 2.816,-1.496 0.11,-0.176 0.176,-0.396 0.176,-0.704 0,-2.442 -0.902,-4.312 -2.926,-4.312 -1.65,0 -2.816,1.452 -2.816,3.476 z"/><path id="path368" d="m 98.379,193.5 c 0,-0.814 0.55,-1.386 1.32,-1.386 0.77,0 1.298,0.572 1.298,1.386 0,0.792 -0.506,1.386 -1.32,1.386 -0.77,0 -1.298,-0.594 -1.298,-1.386 z"/><path id="path370" d="m 107.86,192.311 c 0.858,0.528 2.112,0.968 3.433,0.968 1.958,0 3.103,-1.034 3.103,-2.53 0,-1.386 -0.792,-2.178 -2.794,-2.948 -2.42,-0.858 -3.917,-2.112 -3.917,-4.203 0,-2.311 1.914,-4.027 4.796,-4.027 1.518,0 2.619,0.352 3.278,0.726 l -0.528,1.562 c -0.484,-0.264 -1.474,-0.704 -2.816,-0.704 -2.024,0 -2.794,1.21 -2.794,2.222 0,1.386 0.902,2.068 2.948,2.86 2.508,0.968 3.785,2.178 3.785,4.357 0,2.288 -1.694,4.269 -5.193,4.269 -1.43,0 -2.992,-0.418 -3.784,-0.946 l 0.483,-1.606 z"/><path id="path372" d="m 118.904,179.021 1.936,0 0,6.645 0.044,0 c 0.308,-0.55 0.792,-1.034 1.386,-1.364 0.572,-0.33 1.254,-0.55 1.98,-0.55 1.43,0 3.718,0.88 3.718,4.555 l 0,6.337 -1.936,0 0,-6.117 c 0,-1.716 -0.638,-3.168 -2.464,-3.168 -1.254,0 -2.245,0.88 -2.597,1.936 -0.11,0.264 -0.132,0.55 -0.132,0.924 l 0,6.425 -1.936,0 0,-15.623 z"/><path id="path374" d="m 137.011,194.644 -0.154,-1.342 -0.066,0 c -0.594,0.836 -1.738,1.584 -3.257,1.584 -2.156,0 -3.256,-1.519 -3.256,-3.059 0,-2.574 2.289,-3.982 6.403,-3.96 l 0,-0.22 c 0,-0.88 -0.242,-2.464 -2.42,-2.464 -0.99,0 -2.024,0.308 -2.772,0.792 l -0.44,-1.276 c 0.88,-0.572 2.156,-0.946 3.499,-0.946 3.257,0 4.049,2.222 4.049,4.356 l 0,3.983 c 0,0.924 0.044,1.826 0.176,2.552 l -1.762,0 z m -0.286,-5.435 c -2.112,-0.044 -4.51,0.33 -4.51,2.398 0,1.254 0.836,1.849 1.826,1.849 1.386,0 2.266,-0.88 2.574,-1.782 0.066,-0.198 0.11,-0.418 0.11,-0.616 l 0,-1.849 z"/><path id="path376" d="m 141.718,179.021 1.936,0 0,15.622 -1.936,0 0,-15.622 z"/><path id="path378" d="m 146.91,179.021 1.936,0 0,15.622 -1.936,0 0,-15.622 z"/><path id="path380" d="m 157.536,183.994 1.408,5.413 c 0.308,1.188 0.594,2.289 0.792,3.389 l 0.066,0 c 0.242,-1.078 0.594,-2.223 0.946,-3.367 l 1.738,-5.435 1.628,0 1.65,5.325 c 0.396,1.276 0.704,2.398 0.946,3.477 l 0.066,0 c 0.176,-1.078 0.462,-2.2 0.814,-3.455 l 1.519,-5.347 1.914,0 -3.433,10.649 -1.76,0 -1.628,-5.083 c -0.374,-1.188 -0.682,-2.245 -0.946,-3.499 l -0.044,0 c -0.264,1.276 -0.594,2.376 -0.968,3.521 l -1.716,5.061 -1.76,0 -3.212,-10.649 1.98,0 z"/><path id="path382" d="m 173.816,189.671 c 0.044,2.618 1.716,3.696 3.652,3.696 1.386,0 2.222,-0.242 2.948,-0.55 l 0.33,1.386 c -0.682,0.308 -1.848,0.66 -3.542,0.66 -3.278,0 -5.237,-2.156 -5.237,-5.369 0,-3.212 1.893,-5.743 4.995,-5.743 3.476,0 4.4,3.059 4.4,5.017 0,0.396 -0.044,0.704 -0.066,0.902 l -7.48,0 z m 5.677,-1.386 c 0.022,-1.232 -0.506,-3.146 -2.685,-3.146 -1.958,0 -2.816,1.804 -2.97,3.146 l 5.655,0 z"/><path id="path384" d="m 197.599,183.994 c -0.044,0.77 -0.088,1.628 -0.088,2.926 l 0,6.183 c 0,2.442 -0.484,3.938 -1.518,4.862 -1.034,0.968 -2.53,1.276 -3.873,1.276 -1.276,0 -2.685,-0.308 -3.542,-0.88 l 0.484,-1.475 c 0.704,0.44 1.804,0.836 3.125,0.836 1.98,0 3.433,-1.034 3.433,-3.719 l 0,-1.188 -0.044,0 c -0.594,0.99 -1.738,1.782 -3.389,1.782 -2.64,0 -4.533,-2.245 -4.533,-5.193 0,-3.608 2.354,-5.655 4.797,-5.655 1.848,0 2.86,0.968 3.322,1.848 l 0.044,0 0.088,-1.606 1.694,0 z m -2.003,4.203 c 0,-0.33 -0.022,-0.616 -0.11,-0.88 -0.352,-1.122 -1.298,-2.046 -2.707,-2.046 -1.848,0 -3.168,1.562 -3.168,4.027 0,2.09 1.056,3.829 3.146,3.829 1.188,0 2.266,-0.748 2.685,-1.98 0.11,-0.33 0.154,-0.704 0.154,-1.034 l 0,-1.916 z"/><path id="path386" d="m 210.358,189.231 c 0,3.938 -2.729,5.655 -5.303,5.655 -2.882,0 -5.105,-2.112 -5.105,-5.479 0,-3.564 2.333,-5.655 5.281,-5.655 3.059,0 5.127,2.222 5.127,5.479 z m -8.449,0.11 c 0,2.333 1.342,4.093 3.234,4.093 1.848,0 3.234,-1.738 3.234,-4.137 0,-1.804 -0.902,-4.093 -3.19,-4.093 -2.288,0 -3.278,2.112 -3.278,4.137 z"/><path id="path388" d="m 43.358,207.335 0,3.059 2.772,0 0,1.474 -2.772,0 0,5.743 c 0,1.32 0.374,2.068 1.452,2.068 0.506,0 0.88,-0.066 1.122,-0.132 L 46.021,221 c -0.374,0.154 -0.968,0.264 -1.716,0.264 -0.902,0 -1.628,-0.286 -2.09,-0.814 -0.55,-0.572 -0.748,-1.518 -0.748,-2.772 l 0,-5.809 -1.65,0 0,-1.474 1.65,0 0,-2.553 1.891,-0.507 z"/><path id="path390" d="m 57.813,215.631 c 0,3.938 -2.729,5.655 -5.303,5.655 -2.882,0 -5.105,-2.112 -5.105,-5.479 0,-3.564 2.333,-5.655 5.281,-5.655 3.059,0 5.127,2.222 5.127,5.479 z m -8.449,0.11 c 0,2.333 1.342,4.093 3.234,4.093 1.848,0 3.234,-1.738 3.234,-4.137 0,-1.804 -0.902,-4.093 -3.19,-4.093 -2.288,0 -3.278,2.112 -3.278,4.137 z"/><path id="path392" d="m 69.43,210.394 c -0.044,0.77 -0.088,1.628 -0.088,2.926 l 0,6.183 c 0,2.442 -0.484,3.938 -1.518,4.862 -1.034,0.968 -2.53,1.276 -3.873,1.276 -1.276,0 -2.685,-0.308 -3.542,-0.88 l 0.484,-1.475 c 0.704,0.44 1.804,0.836 3.125,0.836 1.98,0 3.433,-1.034 3.433,-3.719 l 0,-1.188 -0.044,0 c -0.594,0.99 -1.738,1.782 -3.389,1.782 -2.64,0 -4.533,-2.244 -4.533,-5.193 0,-3.608 2.354,-5.655 4.797,-5.655 1.848,0 2.86,0.968 3.322,1.848 l 0.044,0 0.088,-1.606 1.694,0 z m -2.003,4.203 c 0,-0.33 -0.022,-0.616 -0.11,-0.88 -0.352,-1.122 -1.298,-2.046 -2.707,-2.046 -1.848,0 -3.168,1.562 -3.168,4.027 0,2.09 1.056,3.829 3.146,3.829 1.188,0 2.266,-0.748 2.685,-1.98 0.11,-0.33 0.154,-0.704 0.154,-1.034 l 0,-1.916 z"/><path id="path394" d="m 73.63,216.071 c 0.044,2.618 1.716,3.696 3.652,3.696 1.386,0 2.222,-0.242 2.948,-0.55 l 0.33,1.386 c -0.682,0.308 -1.848,0.66 -3.542,0.66 -3.278,0 -5.237,-2.157 -5.237,-5.369 0,-3.212 1.893,-5.743 4.995,-5.743 3.476,0 4.4,3.059 4.4,5.017 0,0.396 -0.044,0.704 -0.066,0.902 l -7.48,0 z m 5.677,-1.386 c 0.022,-1.232 -0.506,-3.146 -2.685,-3.146 -1.958,0 -2.816,1.804 -2.97,3.146 l 5.655,0 z"/><path id="path396" d="m 85.906,207.335 0,3.059 2.772,0 0,1.474 -2.772,0 0,5.743 c 0,1.32 0.374,2.068 1.452,2.068 0.506,0 0.88,-0.066 1.123,-0.132 L 88.568,221 c -0.374,0.154 -0.968,0.264 -1.716,0.264 -0.902,0 -1.628,-0.286 -2.09,-0.814 -0.55,-0.572 -0.748,-1.518 -0.748,-2.772 l 0,-5.809 -1.65,0 0,-1.474 1.65,0 0,-2.553 1.892,-0.507 z"/><path id="path398" d="m 90.855,205.421 1.936,0 0,6.645 0.044,0 c 0.308,-0.55 0.792,-1.034 1.386,-1.364 0.572,-0.33 1.254,-0.55 1.98,-0.55 1.43,0 3.718,0.88 3.718,4.555 l 0,6.337 -1.936,0 0,-6.117 c 0,-1.716 -0.638,-3.168 -2.464,-3.168 -1.254,0 -2.245,0.88 -2.597,1.936 -0.11,0.264 -0.132,0.55 -0.132,0.924 l 0,6.425 -1.936,0 0,-15.623 z"/><path id="path400" d="m 104.144,216.071 c 0.044,2.618 1.716,3.696 3.652,3.696 1.386,0 2.222,-0.242 2.948,-0.55 l 0.33,1.386 c -0.682,0.308 -1.848,0.66 -3.542,0.66 -3.278,0 -5.237,-2.157 -5.237,-5.369 0,-3.212 1.893,-5.743 4.995,-5.743 3.476,0 4.4,3.059 4.4,5.017 0,0.396 -0.044,0.704 -0.066,0.902 l -7.48,0 z m 5.676,-1.386 c 0.022,-1.232 -0.506,-3.146 -2.685,-3.146 -1.958,0 -2.816,1.804 -2.97,3.146 l 5.655,0 z"/><path id="path402" d="m 114.087,213.716 c 0,-1.254 -0.022,-2.332 -0.088,-3.322 l 1.694,0 0.066,2.09 0.088,0 c 0.484,-1.43 1.65,-2.333 2.948,-2.333 0.22,0 0.374,0.022 0.55,0.066 l 0,1.826 c -0.198,-0.044 -0.396,-0.066 -0.66,-0.066 -1.364,0 -2.333,1.034 -2.597,2.486 -0.044,0.264 -0.088,0.572 -0.088,0.902 l 0,5.677 -1.914,0 0,-7.326 z"/><path id="path404" d="m 131.841,221.043 -0.154,-1.342 -0.066,0 c -0.594,0.836 -1.738,1.584 -3.257,1.584 -2.156,0 -3.256,-1.519 -3.256,-3.059 0,-2.574 2.289,-3.982 6.403,-3.96 l 0,-0.22 c 0,-0.88 -0.242,-2.464 -2.42,-2.464 -0.99,0 -2.024,0.308 -2.772,0.792 l -0.44,-1.276 c 0.88,-0.572 2.157,-0.946 3.499,-0.946 3.257,0 4.049,2.222 4.049,4.356 l 0,3.983 c 0,0.924 0.044,1.826 0.176,2.552 l -1.762,0 z m -0.285,-5.434 c -2.112,-0.044 -4.511,0.33 -4.511,2.398 0,1.254 0.836,1.849 1.826,1.849 1.386,0 2.266,-0.88 2.574,-1.782 0.066,-0.198 0.11,-0.418 0.11,-0.616 l 0,-1.849 z"/><path id="path406" d="m 138.793,207.335 0,3.059 2.772,0 0,1.474 -2.772,0 0,5.743 c 0,1.32 0.374,2.068 1.452,2.068 0.506,0 0.88,-0.066 1.122,-0.132 l 0.088,1.452 c -0.374,0.154 -0.968,0.264 -1.716,0.264 -0.902,0 -1.628,-0.286 -2.09,-0.814 -0.55,-0.572 -0.748,-1.518 -0.748,-2.772 l 0,-5.809 -1.65,0 0,-1.474 1.65,0 0,-2.553 1.892,-0.506 z"/><path id="path408" d="m 148.913,219.679 c 0.418,0.044 0.902,0 1.562,-0.066 1.123,-0.154 2.179,-0.616 2.993,-1.386 0.946,-0.858 1.628,-2.112 1.892,-3.807 l -0.066,0 c -0.792,0.968 -1.936,1.541 -3.366,1.541 -2.575,0 -4.225,-1.937 -4.225,-4.379 0,-2.707 1.958,-5.083 4.884,-5.083 2.927,0 4.731,2.376 4.731,6.029 0,3.146 -1.056,5.347 -2.464,6.711 -1.1,1.078 -2.619,1.738 -4.159,1.914 -0.704,0.11 -1.32,0.132 -1.782,0.11 l 0,-1.584 z m 0.704,-8.229 c 0,1.782 1.078,3.036 2.75,3.036 1.298,0 2.31,-0.638 2.816,-1.496 0.11,-0.176 0.176,-0.396 0.176,-0.704 0,-2.442 -0.902,-4.312 -2.926,-4.312 -1.65,0 -2.816,1.452 -2.816,3.476 z"/><path id="path410" d="m 159.23,219.899 c 0,-0.814 0.55,-1.386 1.32,-1.386 0.77,0 1.298,0.572 1.298,1.386 0,0.792 -0.506,1.386 -1.32,1.386 -0.77,0.001 -1.298,-0.594 -1.298,-1.386 z"/><path id="path412" d="m 164.092,218.821 c 0.55,0.352 1.826,0.902 3.168,0.902 2.486,0 3.256,-1.584 3.234,-2.772 -0.022,-2.002 -1.826,-2.86 -3.696,-2.86 l -1.078,0 0,-1.452 1.078,0 c 1.408,0 3.19,-0.726 3.19,-2.42 0,-1.144 -0.726,-2.156 -2.508,-2.156 -1.145,0 -2.245,0.506 -2.86,0.946 l -0.506,-1.408 c 0.748,-0.55 2.2,-1.1 3.741,-1.1 2.816,0 4.092,1.672 4.092,3.41 0,1.475 -0.88,2.729 -2.64,3.367 l 0,0.044 c 1.76,0.352 3.19,1.672 3.19,3.674 0,2.289 -1.782,4.291 -5.215,4.291 -1.606,0 -3.014,-0.506 -3.718,-0.968 l 0.528,-1.498 z"/><path id="path414" d="m 184.421,213.738 c 0,4.863 -1.804,7.547 -4.973,7.547 -2.794,0 -4.687,-2.619 -4.731,-7.349 0,-4.797 2.068,-7.437 4.973,-7.437 3.015,0.001 4.731,2.685 4.731,7.239 z m -7.767,0.22 c 0,3.718 1.144,5.831 2.904,5.831 1.98,0 2.926,-2.31 2.926,-5.962 0,-3.521 -0.902,-5.831 -2.904,-5.831 -1.694,0 -2.926,2.068 -2.926,5.962 z"/><path id="path416" d="m 188.313,216.841 -0.044,-0.572 c -0.132,-1.188 0.264,-2.486 1.364,-3.806 0.99,-1.167 1.54,-2.024 1.54,-3.015 0,-1.122 -0.704,-1.87 -2.09,-1.892 -0.792,0 -1.672,0.264 -2.222,0.682 l -0.528,-1.386 c 0.726,-0.528 1.98,-0.88 3.146,-0.88 2.53,0 3.675,1.562 3.675,3.234 0,1.497 -0.836,2.575 -1.893,3.829 -0.968,1.144 -1.32,2.112 -1.254,3.234 l 0.022,0.572 -1.716,0 z m -0.484,3.08 c 0,-0.814 0.55,-1.386 1.32,-1.386 0.77,0 1.298,0.572 1.298,1.386 0,0.77 -0.506,1.364 -1.32,1.364 -0.77,0.001 -1.298,-0.594 -1.298,-1.364 z"/><path id="path418" d="m 43.006,232.613 0,14.83 -1.914,0 0,-14.83 1.914,0 z"/><path id="path420" d="m 48.617,232.371 c -0.506,1.848 -1.453,4.203 -2.068,5.215 l -1.232,0.154 c 0.484,-1.298 1.056,-3.586 1.298,-5.17 l 2.002,-0.199 z"/><path id="path422" d="m 50.728,231.821 1.936,0 0,15.622 -1.936,0 0,-15.622 z"/><path id="path424" d="m 55.92,231.821 1.936,0 0,15.622 -1.936,0 0,-15.622 z"/><path id="path426" d="m 65.776,240.271 c 0,-1.364 -0.044,-2.464 -0.088,-3.477 l 1.738,0 0.088,1.826 0.044,0 c 0.792,-1.298 2.046,-2.068 3.784,-2.068 2.575,0 4.511,2.178 4.511,5.413 0,3.829 -2.332,5.721 -4.841,5.721 -1.408,0 -2.64,-0.616 -3.278,-1.672 l -0.044,0 0,5.787 -1.914,0 0,-11.53 z m 1.914,2.838 c 0,0.286 0.044,0.55 0.088,0.792 0.352,1.342 1.519,2.266 2.905,2.266 2.046,0 3.234,-1.672 3.234,-4.114 0,-2.134 -1.122,-3.961 -3.168,-3.961 -1.32,0 -2.553,0.946 -2.927,2.398 -0.066,0.242 -0.132,0.528 -0.132,0.792 l 0,1.827 z"/><path id="path428" d="m 80.45,233.801 c 0.022,0.66 -0.462,1.188 -1.232,1.188 -0.682,0 -1.166,-0.528 -1.166,-1.188 0,-0.682 0.506,-1.21 1.21,-1.21 0.725,0 1.188,0.528 1.188,1.21 z m -2.157,13.642 0,-10.649 1.936,0 0,10.649 -1.936,0 z"/><path id="path430" d="m 91.032,247.047 c -0.506,0.264 -1.628,0.616 -3.059,0.616 -3.212,0 -5.303,-2.179 -5.303,-5.435 0,-3.278 2.245,-5.655 5.721,-5.655 1.144,0 2.156,0.286 2.684,0.55 l -0.44,1.496 c -0.462,-0.264 -1.188,-0.506 -2.244,-0.506 -2.442,0 -3.763,1.805 -3.763,4.027 0,2.464 1.584,3.982 3.696,3.982 1.101,0 1.827,-0.286 2.376,-0.528 l 0.332,1.453 z"/><path id="path432" d="m 95.211,241.679 0.044,0 c 0.264,-0.374 0.638,-0.836 0.946,-1.21 l 3.125,-3.674 2.332,0 -4.114,4.378 4.687,6.271 -2.354,0 -3.674,-5.105 -0.99,1.101 0,4.004 -1.914,0 0,-15.622 1.914,0 0,9.857 z"/><path id="path434" d="m 108.983,236.794 2.332,6.293 c 0.242,0.704 0.506,1.54 0.682,2.178 l 0.044,0 c 0.198,-0.638 0.418,-1.452 0.682,-2.223 l 2.112,-6.249 2.046,0 -2.904,7.591 c -1.386,3.653 -2.333,5.523 -3.653,6.667 -0.946,0.837 -1.892,1.167 -2.376,1.255 l -0.484,-1.629 c 0.484,-0.154 1.122,-0.462 1.694,-0.946 0.528,-0.418 1.188,-1.167 1.628,-2.157 0.088,-0.198 0.154,-0.352 0.154,-0.462 0,-0.11 -0.044,-0.264 -0.132,-0.506 l -3.938,-9.813 2.113,0 z"/><path id="path436" d="m 128.058,242.031 c 0,3.938 -2.729,5.655 -5.303,5.655 -2.882,0 -5.105,-2.112 -5.105,-5.479 0,-3.564 2.333,-5.655 5.281,-5.655 3.059,0 5.127,2.222 5.127,5.479 z m -8.449,0.11 c 0,2.333 1.342,4.093 3.234,4.093 1.848,0 3.234,-1.738 3.234,-4.137 0,-1.804 -0.902,-4.093 -3.19,-4.093 -2.288,0 -3.278,2.112 -3.278,4.137 z"/><path id="path438" d="m 139.41,244.539 c 0,1.1 0.022,2.068 0.088,2.904 l -1.716,0 -0.11,-1.738 -0.044,0 c -0.506,0.858 -1.628,1.98 -3.521,1.98 -1.672,0 -3.675,-0.924 -3.675,-4.665 l 0,-6.227 1.937,0 0,5.897 c 0,2.024 0.616,3.388 2.376,3.388 1.298,0 2.2,-0.902 2.552,-1.76 0.11,-0.286 0.176,-0.638 0.176,-0.99 l 0,-6.535 1.937,0 0,7.746 z"/><path id="path440" d="m 156.195,244.539 c 0,1.1 0.022,2.068 0.088,2.904 l -1.716,0 -0.11,-1.738 -0.044,0 c -0.506,0.858 -1.628,1.98 -3.521,1.98 -1.672,0 -3.675,-0.924 -3.675,-4.665 l 0,-6.227 1.937,0 0,5.897 c 0,2.024 0.616,3.388 2.376,3.388 1.298,0 2.2,-0.902 2.552,-1.76 0.11,-0.286 0.176,-0.638 0.176,-0.99 l 0,-6.535 1.937,0 0,7.746 z"/><path id="path442" d="m 159.406,240.271 c 0,-1.364 -0.044,-2.464 -0.088,-3.477 l 1.738,0 0.088,1.826 0.044,0 c 0.792,-1.298 2.046,-2.068 3.784,-2.068 2.575,0 4.511,2.178 4.511,5.413 0,3.829 -2.332,5.721 -4.841,5.721 -1.408,0 -2.64,-0.616 -3.278,-1.672 l -0.044,0 0,5.787 -1.914,0 0,-11.53 z m 1.914,2.838 c 0,0.286 0.044,0.55 0.088,0.792 0.352,1.342 1.519,2.266 2.904,2.266 2.046,0 3.235,-1.672 3.235,-4.114 0,-2.134 -1.123,-3.961 -3.168,-3.961 -1.32,0 -2.553,0.946 -2.927,2.398 -0.066,0.242 -0.132,0.528 -0.132,0.792 l 0,1.827 z"/><path id="path444" d="m 170.934,246.299 c 0,-0.814 0.55,-1.386 1.32,-1.386 0.77,0 1.298,0.572 1.298,1.386 0,0.792 -0.506,1.386 -1.32,1.386 -0.77,0.001 -1.298,-0.594 -1.298,-1.386 z"/><path id="path446" d="m 48.771,266.891 -5.765,0 0,5.347 6.425,0 0,1.606 -8.339,0 0,-14.83 8.009,0 0,1.606 -6.095,0 0,4.687 5.765,0 0,1.584 z"/><path id="path448" d="m 51.85,266.076 c 0,-1.1 -0.022,-2.002 -0.088,-2.882 l 1.694,0 0.088,1.716 0.066,0 c 0.594,-1.012 1.584,-1.958 3.344,-1.958 1.452,0 2.552,0.88 3.015,2.135 l 0.044,0 c 0.33,-0.595 0.748,-1.057 1.188,-1.387 0.638,-0.484 1.342,-0.748 2.354,-0.748 1.408,0 3.499,0.924 3.499,4.621 l 0,6.271 -1.893,0 0,-6.029 c 0,-2.046 -0.748,-3.278 -2.31,-3.278 -1.1,0 -1.958,0.814 -2.289,1.761 -0.088,0.264 -0.154,0.616 -0.154,0.968 l 0,6.579 -1.893,0 0,-6.381 c 0,-1.694 -0.748,-2.927 -2.222,-2.927 -1.21,0 -2.09,0.969 -2.398,1.937 -0.11,0.286 -0.154,0.616 -0.154,0.946 l 0,6.425 -1.891,0 0,-7.769 z"/><path id="path450" d="m 70.198,266.076 c 0,-1.1 -0.022,-2.002 -0.088,-2.882 l 1.694,0 0.088,1.716 0.066,0 c 0.594,-1.012 1.584,-1.958 3.344,-1.958 1.452,0 2.552,0.88 3.015,2.135 l 0.044,0 c 0.33,-0.595 0.748,-1.057 1.188,-1.387 0.638,-0.484 1.342,-0.748 2.354,-0.748 1.408,0 3.499,0.924 3.499,4.621 l 0,6.271 -1.892,0 0,-6.029 c 0,-2.046 -0.748,-3.278 -2.31,-3.278 -1.1,0 -1.958,0.814 -2.289,1.761 -0.088,0.264 -0.154,0.616 -0.154,0.968 l 0,6.579 -1.892,0 0,-6.381 c 0,-1.694 -0.749,-2.927 -2.223,-2.927 -1.21,0 -2.09,0.969 -2.398,1.937 -0.11,0.286 -0.154,0.616 -0.154,0.946 l 0,6.425 -1.892,0 0,-7.769 z"/><path id="path452" d="m 94.442,273.844 -0.154,-1.342 -0.066,0 c -0.594,0.836 -1.738,1.584 -3.257,1.584 -2.156,0 -3.256,-1.519 -3.256,-3.059 0,-2.574 2.289,-3.982 6.403,-3.961 l 0,-0.22 c 0,-0.88 -0.242,-2.464 -2.42,-2.464 -0.99,0 -2.024,0.308 -2.772,0.792 l -0.44,-1.276 c 0.88,-0.572 2.156,-0.946 3.499,-0.946 3.257,0 4.049,2.223 4.049,4.356 l 0,3.982 c 0,0.925 0.044,1.826 0.176,2.553 l -1.762,0 z m -0.286,-5.435 c -2.112,-0.044 -4.51,0.33 -4.51,2.398 0,1.254 0.836,1.848 1.826,1.848 1.386,0 2.266,-0.88 2.574,-1.782 0.066,-0.198 0.11,-0.418 0.11,-0.616 l 0,-1.848 z"/></g></g></svg>