<?xml version="1.0" encoding="UTF-8"?><!-- Generator: Adobe Illustrator 20.1.0, SVG Export Plug-In . SVG Version: 6.00 Build 0)  --><svg xmlns="http://www.w3.org/2000/svg" xmlns:xlink="http://www.w3.org/1999/xlink" version="1.1" x="0px" y="0px" width="271.366px" height="400px" viewBox="0 0 271.366 400" enable-background="new 0 0 271.366 400" xml:space="preserve">
<g id="Transparent_Background">
	<rect opacity="0" fill="#0071BB" width="271.366" height="400"/>
</g>
<g id="Layer_3">
	<g>
		<linearGradient id="SVGID_1_" gradientUnits="userSpaceOnUse" x1="11.685" y1="200" x2="259.8079" y2="200">
			<stop offset="0" style="stop-color:#BFBFBF"/>
			<stop offset="0.0067" style="stop-color:#ABABAB"/>
			<stop offset="0.0204" style="stop-color:#777777"/>
			<stop offset="0.0336" style="stop-color:#404040"/>
			<stop offset="0.0454" style="stop-color:#505050"/>
			<stop offset="0.0789" style="stop-color:#797979"/>
			<stop offset="0.1156" style="stop-color:#9D9D9D"/>
			<stop offset="0.1549" style="stop-color:#BCBCBC"/>
			<stop offset="0.1979" style="stop-color:#D4D4D4"/>
			<stop offset="0.246" style="stop-color:#E7E7E7"/>
			<stop offset="0.3019" style="stop-color:#F5F5F5"/>
			<stop offset="0.3729" style="stop-color:#FDFDFD"/>
			<stop offset="0.5094" style="stop-color:#FFFFFF"/>
			<stop offset="0.6402" style="stop-color:#FDFDFD"/>
			<stop offset="0.7082" style="stop-color:#F5F5F5"/>
			<stop offset="0.7618" style="stop-color:#E7E7E7"/>
			<stop offset="0.8079" style="stop-color:#D4D4D4"/>
			<stop offset="0.8492" style="stop-color:#BCBCBC"/>
			<stop offset="0.887" style="stop-color:#9D9D9D"/>
			<stop offset="0.9221" style="stop-color:#797979"/>
			<stop offset="0.9544" style="stop-color:#505050"/>
			<stop offset="0.9656" style="stop-color:#404040"/>
			<stop offset="0.9675" style="stop-color:#535353"/>
			<stop offset="0.9714" style="stop-color:#747474"/>
			<stop offset="0.9756" style="stop-color:#909090"/>
			<stop offset="0.9801" style="stop-color:#A5A5A5"/>
			<stop offset="0.9851" style="stop-color:#B4B4B4"/>
			<stop offset="0.991" style="stop-color:#BDBDBD"/>
			<stop offset="1" style="stop-color:#BFBFBF"/>
		</linearGradient>
		<path fill="url(#SVGID_1_)" d="M235.292,400H36.201c-13.54,0-24.516-10.976-24.516-24.516V24.516C11.685,10.976,22.661,0,36.201,0    h199.091c13.54,0,24.516,10.976,24.516,24.516v350.968C259.808,389.024,248.832,400,235.292,400z"/>
		<g>
			<linearGradient id="SVGID_2_" gradientUnits="userSpaceOnUse" x1="141.0755" y1="170.26" x2="31.0755" y2="31.5933">
				<stop offset="0" style="stop-color:#404040"/>
				<stop offset="1" style="stop-color:#7E7F81"/>
			</linearGradient>
			<path fill="url(#SVGID_2_)" d="M22.689,295.729V34.107c0-11.323,9.179-20.503,20.503-20.503h181.624     c11.323,0,20.503,9.179,20.503,20.503v63.122L22.689,295.729z"/>
			<linearGradient id="SVGID_3_" gradientUnits="userSpaceOnUse" x1="113.1475" y1="209.1674" x2="257.1475" y2="388.6674">
				<stop offset="0" style="stop-color:#231F20"/>
				<stop offset="1" style="stop-color:#404040"/>
			</linearGradient>
			<path fill="url(#SVGID_3_)" d="M245.318,97.229v268.664c0,11.323-9.179,20.503-20.503,20.503H43.192     c-11.323,0-20.503-9.179-20.503-20.503v-70.164L245.318,97.229z"/>
		</g>
		<linearGradient id="SVGID_4_" gradientUnits="userSpaceOnUse" x1="153.5669" y1="367.8307" x2="117.2246" y2="337.3359">
			<stop offset="0" style="stop-color:#BFBFBF"/>
			<stop offset="4.112583e-05" style="stop-color:#BFBFBF"/>
			<stop offset="0.0033" style="stop-color:#A4A4A5"/>
			<stop offset="0.0069" style="stop-color:#8E8F90"/>
			<stop offset="0.0112" style="stop-color:#7D7E80"/>
			<stop offset="0.0165" style="stop-color:#727374"/>
			<stop offset="0.024" style="stop-color:#6B6C6E"/>
			<stop offset="0.0447" style="stop-color:#696A6C"/>
			<stop offset="0.074" style="stop-color:#838385"/>
			<stop offset="0.1125" style="stop-color:#9D9D9E"/>
			<stop offset="0.1519" style="stop-color:#B0B0B0"/>
			<stop offset="0.1924" style="stop-color:#BBBBBB"/>
			<stop offset="0.2356" style="stop-color:#BFBFBF"/>
			<stop offset="0.4148" style="stop-color:#ADADAD"/>
			<stop offset="0.5155" style="stop-color:#A1A1A1"/>
			<stop offset="0.7389" style="stop-color:#BFBFBF"/>
			<stop offset="0.8018" style="stop-color:#BCBCBC"/>
			<stop offset="0.8503" style="stop-color:#B2B2B3"/>
			<stop offset="0.8939" style="stop-color:#A2A2A3"/>
			<stop offset="0.9345" style="stop-color:#8B8C8D"/>
			<stop offset="0.9524" style="stop-color:#7E7F81"/>
			<stop offset="0.9729" style="stop-color:#9C9C9D"/>
			<stop offset="1" style="stop-color:#BFBFBF"/>
		</linearGradient>
		<path fill="url(#SVGID_4_)" d="M147.961,371.167H122.83c-3.323,0-6.018-2.694-6.018-6.018v-25.131    c0-3.323,2.694-6.018,6.018-6.018h25.131c3.323,0,6.018,2.694,6.018,6.018v25.131    C153.979,368.472,151.285,371.167,147.961,371.167z"/>
		<path fill="#FFFFFF" d="M234.807,321.031H36.558c-2.278,0-4.125-1.847-4.125-4.125V59.755c0-2.278,1.847-4.125,4.125-4.125    h198.249c2.278,0,4.125,1.847,4.125,4.125v257.151C238.933,319.184,237.086,321.031,234.807,321.031z"/>
		<linearGradient id="SVGID_5_" gradientUnits="userSpaceOnUse" x1="153.2552" y1="51.5535" x2="117.7018" y2="21.7206">
			<stop offset="0" style="stop-color:#BFBFBF"/>
			<stop offset="4.112583e-05" style="stop-color:#BFBFBF"/>
			<stop offset="0.0033" style="stop-color:#A4A4A5"/>
			<stop offset="0.0069" style="stop-color:#8E8F90"/>
			<stop offset="0.0112" style="stop-color:#7D7E80"/>
			<stop offset="0.0165" style="stop-color:#727374"/>
			<stop offset="0.024" style="stop-color:#6B6C6E"/>
			<stop offset="0.0447" style="stop-color:#696A6C"/>
			<stop offset="0.0829" style="stop-color:#8D8E8F"/>
			<stop offset="0.102" style="stop-color:#AEAEAF"/>
			<stop offset="0.1237" style="stop-color:#CBCBCC"/>
			<stop offset="0.1468" style="stop-color:#E2E2E2"/>
			<stop offset="0.1716" style="stop-color:#F2F2F3"/>
			<stop offset="0.1993" style="stop-color:#FCFCFC"/>
			<stop offset="0.2356" style="stop-color:#FFFFFF"/>
			<stop offset="0.3751" style="stop-color:#EDEDED"/>
			<stop offset="0.5155" style="stop-color:#D6D6D6"/>
			<stop offset="0.5433" style="stop-color:#DDDDDD"/>
			<stop offset="0.6651" style="stop-color:#F6F6F6"/>
			<stop offset="0.7389" style="stop-color:#FFFFFF"/>
			<stop offset="0.7823" style="stop-color:#FCFCFC"/>
			<stop offset="0.8157" style="stop-color:#F2F2F2"/>
			<stop offset="0.8458" style="stop-color:#E2E2E2"/>
			<stop offset="0.8738" style="stop-color:#CBCBCB"/>
			<stop offset="0.8981" style="stop-color:#B0B0B1"/>
			<stop offset="0.9311" style="stop-color:#8F8F91"/>
			<stop offset="0.9524" style="stop-color:#7E7F81"/>
			<stop offset="0.9729" style="stop-color:#9C9C9D"/>
			<stop offset="1" style="stop-color:#BFBFBF"/>
		</linearGradient>
		<rect x="106.854" y="34.649" fill="url(#SVGID_5_)" width="57.25" height="3.976"/>
		<g>
			<path fill="#404040" d="M224.815,387H45.976c-11.857,0-21.503-9.646-21.503-21.503V37.042c0-11.857,9.646-21.503,21.503-21.503     h178.839c11.857,0,21.503,9.646,21.503,21.503v328.455C246.318,377.354,236.672,387,224.815,387z M45.976,17.539     c-10.754,0-19.503,8.749-19.503,19.503v328.455c0,10.754,8.749,19.503,19.503,19.503h178.839     c10.754,0,19.503-8.749,19.503-19.503V37.042c0-10.754-8.749-19.503-19.503-19.503H45.976z"/>
		</g>
		<path fill="none" stroke="#FFFFFF" stroke-width="2" stroke-miterlimit="10" d="M226.208,387H44.584    c-11.323,0-20.503-9.179-20.503-20.503V34.711c0-11.323,9.179-20.503,20.503-20.503h181.624c11.323,0,20.503,9.179,20.503,20.503    v331.786C246.71,377.821,237.531,387,226.208,387z"/>
		<g>
			<path fill="#666666" d="M234.767,322.031H36.599c-2.849,0-5.167-2.317-5.167-5.166v-28.932l2-1.767v30.699     c0,1.746,1.42,3.166,3.167,3.166h198.167c1.746,0,3.166-1.42,3.166-3.166V104.042l2-2.011v214.835     C239.933,319.714,237.615,322.031,234.767,322.031z"/>
		</g>
		<g>
			<path fill="#333333" d="M33.433,286.167l-2,1.767V59.795c0-2.849,2.318-5.166,5.167-5.166h198.167     c2.849,0,5.166,2.317,5.166,5.166v42.235l-2,2.011V59.795c0-1.746-1.42-3.166-3.166-3.166H36.599     c-1.746,0-3.167,1.42-3.167,3.166V286.167z"/>
		</g>
		<g>
			<path fill="#666666" d="M162.116,39.125h-53.899c-1.372,0-2.488-1.116-2.488-2.488h1c0,0.82,0.667,1.488,1.488,1.488h53.899     c0.82,0,1.488-0.667,1.488-1.488h1C164.604,38.009,163.487,39.125,162.116,39.125z"/>
		</g>
		<g>
			<path fill="#333333" d="M165.104,36.637h-2c0-0.545-0.443-0.988-0.988-0.988h-53.899c-0.544,0-0.988,0.443-0.988,0.988h-2     c0-1.648,1.34-2.988,2.988-2.988h53.899C163.763,33.649,165.104,34.989,165.104,36.637z"/>
		</g>
		<g>
			<path fill="#666666" d="M149.205,372.167h-27.119c-1.609,0-3.122-0.627-4.259-1.765l1.414-1.414     c0.76,0.76,1.771,1.179,2.845,1.179h27.119c2.219,0,4.024-1.806,4.024-4.024v-27.119c0-1.074-0.418-2.084-1.179-2.845     l1.415-1.414c1.137,1.139,1.764,2.65,1.764,4.259v27.119C155.229,369.465,152.526,372.167,149.205,372.167z"/>
		</g>
		<g>
			<path fill="#333333" d="M117.826,370.402c-1.138-1.138-1.764-2.65-1.764-4.26v-27.119c0-3.321,2.702-6.023,6.023-6.023h27.119     c1.609,0,3.122,0.627,4.26,1.765l-1.414,1.414c-0.76-0.76-1.771-1.179-2.846-1.179h-27.119c-2.219,0-4.023,1.805-4.023,4.023     v27.119c0,1.075,0.418,2.086,1.178,2.846L117.826,370.402z"/>
		</g>
		<g>
			<path fill="#8C8C8C" d="M70.479,350H55.812c0,0-1.75,2.706-1.75,4.714s0,2.619,0,2.619h8.208c0,0,0.125-3.667,1.708-3.667     c1.583,0,6.5,0,6.5,0"/>
			<path fill="#8C8C8C" d="M70.395,350h14.667c0,0,1.75,2.706,1.75,4.714s0,2.619,0,2.619h-8.208c0,0-0.125-3.667-1.708-3.667     c-1.583,0-6.5,0-6.5,0"/>
		</g>
		<g>
			<path fill="#8C8C8C" d="M200.479,350h-14.667c0,0-1.75,2.706-1.75,4.714s0,2.619,0,2.619h8.208c0,0,0.125-3.667,1.708-3.667     s6.5,0,6.5,0"/>
			<path fill="#8C8C8C" d="M200.395,350h14.667c0,0,1.75,2.706,1.75,4.714s0,2.619,0,2.619h-8.208c0,0-0.125-3.667-1.708-3.667     c-1.583,0-6.5,0-6.5,0"/>
		</g>
	</g>
</g>
<g id="Layer_5">
	<g>
		<path d="M43.157,75.037v6.484h7.497v-6.484h2.023v15.499h-2.023v-7.267h-7.497v7.267h-2V75.037H43.157z"/>
		<path d="M58.566,76.279c0.023,0.69-0.483,1.242-1.288,1.242c-0.713,0-1.219-0.552-1.219-1.242c0-0.713,0.529-1.265,1.265-1.265    C58.083,75.014,58.566,75.566,58.566,76.279z M56.313,90.536V79.406h2.023v11.129H56.313z"/>
		<path d="M66.64,75.244c0.874-0.184,2.253-0.322,3.656-0.322c2,0,3.288,0.345,4.254,1.127c0.805,0.598,1.288,1.518,1.288,2.736    c0,1.495-0.989,2.806-2.622,3.403v0.046c1.472,0.368,3.196,1.587,3.196,3.886c0,1.333-0.529,2.346-1.311,3.104    c-1.081,0.989-2.829,1.449-5.358,1.449c-1.38,0-2.438-0.092-3.104-0.184V75.244z M68.64,81.591h1.817    c2.115,0,3.357-1.104,3.357-2.599c0-1.816-1.379-2.529-3.403-2.529c-0.92,0-1.449,0.069-1.771,0.138V81.591z M68.64,89.018    c0.391,0.069,0.966,0.092,1.679,0.092c2.07,0,3.978-0.759,3.978-3.012c0-2.116-1.816-2.989-4.001-2.989H68.64V89.018z"/>
		<path d="M80.255,85.339c0.046,2.736,1.794,3.863,3.817,3.863c1.449,0,2.322-0.253,3.082-0.575l0.345,1.449    c-0.713,0.322-1.932,0.69-3.702,0.69c-3.426,0-5.473-2.253-5.473-5.611s1.978-6.001,5.22-6.001c3.633,0,4.599,3.196,4.599,5.243    c0,0.414-0.046,0.736-0.069,0.943H80.255z M86.188,83.89c0.023-1.288-0.529-3.289-2.806-3.289c-2.046,0-2.943,1.886-3.104,3.289    H86.188z"/>
		<path d="M90.651,82.418c0-1.15-0.023-2.093-0.092-3.012h1.794l0.115,1.839h0.046c0.552-1.058,1.84-2.092,3.679-2.092    c1.541,0,3.932,0.919,3.932,4.737v6.646h-2.023V84.12c0-1.793-0.667-3.289-2.575-3.289c-1.334,0-2.369,0.943-2.713,2.07    c-0.092,0.253-0.138,0.598-0.138,0.943v6.691h-2.023V82.418z"/>
		<path d="M43.157,102.637v15.499h-2v-15.499H43.157z"/>
		<path d="M49.022,102.384c-0.529,1.932-1.518,4.392-2.162,5.45l-1.288,0.161c0.506-1.357,1.104-3.749,1.357-5.404L49.022,102.384z"/>
		<path d="M51.851,107.006l2.185,6.254c0.368,1.012,0.667,1.932,0.897,2.852h0.069c0.253-0.92,0.575-1.84,0.943-2.852l2.162-6.254    h2.115l-4.369,11.129H53.92l-4.231-11.129H51.851z"/>
		<path d="M63.029,112.939c0.046,2.736,1.794,3.863,3.817,3.863c1.449,0,2.322-0.253,3.082-0.575l0.345,1.449    c-0.713,0.322-1.932,0.69-3.702,0.69c-3.426,0-5.473-2.253-5.473-5.611s1.978-6.001,5.22-6.001c3.633,0,4.599,3.196,4.599,5.243    c0,0.414-0.046,0.736-0.069,0.943H63.029z M68.962,111.49c0.023-1.288-0.529-3.288-2.806-3.288c-2.046,0-2.943,1.885-3.104,3.288    H68.962z"/>
		<path d="M78.208,118.136c0.046-0.759,0.092-1.886,0.092-2.875v-13.452h2v6.991h0.046c0.713-1.242,2-2.046,3.794-2.046    c2.759,0,4.714,2.299,4.691,5.68c0,3.978-2.506,5.956-4.99,5.956c-1.609,0-2.897-0.621-3.725-2.093h-0.069l-0.092,1.84H78.208z     M80.301,113.675c0,0.253,0.046,0.506,0.092,0.736c0.391,1.403,1.564,2.368,3.036,2.368c2.115,0,3.38-1.725,3.38-4.277    c0-2.23-1.15-4.139-3.312-4.139c-1.38,0-2.667,0.943-3.082,2.483c-0.046,0.23-0.115,0.506-0.115,0.828V113.675z"/>
		<path d="M101.459,112.479c0,4.116-2.852,5.91-5.542,5.91c-3.012,0-5.334-2.208-5.334-5.726c0-3.726,2.438-5.91,5.519-5.91    C99.298,106.753,101.459,109.076,101.459,112.479z M92.629,112.594c0,2.438,1.403,4.277,3.38,4.277c1.932,0,3.38-1.817,3.38-4.323    c0-1.885-0.942-4.277-3.334-4.277S92.629,110.479,92.629,112.594z"/>
		<path d="M114.086,112.479c0,4.116-2.852,5.91-5.542,5.91c-3.012,0-5.334-2.208-5.334-5.726c0-3.726,2.438-5.91,5.519-5.91    C111.925,106.753,114.086,109.076,114.086,112.479z M105.256,112.594c0,2.438,1.403,4.277,3.38,4.277    c1.932,0,3.38-1.817,3.38-4.323c0-1.885-0.942-4.277-3.334-4.277S105.256,110.479,105.256,112.594z"/>
		<path d="M118.642,112.111h0.046c0.276-0.391,0.667-0.874,0.989-1.265l3.266-3.84h2.437l-4.3,4.576l4.898,6.554h-2.46l-3.84-5.335    l-1.035,1.15v4.185h-2v-16.327h2V112.111z"/>
		<path d="M128.555,112.939c0.046,2.736,1.794,3.863,3.817,3.863c1.449,0,2.322-0.253,3.082-0.575l0.345,1.449    c-0.713,0.322-1.932,0.69-3.702,0.69c-3.426,0-5.473-2.253-5.473-5.611s1.978-6.001,5.22-6.001c3.633,0,4.599,3.196,4.599,5.243    c0,0.414-0.046,0.736-0.069,0.943H128.555z M134.488,111.49c0.023-1.288-0.529-3.288-2.806-3.288    c-2.046,0-2.943,1.885-3.104,3.288H134.488z"/>
		<path d="M148.563,101.809v13.452c0,0.989,0.023,2.116,0.092,2.875h-1.816l-0.092-1.932H146.7    c-0.621,1.242-1.978,2.185-3.794,2.185c-2.69,0-4.76-2.276-4.76-5.657c-0.023-3.702,2.276-5.979,4.99-5.979    c1.702,0,2.852,0.805,3.357,1.702h0.046v-6.646H148.563z M146.54,111.536c0-0.253-0.023-0.598-0.092-0.851    c-0.299-1.288-1.402-2.346-2.92-2.346c-2.093,0-3.334,1.84-3.334,4.3c0,2.253,1.104,4.116,3.288,4.116    c1.357,0,2.599-0.896,2.966-2.414c0.069-0.276,0.092-0.552,0.092-0.874V111.536z"/>
		<path d="M164.732,117.722c-0.529,0.276-1.702,0.644-3.196,0.644c-3.357,0-5.542-2.276-5.542-5.68c0-3.426,2.345-5.91,5.979-5.91    c1.196,0,2.253,0.299,2.805,0.575l-0.459,1.563c-0.483-0.276-1.242-0.529-2.346-0.529c-2.552,0-3.932,1.886-3.932,4.208    c0,2.576,1.656,4.162,3.863,4.162c1.149,0,1.908-0.299,2.483-0.552L164.732,117.722z"/>
		<path d="M177.037,112.479c0,4.116-2.852,5.91-5.542,5.91c-3.012,0-5.334-2.208-5.334-5.726c0-3.726,2.438-5.91,5.519-5.91    C174.875,106.753,177.037,109.076,177.037,112.479z M168.207,112.594c0,2.438,1.403,4.277,3.38,4.277    c1.932,0,3.38-1.817,3.38-4.323c0-1.885-0.942-4.277-3.334-4.277S168.207,110.479,168.207,112.594z"/>
		<path d="M179.592,110.019c0-1.15-0.023-2.093-0.092-3.012h1.794l0.115,1.839h0.046c0.552-1.058,1.84-2.092,3.679-2.092    c1.541,0,3.932,0.919,3.932,4.737v6.646h-2.023v-6.416c0-1.793-0.667-3.289-2.575-3.289c-1.334,0-2.369,0.943-2.713,2.07    c-0.092,0.253-0.138,0.598-0.138,0.943v6.691h-2.023V110.019z"/>
		<path d="M200.29,117.722c-0.529,0.276-1.702,0.644-3.196,0.644c-3.357,0-5.542-2.276-5.542-5.68c0-3.426,2.345-5.91,5.979-5.91    c1.196,0,2.253,0.299,2.805,0.575l-0.459,1.563c-0.483-0.276-1.242-0.529-2.346-0.529c-2.552,0-3.932,1.886-3.932,4.208    c0,2.576,1.656,4.162,3.863,4.162c1.149,0,1.908-0.299,2.483-0.552L200.29,117.722z"/>
		<path d="M203.649,112.939c0.046,2.736,1.794,3.863,3.817,3.863c1.449,0,2.322-0.253,3.082-0.575l0.345,1.449    c-0.713,0.322-1.932,0.69-3.702,0.69c-3.426,0-5.473-2.253-5.473-5.611s1.978-6.001,5.22-6.001c3.633,0,4.599,3.196,4.599,5.243    c0,0.414-0.046,0.736-0.069,0.943H203.649z M209.582,111.49c0.023-1.288-0.529-3.288-2.806-3.288    c-2.046,0-2.943,1.885-3.104,3.288H209.582z"/>
		<path d="M214.045,110.479c0-1.311-0.023-2.438-0.092-3.472h1.771l0.069,2.185h0.092c0.506-1.495,1.725-2.438,3.082-2.438    c0.23,0,0.391,0.023,0.575,0.069v1.909c-0.207-0.046-0.414-0.069-0.69-0.069c-1.425,0-2.437,1.081-2.713,2.599    c-0.046,0.276-0.092,0.598-0.092,0.943v5.933h-2V110.479z"/>
		<path d="M224.556,103.81v3.196h2.897v1.541h-2.897v6.001c0,1.38,0.391,2.162,1.518,2.162c0.529,0,0.92-0.069,1.173-0.138    l0.092,1.518c-0.391,0.161-1.012,0.276-1.793,0.276c-0.943,0-1.702-0.299-2.185-0.851c-0.575-0.598-0.782-1.586-0.782-2.897    v-6.071h-1.725v-1.541h1.725v-2.667L224.556,103.81z"/>
		<path d="M43.525,131.41v3.196h2.897v1.541h-2.897v6.001c0,1.38,0.391,2.162,1.518,2.162c0.529,0,0.92-0.069,1.173-0.138    l0.092,1.518c-0.391,0.161-1.012,0.276-1.793,0.276c-0.943,0-1.702-0.299-2.185-0.851c-0.575-0.598-0.782-1.586-0.782-2.897    v-6.071h-1.725v-1.541h1.725v-2.667L43.525,131.41z"/>
		<path d="M50.954,131.479c0.023,0.69-0.483,1.242-1.288,1.242c-0.713,0-1.219-0.552-1.219-1.242c0-0.713,0.529-1.265,1.265-1.265    C50.471,130.214,50.954,130.766,50.954,131.479z M48.7,145.736v-11.129h2.023v11.129H48.7z"/>
		<path d="M62.015,145.322c-0.529,0.276-1.702,0.644-3.196,0.644c-3.357,0-5.542-2.276-5.542-5.68c0-3.426,2.345-5.91,5.979-5.91    c1.196,0,2.253,0.299,2.805,0.575l-0.459,1.563c-0.483-0.276-1.242-0.529-2.346-0.529c-2.552,0-3.932,1.886-3.932,4.208    c0,2.576,1.656,4.162,3.863,4.162c1.149,0,1.908-0.299,2.483-0.552L62.015,145.322z"/>
		<path d="M66.387,139.711h0.046c0.276-0.391,0.667-0.874,0.989-1.265l3.266-3.84h2.437l-4.3,4.576l4.898,6.554h-2.46l-3.84-5.335    l-1.035,1.15v4.185h-2v-16.327h2V139.711z"/>
		<path d="M76.299,140.539c0.046,2.736,1.794,3.863,3.817,3.863c1.449,0,2.322-0.253,3.082-0.575l0.345,1.449    c-0.713,0.322-1.932,0.69-3.702,0.69c-3.426,0-5.473-2.253-5.473-5.611s1.978-6.001,5.22-6.001c3.633,0,4.599,3.196,4.599,5.243    c0,0.414-0.046,0.736-0.069,0.943H76.299z M82.232,139.09c0.023-1.288-0.529-3.289-2.806-3.289c-2.046,0-2.943,1.886-3.104,3.289    H82.232z"/>
		<path d="M89.133,131.41v3.196h2.897v1.541h-2.897v6.001c0,1.38,0.391,2.162,1.518,2.162c0.529,0,0.92-0.069,1.173-0.138    l0.092,1.518c-0.391,0.161-1.012,0.276-1.793,0.276c-0.943,0-1.702-0.299-2.185-0.851c-0.575-0.598-0.782-1.586-0.782-2.897    v-6.071h-1.725v-1.541h1.725v-2.667L89.133,131.41z"/>
		<path d="M94.033,143.667c0.598,0.391,1.655,0.805,2.667,0.805c1.472,0,2.161-0.736,2.161-1.656c0-0.966-0.575-1.495-2.069-2.046    c-2-0.713-2.943-1.817-2.943-3.15c0-1.793,1.449-3.265,3.84-3.265c1.126,0,2.115,0.322,2.736,0.689l-0.506,1.472    c-0.437-0.276-1.242-0.644-2.277-0.644c-1.195,0-1.862,0.69-1.862,1.518c0,0.92,0.667,1.333,2.115,1.886    c1.932,0.736,2.92,1.702,2.92,3.357c0,1.955-1.518,3.334-4.162,3.334c-1.219,0-2.345-0.299-3.127-0.759L94.033,143.667z"/>
		<path d="M108.499,145.736v-9.589h-1.564v-1.541h1.564v-0.529c0-1.563,0.345-2.989,1.288-3.886    c0.759-0.736,1.771-1.035,2.713-1.035c0.713,0,1.333,0.161,1.725,0.322l-0.276,1.563c-0.299-0.138-0.713-0.253-1.288-0.253    c-1.725,0-2.162,1.518-2.162,3.219v0.598h2.69v1.541h-2.69v9.589H108.499z"/>
		<path d="M124.781,140.079c0,4.116-2.852,5.91-5.542,5.91c-3.012,0-5.334-2.208-5.334-5.726c0-3.725,2.437-5.91,5.519-5.91    C122.62,134.354,124.781,136.676,124.781,140.079z M115.951,140.194c0,2.438,1.403,4.277,3.38,4.277    c1.932,0,3.38-1.817,3.38-4.323c0-1.885-0.942-4.277-3.334-4.277S115.951,138.079,115.951,140.194z"/>
		<path d="M127.336,138.079c0-1.311-0.023-2.438-0.092-3.472h1.771l0.069,2.185h0.092c0.506-1.495,1.725-2.438,3.082-2.438    c0.23,0,0.391,0.023,0.575,0.069v1.909c-0.207-0.046-0.414-0.069-0.69-0.069c-1.425,0-2.437,1.081-2.713,2.599    c-0.046,0.276-0.092,0.598-0.092,0.943v5.933h-2V138.079z"/>
		<path d="M139.641,145.736c0.046-0.759,0.092-1.886,0.092-2.875v-13.452h2v6.991h0.046c0.713-1.242,2-2.046,3.794-2.046    c2.759,0,4.714,2.299,4.691,5.68c0,3.978-2.506,5.956-4.99,5.956c-1.609,0-2.897-0.621-3.725-2.092h-0.069l-0.092,1.839H139.641z     M141.733,141.275c0,0.253,0.046,0.506,0.092,0.736c0.391,1.403,1.564,2.368,3.036,2.368c2.115,0,3.38-1.725,3.38-4.277    c0-2.23-1.15-4.139-3.312-4.139c-1.38,0-2.667,0.943-3.082,2.483c-0.046,0.23-0.115,0.506-0.115,0.828V141.275z"/>
		<path d="M162.892,140.079c0,4.116-2.852,5.91-5.542,5.91c-3.012,0-5.334-2.208-5.334-5.726c0-3.725,2.437-5.91,5.519-5.91    C160.73,134.354,162.892,136.676,162.892,140.079z M154.062,140.194c0,2.438,1.403,4.277,3.38,4.277    c1.932,0,3.38-1.817,3.38-4.323c0-1.885-0.942-4.277-3.334-4.277S154.062,138.079,154.062,140.194z"/>
		<path d="M167.884,131.41v3.196h2.897v1.541h-2.897v6.001c0,1.38,0.391,2.162,1.518,2.162c0.529,0,0.92-0.069,1.173-0.138    l0.092,1.518c-0.391,0.161-1.012,0.276-1.793,0.276c-0.943,0-1.702-0.299-2.185-0.851c-0.575-0.598-0.782-1.586-0.782-2.897    v-6.071h-1.725v-1.541h1.725v-2.667L167.884,131.41z"/>
		<path d="M173.06,129.409h2.023v6.945h0.046c0.322-0.575,0.828-1.081,1.449-1.426c0.598-0.345,1.311-0.575,2.07-0.575    c1.495,0,3.886,0.919,3.886,4.76v6.623h-2.023v-6.393c0-1.793-0.667-3.312-2.575-3.312c-1.311,0-2.346,0.92-2.713,2.024    c-0.115,0.276-0.138,0.575-0.138,0.966v6.714h-2.023V129.409z"/>
		<path d="M200.772,140.079c0,4.116-2.852,5.91-5.542,5.91c-3.012,0-5.334-2.208-5.334-5.726c0-3.725,2.438-5.91,5.519-5.91    C198.61,134.354,200.772,136.676,200.772,140.079z M191.942,140.194c0,2.438,1.403,4.277,3.38,4.277    c1.932,0,3.38-1.817,3.38-4.323c0-1.885-0.942-4.277-3.334-4.277S191.942,138.079,191.942,140.194z"/>
		<path d="M203.534,145.736v-9.589h-1.564v-1.541h1.564v-0.529c0-1.563,0.345-2.989,1.288-3.886    c0.759-0.736,1.771-1.035,2.713-1.035c0.713,0,1.333,0.161,1.725,0.322l-0.276,1.563c-0.299-0.138-0.713-0.253-1.288-0.253    c-1.725,0-2.162,1.518-2.162,3.219v0.598h2.69v1.541h-2.69v9.589H203.534z"/>
		<path d="M50.4,170.3c0,1.149,0.023,2.161,0.092,3.035h-1.793l-0.115-1.816h-0.046c-0.529,0.896-1.702,2.069-3.679,2.069    c-1.748,0-3.84-0.966-3.84-4.875v-6.507h2.023v6.163c0,2.115,0.644,3.541,2.483,3.541c1.356,0,2.299-0.943,2.667-1.839    c0.115-0.299,0.184-0.667,0.184-1.035v-6.829H50.4V170.3z"/>
		<path d="M53.484,171.266c0.598,0.391,1.655,0.805,2.667,0.805c1.472,0,2.161-0.736,2.161-1.656c0-0.966-0.575-1.495-2.069-2.046    c-2-0.713-2.943-1.817-2.943-3.15c0-1.793,1.449-3.265,3.84-3.265c1.126,0,2.115,0.322,2.736,0.689l-0.506,1.472    c-0.437-0.276-1.242-0.644-2.277-0.644c-1.195,0-1.862,0.69-1.862,1.518c0,0.92,0.667,1.333,2.115,1.886    c1.932,0.736,2.92,1.702,2.92,3.357c0,1.955-1.518,3.334-4.162,3.334c-1.219,0-2.345-0.299-3.127-0.759L53.484,171.266z"/>
		<path d="M77.816,167.679c0,4.116-2.852,5.91-5.542,5.91c-3.012,0-5.334-2.208-5.334-5.726c0-3.725,2.438-5.91,5.519-5.91    C75.654,161.953,77.816,164.275,77.816,167.679z M68.986,167.793c0,2.438,1.403,4.277,3.38,4.277c1.932,0,3.38-1.817,3.38-4.323    c0-1.885-0.942-4.277-3.334-4.277S68.986,165.678,68.986,167.793z"/>
		<path d="M80.371,165.218c0-1.15-0.023-2.093-0.092-3.012h1.794l0.115,1.839h0.046c0.552-1.058,1.84-2.092,3.679-2.092    c1.541,0,3.932,0.919,3.932,4.737v6.646h-2.023v-6.416c0-1.793-0.667-3.289-2.575-3.289c-1.334,0-2.369,0.943-2.713,2.07    c-0.092,0.253-0.138,0.598-0.138,0.943v6.691h-2.023V165.218z"/>
		<path d="M93.136,157.009h2.023v16.327h-2.023V157.009z"/>
		<path d="M100.817,159.079c0.023,0.69-0.483,1.242-1.288,1.242c-0.713,0-1.219-0.552-1.219-1.242c0-0.713,0.529-1.265,1.265-1.265    C100.334,157.814,100.817,158.366,100.817,159.079z M98.563,173.335v-11.129h2.023v11.129H98.563z"/>
		<path d="M103.945,165.218c0-1.15-0.023-2.093-0.092-3.012h1.794l0.115,1.839h0.046c0.552-1.058,1.84-2.092,3.679-2.092    c1.541,0,3.932,0.919,3.932,4.737v6.646h-2.023v-6.416c0-1.793-0.667-3.289-2.575-3.289c-1.334,0-2.369,0.943-2.713,2.07    c-0.092,0.253-0.138,0.598-0.138,0.943v6.691h-2.023V165.218z"/>
		<path d="M117.837,168.139c0.046,2.736,1.794,3.863,3.817,3.863c1.449,0,2.322-0.253,3.082-0.575l0.345,1.449    c-0.713,0.322-1.932,0.69-3.702,0.69c-3.426,0-5.473-2.253-5.473-5.611s1.978-6.001,5.22-6.001c3.633,0,4.599,3.196,4.599,5.243    c0,0.414-0.046,0.736-0.069,0.943H117.837z M123.77,166.69c0.023-1.288-0.529-3.289-2.806-3.289c-2.046,0-2.943,1.886-3.104,3.289    H123.77z"/>
		<path d="M127.474,172.14c0-0.851,0.575-1.449,1.379-1.449c0.805,0,1.357,0.598,1.357,1.449c0,0.828-0.529,1.449-1.38,1.449    C128.026,173.588,127.474,172.968,127.474,172.14z"/>
		<path d="M148.493,172.83c-0.736,0.368-2.208,0.736-4.093,0.736c-4.369,0-7.658-2.759-7.658-7.841c0-4.852,3.289-8.14,8.094-8.14    c1.932,0,3.15,0.414,3.679,0.69l-0.483,1.632c-0.759-0.368-1.839-0.644-3.127-0.644c-3.633,0-6.048,2.322-6.048,6.393    c0,3.794,2.185,6.231,5.956,6.231c1.219,0,2.46-0.253,3.266-0.644L148.493,172.83z"/>
		<path d="M156.935,173.335l-0.161-1.403h-0.069c-0.621,0.874-1.816,1.656-3.403,1.656c-2.253,0-3.403-1.586-3.403-3.196    c0-2.69,2.392-4.162,6.692-4.139v-0.23c0-0.92-0.253-2.575-2.53-2.575c-1.035,0-2.115,0.322-2.897,0.828l-0.459-1.333    c0.919-0.598,2.253-0.989,3.656-0.989c3.403,0,4.231,2.322,4.231,4.553v4.162c0,0.966,0.046,1.909,0.184,2.667H156.935z     M156.636,167.656c-2.208-0.046-4.714,0.345-4.714,2.506c0,1.311,0.874,1.932,1.908,1.932c1.449,0,2.369-0.92,2.69-1.863    c0.069-0.207,0.115-0.437,0.115-0.644V167.656z"/>
		<path d="M161.858,165.218c0-1.15-0.023-2.093-0.092-3.012h1.794l0.115,1.839h0.046c0.552-1.058,1.84-2.092,3.679-2.092    c1.541,0,3.932,0.919,3.932,4.737v6.646h-2.023v-6.416c0-1.793-0.667-3.289-2.575-3.289c-1.334,0-2.369,0.943-2.713,2.07    c-0.092,0.253-0.138,0.598-0.138,0.943v6.691h-2.023V165.218z"/>
		<path d="M180.235,162.206l2.438,6.576c0.253,0.736,0.529,1.61,0.713,2.277h0.046c0.207-0.667,0.437-1.518,0.713-2.323l2.208-6.53    h2.139l-3.036,7.933c-1.449,3.817-2.438,5.772-3.817,6.967c-0.989,0.874-1.978,1.219-2.484,1.311l-0.506-1.702    c0.506-0.161,1.173-0.483,1.771-0.989c0.552-0.437,1.242-1.219,1.702-2.253c0.092-0.207,0.161-0.368,0.161-0.483    c0-0.115-0.046-0.276-0.138-0.529l-4.116-10.255H180.235z"/>
		<path d="M200.174,167.679c0,4.116-2.852,5.91-5.542,5.91c-3.012,0-5.334-2.208-5.334-5.726c0-3.725,2.437-5.91,5.519-5.91    C198.012,161.953,200.174,164.275,200.174,167.679z M191.344,167.793c0,2.438,1.403,4.277,3.38,4.277    c1.932,0,3.38-1.817,3.38-4.323c0-1.885-0.942-4.277-3.334-4.277S191.344,165.678,191.344,167.793z"/>
		<path d="M212.042,170.3c0,1.149,0.023,2.161,0.092,3.035h-1.793l-0.115-1.816h-0.046c-0.529,0.896-1.702,2.069-3.679,2.069    c-1.748,0-3.84-0.966-3.84-4.875v-6.507h2.023v6.163c0,2.115,0.644,3.541,2.483,3.541c1.356,0,2.299-0.943,2.667-1.839    c0.115-0.299,0.184-0.667,0.184-1.035v-6.829h2.023V170.3z"/>
		<path d="M50.676,189.806c-0.046,0.805-0.092,1.702-0.092,3.058v6.461c0,2.553-0.506,4.116-1.587,5.082    c-1.081,1.012-2.645,1.334-4.047,1.334c-1.334,0-2.806-0.322-3.703-0.92l0.506-1.541c0.736,0.459,1.885,0.874,3.265,0.874    c2.069,0,3.587-1.081,3.587-3.886v-1.242h-0.046c-0.621,1.035-1.816,1.863-3.541,1.863c-2.759,0-4.737-2.346-4.737-5.427    c0-3.771,2.46-5.91,5.013-5.91c1.932,0,2.989,1.012,3.472,1.931h0.046l0.092-1.678H50.676z M48.583,194.198    c0-0.345-0.023-0.644-0.115-0.92c-0.368-1.173-1.357-2.139-2.829-2.139c-1.931,0-3.311,1.633-3.311,4.208    c0,2.185,1.104,4.001,3.288,4.001c1.242,0,2.369-0.782,2.806-2.07c0.115-0.345,0.161-0.736,0.161-1.081V194.198z"/>
		<path d="M56.06,186.679c0.023,0.69-0.483,1.242-1.288,1.242c-0.713,0-1.219-0.552-1.219-1.242c0-0.713,0.529-1.265,1.265-1.265    C55.577,185.414,56.06,185.966,56.06,186.679z M53.806,200.936v-11.129h2.023v11.129H53.806z"/>
		<path d="M59.97,189.806l2.185,6.254c0.368,1.012,0.667,1.932,0.897,2.852h0.069c0.253-0.92,0.575-1.84,0.943-2.852l2.162-6.254    h2.115l-4.369,11.129h-1.932l-4.231-11.129H59.97z"/>
		<path d="M71.147,195.739c0.046,2.736,1.794,3.863,3.817,3.863c1.449,0,2.322-0.253,3.082-0.575l0.345,1.449    c-0.713,0.322-1.932,0.69-3.702,0.69c-3.426,0-5.473-2.253-5.473-5.611s1.978-6.001,5.22-6.001c3.633,0,4.599,3.196,4.599,5.243    c0,0.414-0.046,0.736-0.069,0.943H71.147z M77.081,194.29c0.023-1.288-0.529-3.288-2.806-3.288c-2.046,0-2.943,1.885-3.104,3.288    H77.081z"/>
		<path d="M86.419,192.818c0-1.15-0.023-2.093-0.092-3.012h1.771l0.092,1.793h0.069c0.621-1.058,1.656-2.046,3.496-2.046    c1.518,0,2.667,0.919,3.15,2.23h0.046c0.345-0.621,0.782-1.104,1.242-1.449c0.667-0.506,1.402-0.782,2.46-0.782    c1.472,0,3.656,0.966,3.656,4.829v6.554h-1.978v-6.301c0-2.138-0.782-3.426-2.415-3.426c-1.15,0-2.047,0.851-2.392,1.84    c-0.092,0.276-0.161,0.644-0.161,1.012v6.875h-1.978v-6.668c0-1.771-0.782-3.059-2.322-3.059c-1.265,0-2.185,1.012-2.506,2.024    c-0.115,0.299-0.161,0.644-0.161,0.989v6.714h-1.978V192.818z"/>
		<path d="M106.728,195.739c0.046,2.736,1.794,3.863,3.817,3.863c1.449,0,2.322-0.253,3.082-0.575l0.345,1.449    c-0.713,0.322-1.932,0.69-3.702,0.69c-3.426,0-5.473-2.253-5.473-5.611s1.978-6.001,5.22-6.001c3.633,0,4.599,3.196,4.599,5.243    c0,0.414-0.046,0.736-0.069,0.943H106.728z M112.661,194.29c0.023-1.288-0.529-3.288-2.806-3.288    c-2.046,0-2.943,1.885-3.104,3.288H112.661z"/>
		<path d="M124.437,186.61v3.196h2.897v1.541h-2.897v6.001c0,1.38,0.391,2.162,1.518,2.162c0.529,0,0.92-0.069,1.173-0.138    l0.092,1.518c-0.391,0.161-1.012,0.276-1.793,0.276c-0.943,0-1.702-0.299-2.185-0.851c-0.575-0.598-0.782-1.586-0.782-2.897    v-6.071h-1.725v-1.541h1.725v-2.667L124.437,186.61z"/>
		<path d="M129.613,184.609h2.023v6.945h0.046c0.322-0.575,0.828-1.081,1.449-1.426c0.598-0.345,1.311-0.575,2.07-0.575    c1.495,0,3.886,0.919,3.886,4.76v6.623h-2.023v-6.393c0-1.793-0.667-3.312-2.575-3.312c-1.311,0-2.346,0.92-2.713,2.024    c-0.115,0.276-0.138,0.575-0.138,0.966v6.714h-2.023V184.609z"/>
		<path d="M143.504,195.739c0.046,2.736,1.794,3.863,3.817,3.863c1.449,0,2.322-0.253,3.082-0.575l0.345,1.449    c-0.713,0.322-1.932,0.69-3.702,0.69c-3.426,0-5.473-2.253-5.473-5.611s1.978-6.001,5.22-6.001c3.633,0,4.599,3.196,4.599,5.243    c0,0.414-0.046,0.736-0.069,0.943H143.504z M149.437,194.29c0.023-1.288-0.529-3.288-2.806-3.288    c-2.046,0-2.943,1.885-3.104,3.288H149.437z"/>
		<path d="M158.776,192.818c0-1.15-0.023-2.093-0.092-3.012h1.771l0.092,1.793h0.069c0.621-1.058,1.656-2.046,3.496-2.046    c1.518,0,2.667,0.919,3.15,2.23h0.046c0.345-0.621,0.782-1.104,1.242-1.449c0.667-0.506,1.402-0.782,2.46-0.782    c1.472,0,3.656,0.966,3.656,4.829v6.554h-1.978v-6.301c0-2.138-0.782-3.426-2.415-3.426c-1.15,0-2.047,0.851-2.392,1.84    c-0.092,0.276-0.161,0.644-0.161,1.012v6.875h-1.978v-6.668c0-1.771-0.782-3.059-2.322-3.059c-1.265,0-2.185,1.012-2.506,2.024    c-0.115,0.299-0.161,0.644-0.161,0.989v6.714h-1.978V192.818z"/>
		<path d="M188.03,195.279c0,4.116-2.852,5.91-5.542,5.91c-3.012,0-5.334-2.208-5.334-5.726c0-3.726,2.437-5.91,5.519-5.91    C185.869,189.553,188.03,191.875,188.03,195.279z M179.2,195.394c0,2.438,1.403,4.277,3.38,4.277c1.932,0,3.38-1.817,3.38-4.323    c0-1.885-0.942-4.277-3.334-4.277S179.2,193.278,179.2,195.394z"/>
		<path d="M190.585,192.818c0-1.15-0.023-2.093-0.092-3.012h1.794l0.115,1.839h0.046c0.552-1.058,1.84-2.092,3.679-2.092    c1.541,0,3.932,0.919,3.932,4.737v6.646h-2.023v-6.416c0-1.793-0.667-3.289-2.575-3.289c-1.334,0-2.369,0.943-2.713,2.07    c-0.092,0.253-0.138,0.598-0.138,0.943v6.691h-2.023V192.818z"/>
		<path d="M204.477,195.739c0.046,2.736,1.794,3.863,3.817,3.863c1.449,0,2.322-0.253,3.082-0.575l0.345,1.449    c-0.713,0.322-1.932,0.69-3.702,0.69c-3.426,0-5.473-2.253-5.473-5.611s1.978-6.001,5.22-6.001c3.633,0,4.599,3.196,4.599,5.243    c0,0.414-0.046,0.736-0.069,0.943H204.477z M210.41,194.29c0.023-1.288-0.529-3.288-2.806-3.288c-2.046,0-2.943,1.885-3.104,3.288    H210.41z"/>
		<path d="M215.609,189.806l2.438,6.576c0.253,0.736,0.529,1.61,0.713,2.277h0.046c0.207-0.667,0.437-1.518,0.713-2.323l2.208-6.53    h2.139l-3.036,7.933c-1.449,3.817-2.438,5.771-3.817,6.967c-0.989,0.874-1.978,1.219-2.484,1.311l-0.506-1.702    c0.506-0.161,1.173-0.483,1.771-0.989c0.552-0.437,1.242-1.219,1.702-2.253c0.092-0.207,0.161-0.368,0.161-0.483    c0-0.115-0.046-0.276-0.138-0.529l-4.116-10.255H215.609z"/>
		<path d="M43.525,214.21v3.196h2.897v1.541h-2.897v6.001c0,1.38,0.391,2.162,1.518,2.162c0.529,0,0.92-0.069,1.173-0.138    l0.092,1.518c-0.391,0.161-1.012,0.276-1.793,0.276c-0.943,0-1.702-0.299-2.185-0.851c-0.575-0.598-0.782-1.586-0.782-2.897    v-6.071h-1.725v-1.541h1.725v-2.667L43.525,214.21z"/>
		<path d="M48.7,212.209h2.023v6.945h0.046c0.322-0.575,0.828-1.081,1.449-1.426c0.598-0.345,1.311-0.575,2.07-0.575    c1.495,0,3.886,0.919,3.886,4.76v6.623H56.15v-6.393c0-1.793-0.667-3.312-2.575-3.312c-1.311,0-2.346,0.92-2.713,2.024    c-0.115,0.276-0.138,0.575-0.138,0.966v6.714H48.7V212.209z"/>
		<path d="M63.718,214.279c0.023,0.69-0.483,1.242-1.288,1.242c-0.713,0-1.219-0.552-1.219-1.242c0-0.713,0.529-1.265,1.265-1.265    C63.235,213.014,63.718,213.566,63.718,214.279z M61.465,228.536v-11.129h2.023v11.129H61.465z"/>
		<path d="M66.571,226.466c0.598,0.391,1.655,0.805,2.667,0.805c1.472,0,2.161-0.736,2.161-1.656c0-0.966-0.575-1.495-2.069-2.046    c-2-0.713-2.943-1.817-2.943-3.15c0-1.793,1.449-3.265,3.84-3.265c1.126,0,2.115,0.322,2.736,0.689l-0.506,1.472    c-0.437-0.276-1.242-0.644-2.277-0.644c-1.195,0-1.862,0.69-1.862,1.518c0,0.92,0.667,1.333,2.115,1.886    c1.932,0.736,2.92,1.702,2.92,3.357c0,1.955-1.518,3.334-4.162,3.334c-1.219,0-2.345-0.299-3.127-0.759L66.571,226.466z"/>
		<path d="M86.993,228.536l-0.161-1.403h-0.069c-0.621,0.874-1.816,1.656-3.403,1.656c-2.253,0-3.403-1.586-3.403-3.196    c0-2.69,2.392-4.162,6.692-4.139v-0.23c0-0.92-0.253-2.575-2.53-2.575c-1.035,0-2.115,0.322-2.897,0.828l-0.459-1.333    c0.919-0.598,2.253-0.989,3.656-0.989c3.403,0,4.231,2.322,4.231,4.553v4.162c0,0.966,0.046,1.909,0.184,2.667H86.993z     M86.694,222.856c-2.208-0.046-4.714,0.345-4.714,2.506c0,1.311,0.874,1.932,1.908,1.932c1.449,0,2.369-0.92,2.69-1.863    c0.069-0.207,0.115-0.437,0.115-0.644V222.856z"/>
		<path d="M92.124,228.536v-9.589H90.56v-1.541h1.564v-0.529c0-1.563,0.345-2.989,1.288-3.886c0.759-0.736,1.771-1.035,2.713-1.035    c0.713,0,1.333,0.161,1.725,0.322l-0.276,1.563c-0.299-0.138-0.713-0.253-1.288-0.253c-1.725,0-2.162,1.518-2.162,3.219v0.598    h2.69v1.541h-2.69v9.589H92.124z"/>
		<path d="M101.322,214.21v3.196h2.897v1.541h-2.897v6.001c0,1.38,0.391,2.162,1.518,2.162c0.529,0,0.92-0.069,1.173-0.138    l0.092,1.518c-0.391,0.161-1.012,0.276-1.793,0.276c-0.943,0-1.702-0.299-2.185-0.851c-0.575-0.598-0.782-1.586-0.782-2.897    v-6.071H97.62v-1.541h1.725v-2.667L101.322,214.21z"/>
		<path d="M107.486,223.339c0.046,2.736,1.794,3.863,3.817,3.863c1.449,0,2.322-0.253,3.082-0.575l0.345,1.449    c-0.713,0.322-1.932,0.69-3.702,0.69c-3.426,0-5.473-2.253-5.473-5.611s1.978-6.001,5.22-6.001c3.633,0,4.599,3.196,4.599,5.243    c0,0.414-0.046,0.736-0.069,0.943H107.486z M113.419,221.89c0.023-1.288-0.529-3.289-2.806-3.289    c-2.046,0-2.943,1.886-3.104,3.289H113.419z"/>
		<path d="M117.883,220.878c0-1.311-0.023-2.438-0.092-3.472h1.771l0.069,2.185h0.092c0.506-1.495,1.725-2.438,3.082-2.438    c0.23,0,0.391,0.023,0.575,0.069v1.909c-0.207-0.046-0.414-0.069-0.69-0.069c-1.425,0-2.438,1.081-2.713,2.599    c-0.046,0.276-0.092,0.598-0.092,0.943v5.933h-2V220.878z"/>
		<path d="M125.496,220.418c0-1.15-0.023-2.093-0.092-3.012h1.794l0.115,1.839h0.046c0.552-1.058,1.84-2.092,3.679-2.092    c1.541,0,3.932,0.919,3.932,4.737v6.646h-2.023v-6.416c0-1.793-0.667-3.289-2.575-3.289c-1.334,0-2.369,0.943-2.713,2.07    c-0.092,0.253-0.138,0.598-0.138,0.943v6.691h-2.023V220.418z"/>
		<path d="M148.332,222.879c0,4.116-2.852,5.91-5.542,5.91c-3.012,0-5.334-2.208-5.334-5.726c0-3.725,2.437-5.91,5.519-5.91    C146.17,217.153,148.332,219.476,148.332,222.879z M139.502,222.994c0,2.438,1.403,4.277,3.38,4.277    c1.932,0,3.38-1.817,3.38-4.323c0-1.885-0.942-4.277-3.334-4.277S139.502,220.878,139.502,222.994z"/>
		<path d="M160.959,222.879c0,4.116-2.852,5.91-5.542,5.91c-3.012,0-5.334-2.208-5.334-5.726c0-3.725,2.437-5.91,5.519-5.91    C158.797,217.153,160.959,219.476,160.959,222.879z M152.129,222.994c0,2.438,1.403,4.277,3.38,4.277    c1.932,0,3.38-1.817,3.38-4.323c0-1.885-0.942-4.277-3.334-4.277S152.129,220.878,152.129,222.994z"/>
		<path d="M163.514,220.418c0-1.15-0.023-2.093-0.092-3.012h1.794l0.115,1.839h0.046c0.552-1.058,1.84-2.092,3.679-2.092    c1.541,0,3.932,0.919,3.932,4.737v6.646h-2.023v-6.416c0-1.793-0.667-3.289-2.575-3.289c-1.334,0-2.369,0.943-2.713,2.07    c-0.092,0.253-0.138,0.598-0.138,0.943v6.691h-2.023V220.418z"/>
		<path d="M41.892,245.006l1.472,5.657c0.322,1.241,0.621,2.392,0.828,3.541h0.069c0.253-1.127,0.621-2.322,0.989-3.518l1.816-5.68    h1.702l1.725,5.564c0.414,1.333,0.736,2.506,0.989,3.633h0.069c0.184-1.127,0.483-2.3,0.851-3.61l1.586-5.587h2.001l-3.587,11.129    h-1.84l-1.701-5.312c-0.391-1.242-0.713-2.345-0.989-3.656h-0.046c-0.276,1.334-0.621,2.484-1.012,3.679l-1.793,5.289h-1.84    l-3.357-11.129H41.892z"/>
		<path d="M58.015,239.809h2.023v6.945h0.046c0.322-0.575,0.828-1.081,1.449-1.426c0.598-0.345,1.311-0.575,2.07-0.575    c1.495,0,3.886,0.919,3.886,4.76v6.623h-2.023v-6.393c0-1.793-0.667-3.312-2.575-3.312c-1.311,0-2.346,0.92-2.713,2.024    c-0.115,0.276-0.138,0.575-0.138,0.966v6.714h-2.023V239.809z"/>
		<path d="M71.907,250.939c0.046,2.736,1.794,3.863,3.817,3.863c1.449,0,2.322-0.253,3.082-0.574l0.345,1.448    c-0.713,0.322-1.932,0.689-3.702,0.689c-3.426,0-5.473-2.253-5.473-5.61s1.978-6.001,5.22-6.001c3.633,0,4.599,3.196,4.599,5.243    c0,0.414-0.046,0.736-0.069,0.943H71.907z M77.84,249.49c0.023-1.288-0.529-3.288-2.806-3.288c-2.046,0-2.943,1.885-3.104,3.288    H77.84z"/>
		<path d="M82.303,248.019c0-1.15-0.023-2.093-0.092-3.012h1.794l0.115,1.839h0.046c0.552-1.058,1.84-2.092,3.679-2.092    c1.541,0,3.932,0.919,3.932,4.737v6.646h-2.023v-6.416c0-1.793-0.667-3.289-2.575-3.289c-1.334,0-2.369,0.943-2.713,2.07    c-0.092,0.253-0.138,0.598-0.138,0.943v6.691h-2.023V248.019z"/>
		<path d="M102.013,240.637v15.499h-2v-15.499H102.013z"/>
		<path d="M110.041,254.066c0.598,0.391,1.655,0.805,2.667,0.805c1.472,0,2.161-0.736,2.161-1.655c0-0.966-0.575-1.495-2.069-2.047    c-2-0.713-2.943-1.817-2.943-3.15c0-1.793,1.449-3.265,3.84-3.265c1.126,0,2.115,0.322,2.736,0.689l-0.506,1.472    c-0.437-0.276-1.242-0.644-2.277-0.644c-1.195,0-1.862,0.69-1.862,1.518c0,0.92,0.667,1.333,2.115,1.886    c1.932,0.736,2.92,1.702,2.92,3.357c0,1.955-1.518,3.334-4.162,3.334c-1.219,0-2.345-0.299-3.127-0.759L110.041,254.066z"/>
		<path d="M120.551,250.939c0.046,2.736,1.794,3.863,3.817,3.863c1.449,0,2.322-0.253,3.082-0.574l0.345,1.448    c-0.713,0.322-1.932,0.689-3.702,0.689c-3.426,0-5.473-2.253-5.473-5.61s1.978-6.001,5.22-6.001c3.633,0,4.599,3.196,4.599,5.243    c0,0.414-0.046,0.736-0.069,0.943H120.551z M126.484,249.49c0.023-1.288-0.529-3.288-2.806-3.288    c-2.046,0-2.943,1.885-3.104,3.288H126.484z"/>
		<path d="M132.073,250.939c0.046,2.736,1.794,3.863,3.817,3.863c1.449,0,2.322-0.253,3.082-0.574l0.345,1.448    c-0.713,0.322-1.932,0.689-3.702,0.689c-3.426,0-5.473-2.253-5.473-5.61s1.978-6.001,5.22-6.001c3.633,0,4.599,3.196,4.599,5.243    c0,0.414-0.046,0.736-0.069,0.943H132.073z M138.006,249.49c0.023-1.288-0.529-3.288-2.806-3.288    c-2.046,0-2.943,1.885-3.104,3.288H138.006z"/>
		<path d="M148.082,245.006l2.438,6.577c0.253,0.735,0.529,1.609,0.713,2.276h0.046c0.207-0.667,0.437-1.518,0.713-2.322    l2.208-6.531h2.139l-3.036,7.933c-1.449,3.817-2.438,5.771-3.817,6.968c-0.989,0.873-1.978,1.219-2.484,1.311l-0.506-1.702    c0.506-0.16,1.173-0.482,1.771-0.988c0.552-0.438,1.242-1.219,1.702-2.254c0.092-0.207,0.161-0.367,0.161-0.482    s-0.046-0.276-0.138-0.529l-4.116-10.255H148.082z"/>
		<path d="M168.02,250.479c0,4.116-2.852,5.91-5.542,5.91c-3.012,0-5.334-2.207-5.334-5.726c0-3.726,2.437-5.91,5.519-5.91    C165.859,244.753,168.02,247.076,168.02,250.479z M159.19,250.594c0,2.438,1.403,4.277,3.38,4.277c1.932,0,3.38-1.816,3.38-4.323    c0-1.885-0.942-4.277-3.334-4.277S159.19,248.479,159.19,250.594z"/>
		<path d="M179.888,253.101c0,1.149,0.023,2.161,0.092,3.035h-1.793l-0.115-1.816h-0.046c-0.529,0.896-1.702,2.069-3.679,2.069    c-1.748,0-3.84-0.966-3.84-4.875v-6.507h2.023v6.163c0,2.115,0.644,3.541,2.483,3.541c1.356,0,2.299-0.942,2.667-1.84    c0.115-0.299,0.184-0.667,0.184-1.034v-6.83h2.023V253.101z"/>
		<path d="M184.812,251.744l-0.046-0.598c-0.138-1.242,0.276-2.599,1.426-3.979c1.035-1.219,1.609-2.115,1.609-3.15    c0-1.173-0.736-1.955-2.185-1.978c-0.828,0-1.748,0.276-2.322,0.712l-0.552-1.448c0.759-0.552,2.069-0.92,3.288-0.92    c2.645,0,3.84,1.632,3.84,3.38c0,1.563-0.874,2.69-1.978,4.001c-1.012,1.196-1.38,2.208-1.311,3.38l0.023,0.598H184.812z     M184.306,254.963c0-0.851,0.575-1.448,1.38-1.448s1.356,0.598,1.356,1.448c0,0.805-0.529,1.426-1.379,1.426    C184.857,256.389,184.306,255.768,184.306,254.963z"/>
		<path d="M44.1,269.938h-4.714v-1.702H50.86v1.702h-4.737v13.797H44.1V269.938z"/>
		<path d="M54.496,269.479c0.023,0.689-0.483,1.241-1.288,1.241c-0.713,0-1.219-0.552-1.219-1.241c0-0.713,0.529-1.265,1.265-1.265    C54.013,268.214,54.496,268.766,54.496,269.479z M52.242,283.735v-11.13h2.023v11.13H52.242z"/>
		<path d="M57.624,275.618c0-1.149-0.023-2.093-0.092-3.013h1.771l0.092,1.794h0.069c0.621-1.058,1.656-2.047,3.496-2.047    c1.518,0,2.667,0.92,3.15,2.23h0.046c0.345-0.62,0.782-1.104,1.242-1.448c0.667-0.506,1.402-0.782,2.46-0.782    c1.472,0,3.656,0.966,3.656,4.829v6.554h-1.978v-6.301c0-2.139-0.782-3.426-2.415-3.426c-1.15,0-2.047,0.851-2.392,1.839    c-0.092,0.276-0.161,0.645-0.161,1.012v6.876h-1.978v-6.669c0-1.771-0.782-3.058-2.322-3.058c-1.265,0-2.185,1.012-2.506,2.023    c-0.115,0.299-0.161,0.644-0.161,0.988v6.715h-1.978V275.618z"/>
	</g>
</g>
</svg>