<?xml version="1.0" encoding="UTF-8"?><svg xmlns:inkscape="http://www.inkscape.org/namespaces/inkscape" xmlns:sodipodi="http://sodipodi.sourceforge.net/DTD/sodipodi-0.dtd" xmlns="http://www.w3.org/2000/svg" xmlns:svg="http://www.w3.org/2000/svg" xmlns:rdf="http://www.w3.org/1999/02/22-rdf-syntax-ns#" xmlns:cc="http://creativecommons.org/ns#" xmlns:dc="http://purl.org/dc/elements/1.1/" id="svg2" xml:space="preserve" enable-background="new 0 0 400 281.667" viewBox="0 0 380.95599 210" height="210" width="380.95599" y="0px" x="0px" version="1.1" sodipodi:docname="NKR100014EVO.svg" inkscape:version="1.2.2 (732a01da63, 2022-12-09)"><sodipodi:namedview id="namedview3523" pagecolor="#ffffff" bordercolor="#666666" borderopacity="1.0" inkscape:showpageshadow="2" inkscape:pageopacity="0.0" inkscape:pagecheckerboard="true" inkscape:deskcolor="#d1d1d1" showgrid="false" inkscape:zoom="3.1778223" inkscape:cx="255.52089" inkscape:cy="118.47736" inkscape:window-width="2560" inkscape:window-height="1361" inkscape:window-x="-9" inkscape:window-y="-9" inkscape:window-maximized="1" inkscape:current-layer="svg2"/><metadata id="metadata173"><rdf:RDF><cc:Work rdf:about=""><dc:format>image/svg+xml</dc:format><dc:type rdf:resource="http://purl.org/dc/dcmitype/StillImage"/></cc:Work></rdf:RDF></metadata><defs id="defs171"/><g transform="translate(-9.5439997,-3.1986933)" id="Artwork"><rect style="fill:#ffffff;fill-opacity:1;stroke:#000000;stroke-width:4;stroke-miterlimit:10" id="rect11" height="191.86028" width="376.95599" stroke-miterlimit="10" y="12.268556" x="11.544"/><g id="g13" transform="translate(1.9819965,-5.96149)"><path id="path15" d="m 39.252,46.558 h -9.46 v 6.064 H 37.7 c 0.733,0 1.28,0.165 1.642,0.493 0.361,0.329 0.542,0.768 0.542,1.318 0,0.55 -0.183,0.986 -0.55,1.31 -0.367,0.323 -0.911,0.485 -1.633,0.485 h -7.908 v 7.811 c 0,0.992 -0.224,1.728 -0.671,2.207 -0.447,0.479 -1.021,0.72 -1.722,0.72 -0.711,0 -1.291,-0.243 -1.738,-0.728 -0.448,-0.485 -0.671,-1.218 -0.671,-2.199 v -18.24 c 0,-0.69 0.103,-1.253 0.307,-1.69 0.205,-0.437 0.526,-0.754 0.962,-0.954 0.437,-0.199 0.995,-0.299 1.674,-0.299 h 11.32 c 0.765,0 1.334,0.17 1.706,0.51 0.372,0.339 0.558,0.784 0.558,1.334 0,0.561 -0.186,1.011 -0.558,1.35 -0.374,0.339 -0.942,0.508 -1.708,0.508 z"/><path id="path17" d="m 60.048,57.991 c 0,1.315 -0.205,2.528 -0.615,3.639 -0.41,1.111 -1.002,2.064 -1.779,2.862 -0.776,0.798 -1.704,1.41 -2.781,1.835 -1.078,0.426 -2.291,0.639 -3.639,0.639 -1.337,0 -2.539,-0.216 -3.606,-0.647 -1.067,-0.431 -1.992,-1.048 -2.773,-1.852 -0.782,-0.803 -1.375,-1.752 -1.779,-2.846 -0.404,-1.094 -0.606,-2.304 -0.606,-3.63 0,-1.336 0.205,-2.56 0.615,-3.671 0.409,-1.11 0.997,-2.059 1.762,-2.846 0.766,-0.787 1.692,-1.393 2.782,-1.819 1.089,-0.426 2.291,-0.639 3.606,-0.639 1.337,0 2.55,0.216 3.639,0.647 1.089,0.432 2.021,1.046 2.797,1.844 0.776,0.798 1.367,1.747 1.771,2.846 0.404,1.099 0.606,2.312 0.606,3.638 z m -4.431,0 c 0,-1.8 -0.396,-3.202 -1.188,-4.205 -0.792,-1.002 -1.857,-1.504 -3.194,-1.504 -0.862,0 -1.623,0.224 -2.28,0.671 -0.658,0.447 -1.165,1.107 -1.521,1.981 -0.355,0.873 -0.534,1.892 -0.534,3.056 0,1.154 0.175,2.162 0.526,3.024 0.35,0.863 0.852,1.523 1.504,1.981 0.652,0.458 1.42,0.688 2.304,0.688 1.337,0 2.401,-0.504 3.194,-1.512 0.793,-1.007 1.189,-2.401 1.189,-4.18 z"/><path id="path19" d="m 67.908,60.595 v 3.687 c 0,0.895 -0.21,1.566 -0.631,2.014 -0.42,0.447 -0.954,0.671 -1.601,0.671 -0.636,0 -1.159,-0.227 -1.568,-0.679 -0.409,-0.452 -0.615,-1.121 -0.615,-2.005 v -12.29 c 0,-1.983 0.717,-2.976 2.151,-2.976 0.733,0 1.261,0.232 1.585,0.696 0.323,0.463 0.501,1.148 0.534,2.054 0.528,-0.906 1.07,-1.59 1.625,-2.054 0.555,-0.464 1.296,-0.696 2.224,-0.696 0.928,0 1.827,0.232 2.701,0.696 0.873,0.463 1.31,1.078 1.31,1.843 0,0.539 -0.186,0.984 -0.558,1.334 -0.372,0.351 -0.774,0.526 -1.205,0.526 -0.162,0 -0.552,-0.1 -1.172,-0.299 -0.62,-0.199 -1.167,-0.299 -1.641,-0.299 -0.647,0 -1.175,0.17 -1.585,0.51 -0.41,0.339 -0.728,0.843 -0.954,1.512 -0.226,0.668 -0.383,1.463 -0.469,2.385 -0.088,0.92 -0.131,2.044 -0.131,3.37 z"/><path id="path21" d="m 104.632,59.447 c 0,1.434 -0.37,2.722 -1.108,3.865 -0.738,1.143 -1.819,2.038 -3.242,2.685 -1.423,0.647 -3.11,0.97 -5.062,0.97 -2.339,0 -4.269,-0.442 -5.789,-1.326 -1.079,-0.636 -1.955,-1.485 -2.628,-2.547 -0.674,-1.062 -1.011,-2.094 -1.011,-3.097 0,-0.582 0.202,-1.081 0.606,-1.496 0.404,-0.415 0.919,-0.623 1.544,-0.623 0.506,0 0.935,0.162 1.286,0.485 0.35,0.323 0.649,0.803 0.897,1.439 0.302,0.755 0.628,1.386 0.978,1.892 0.351,0.507 0.844,0.925 1.48,1.253 0.636,0.329 1.471,0.493 2.506,0.493 1.423,0 2.579,-0.332 3.469,-0.995 0.889,-0.663 1.334,-1.49 1.334,-2.482 0,-0.787 -0.24,-1.426 -0.72,-1.917 -0.479,-0.49 -1.1,-0.865 -1.859,-1.124 -0.76,-0.259 -1.776,-0.534 -3.048,-0.825 -1.704,-0.398 -3.129,-0.865 -4.277,-1.398 -1.148,-0.534 -2.059,-1.262 -2.733,-2.183 -0.674,-0.922 -1.011,-2.067 -1.011,-3.437 0,-1.304 0.356,-2.463 1.067,-3.477 0.711,-1.013 1.741,-1.792 3.089,-2.336 1.347,-0.544 2.932,-0.817 4.754,-0.817 1.455,0 2.714,0.181 3.776,0.542 1.062,0.361 1.943,0.841 2.644,1.439 0.7,0.599 1.212,1.227 1.536,1.884 0.323,0.658 0.485,1.299 0.485,1.924 0,0.571 -0.202,1.086 -0.606,1.544 -0.404,0.458 -0.908,0.687 -1.512,0.687 -0.55,0 -0.968,-0.137 -1.253,-0.412 -0.285,-0.275 -0.596,-0.725 -0.93,-1.351 -0.431,-0.895 -0.949,-1.593 -1.553,-2.094 -0.604,-0.501 -1.574,-0.752 -2.911,-0.752 -1.24,0 -2.24,0.272 -3,0.817 -0.76,0.544 -1.14,1.199 -1.14,1.965 0,0.475 0.129,0.884 0.388,1.229 0.259,0.345 0.614,0.642 1.067,0.889 0.453,0.248 0.911,0.442 1.375,0.583 0.463,0.14 1.229,0.345 2.296,0.614 1.337,0.313 2.547,0.658 3.63,1.035 1.083,0.377 2.005,0.835 2.766,1.375 0.76,0.539 1.353,1.221 1.779,2.045 0.428,0.827 0.641,1.838 0.641,3.035 z"/><path id="path23" d="m 119.558,64.476 c -1.067,0.83 -2.1,1.453 -3.097,1.868 -0.997,0.415 -2.116,0.623 -3.355,0.623 -1.132,0 -2.126,-0.224 -2.983,-0.671 -0.857,-0.447 -1.518,-1.054 -1.981,-1.819 -0.464,-0.766 -0.695,-1.596 -0.695,-2.491 0,-1.207 0.382,-2.237 1.148,-3.088 0.766,-0.851 1.816,-1.423 3.153,-1.714 0.28,-0.064 0.976,-0.21 2.086,-0.437 1.11,-0.227 2.062,-0.434 2.854,-0.623 0.792,-0.188 1.652,-0.417 2.579,-0.688 -0.054,-1.164 -0.289,-2.019 -0.703,-2.563 -0.416,-0.544 -1.275,-0.816 -2.58,-0.816 -1.121,0 -1.965,0.156 -2.531,0.469 -0.566,0.313 -1.051,0.782 -1.455,1.407 -0.404,0.625 -0.69,1.038 -0.857,1.237 -0.167,0.2 -0.525,0.299 -1.075,0.299 -0.496,0 -0.925,-0.159 -1.286,-0.477 -0.361,-0.318 -0.542,-0.725 -0.542,-1.221 0,-0.776 0.275,-1.531 0.825,-2.264 0.55,-0.733 1.407,-1.337 2.571,-1.812 1.165,-0.474 2.614,-0.711 4.35,-0.711 1.94,0 3.466,0.229 4.577,0.688 1.11,0.458 1.895,1.183 2.353,2.175 0.458,0.992 0.687,2.307 0.687,3.946 0,1.035 -0.003,1.914 -0.008,2.636 -0.006,0.723 -0.014,1.526 -0.024,2.41 0,0.83 0.137,1.695 0.412,2.596 0.275,0.9 0.413,1.479 0.413,1.738 0,0.453 -0.213,0.865 -0.639,1.237 -0.426,0.372 -0.909,0.558 -1.447,0.558 -0.453,0 -0.9,-0.213 -1.342,-0.639 -0.443,-0.427 -0.912,-1.044 -1.408,-1.853 z m -0.291,-6.387 c -0.646,0.237 -1.587,0.488 -2.822,0.752 -1.235,0.264 -2.089,0.458 -2.563,0.582 -0.475,0.124 -0.927,0.367 -1.358,0.728 -0.431,0.361 -0.647,0.865 -0.647,1.512 0,0.668 0.253,1.237 0.76,1.706 0.506,0.469 1.169,0.704 1.989,0.704 0.874,0 1.679,-0.191 2.418,-0.574 0.738,-0.382 1.28,-0.876 1.625,-1.479 0.399,-0.668 0.598,-1.768 0.598,-3.299 z"/><path id="path25" d="M 128.081,64.282 V 45.135 c 0,-0.884 0.196,-1.552 0.59,-2.005 0.393,-0.453 0.924,-0.679 1.593,-0.679 0.668,0 1.207,0.224 1.617,0.671 0.409,0.447 0.614,1.119 0.614,2.013 v 19.146 c 0,0.895 -0.208,1.566 -0.623,2.014 -0.415,0.447 -0.952,0.671 -1.609,0.671 -0.647,0 -1.172,-0.232 -1.577,-0.695 -0.405,-0.463 -0.605,-1.126 -0.605,-1.989 z"/><path id="path27" d="m 149.377,59.075 h -8.635 c 0.01,1.002 0.212,1.887 0.606,2.652 0.393,0.766 0.916,1.342 1.568,1.73 0.652,0.388 1.372,0.583 2.159,0.583 0.528,0 1.011,-0.062 1.448,-0.186 0.437,-0.124 0.859,-0.318 1.269,-0.583 0.41,-0.264 0.787,-0.547 1.132,-0.849 0.345,-0.302 0.792,-0.712 1.342,-1.229 0.227,-0.194 0.55,-0.291 0.971,-0.291 0.453,0 0.819,0.124 1.1,0.372 0.28,0.248 0.42,0.599 0.42,1.051 0,0.399 -0.157,0.865 -0.469,1.399 -0.312,0.534 -0.784,1.046 -1.415,1.536 -0.63,0.491 -1.423,0.897 -2.377,1.221 -0.954,0.324 -2.051,0.485 -3.291,0.485 -2.835,0 -5.04,-0.809 -6.614,-2.426 -1.574,-1.617 -2.361,-3.811 -2.361,-6.582 0,-1.304 0.194,-2.515 0.582,-3.63 0.388,-1.115 0.954,-2.072 1.698,-2.871 0.744,-0.797 1.66,-1.409 2.75,-1.835 1.088,-0.426 2.296,-0.639 3.622,-0.639 1.725,0 3.205,0.364 4.439,1.092 1.234,0.728 2.159,1.668 2.773,2.822 0.614,1.154 0.922,2.329 0.922,3.525 0,1.11 -0.318,1.83 -0.954,2.159 -0.636,0.33 -1.531,0.494 -2.685,0.494 z m -8.635,-2.506 h 8.004 c -0.108,-1.509 -0.515,-2.639 -1.221,-3.388 -0.706,-0.749 -1.636,-1.124 -2.79,-1.124 -1.1,0 -2.003,0.38 -2.708,1.14 -0.706,0.76 -1.134,1.884 -1.285,3.372 z"/></g><g id="g29" transform="translate(3.9609965,-7.7603288)"><path id="path31" d="M 40.048,97.678 36.576,84.802 33.06,97.678 c -0.273,0.977 -0.491,1.677 -0.652,2.102 -0.161,0.425 -0.442,0.806 -0.842,1.143 -0.4,0.337 -0.933,0.505 -1.597,0.505 -0.537,0 -0.979,-0.1 -1.326,-0.3 -0.347,-0.2 -0.627,-0.483 -0.842,-0.85 -0.215,-0.367 -0.391,-0.801 -0.527,-1.304 -0.136,-0.503 -0.259,-0.969 -0.366,-1.399 L 23.334,83.117 c -0.215,-0.84 -0.322,-1.479 -0.322,-1.919 0,-0.557 0.195,-1.025 0.586,-1.406 0.391,-0.381 0.874,-0.571 1.45,-0.571 0.791,0 1.323,0.254 1.597,0.762 0.274,0.508 0.513,1.245 0.718,2.212 l 2.812,12.539 3.149,-11.733 c 0.234,-0.898 0.444,-1.582 0.63,-2.051 0.186,-0.469 0.488,-0.874 0.908,-1.216 0.42,-0.342 0.991,-0.513 1.714,-0.513 0.732,0 1.301,0.178 1.707,0.535 0.406,0.357 0.686,0.745 0.842,1.165 0.156,0.42 0.366,1.113 0.63,2.08 l 3.179,11.733 2.812,-12.539 c 0.137,-0.654 0.266,-1.167 0.388,-1.538 0.122,-0.371 0.332,-0.703 0.63,-0.996 0.298,-0.293 0.73,-0.439 1.296,-0.439 0.566,0 1.047,0.188 1.443,0.564 0.396,0.376 0.593,0.847 0.593,1.414 0,0.4 -0.107,1.04 -0.322,1.919 L 46.2,97.576 c -0.244,0.977 -0.447,1.692 -0.608,2.146 -0.161,0.454 -0.435,0.852 -0.82,1.194 -0.385,0.342 -0.93,0.513 -1.633,0.513 -0.664,0 -1.196,-0.166 -1.597,-0.498 -0.401,-0.332 -0.679,-0.706 -0.835,-1.121 -0.156,-0.415 -0.376,-1.126 -0.659,-2.132 z"/><path id="path33" d="m 66.928,93.299 c 0,1.191 -0.186,2.29 -0.557,3.296 -0.371,1.006 -0.908,1.87 -1.611,2.593 -0.703,0.723 -1.543,1.277 -2.52,1.663 -0.977,0.386 -2.075,0.579 -3.296,0.579 -1.211,0 -2.3,-0.195 -3.267,-0.586 -0.967,-0.391 -1.804,-0.95 -2.512,-1.677 C 52.457,98.44 51.92,97.58 51.554,96.589 51.188,95.598 51.005,94.502 51.005,93.3 c 0,-1.211 0.186,-2.319 0.557,-3.325 0.371,-1.006 0.903,-1.865 1.597,-2.578 0.694,-0.713 1.533,-1.262 2.52,-1.648 0.987,-0.386 2.075,-0.579 3.267,-0.579 1.211,0 2.31,0.195 3.296,0.586 0.986,0.391 1.831,0.947 2.534,1.67 0.703,0.723 1.238,1.582 1.604,2.578 0.366,0.996 0.548,2.093 0.548,3.295 z m -4.014,0 c 0,-1.631 -0.359,-2.9 -1.077,-3.809 -0.718,-0.909 -1.682,-1.362 -2.893,-1.362 -0.781,0 -1.47,0.203 -2.065,0.608 -0.595,0.405 -1.055,1.003 -1.377,1.794 -0.322,0.791 -0.483,1.714 -0.483,2.769 0,1.045 0.159,1.958 0.476,2.739 0.317,0.781 0.771,1.379 1.362,1.794 0.591,0.415 1.287,0.623 2.087,0.623 1.211,0 2.175,-0.457 2.893,-1.37 0.718,-0.913 1.077,-2.175 1.077,-3.786 z"/><path id="path35" d="m 83.378,93.591 v 5.317 c 0,0.84 -0.19,1.47 -0.571,1.89 -0.381,0.42 -0.884,0.63 -1.509,0.63 -0.605,0 -1.096,-0.21 -1.472,-0.63 -0.376,-0.42 -0.564,-1.05 -0.564,-1.89 v -6.372 c 0,-1.006 -0.034,-1.787 -0.103,-2.344 -0.069,-0.557 -0.254,-1.013 -0.557,-1.37 -0.303,-0.357 -0.781,-0.535 -1.436,-0.535 -1.309,0 -2.17,0.449 -2.585,1.348 -0.415,0.899 -0.623,2.188 -0.623,3.867 v 5.405 c 0,0.83 -0.188,1.458 -0.564,1.882 -0.376,0.424 -0.872,0.637 -1.487,0.637 -0.605,0 -1.101,-0.212 -1.487,-0.637 -0.386,-0.425 -0.579,-1.052 -0.579,-1.882 v -11.44 c 0,-0.752 0.173,-1.323 0.52,-1.714 0.347,-0.391 0.803,-0.586 1.37,-0.586 0.547,0 1.003,0.183 1.37,0.549 0.367,0.366 0.549,0.872 0.549,1.516 v 0.381 c 0.693,-0.83 1.436,-1.44 2.227,-1.831 0.791,-0.391 1.67,-0.586 2.637,-0.586 1.006,0 1.87,0.2 2.593,0.601 0.723,0.401 1.318,1.006 1.787,1.816 0.674,-0.82 1.396,-1.428 2.168,-1.824 0.772,-0.396 1.626,-0.593 2.563,-0.593 1.094,0 2.036,0.215 2.827,0.645 0.791,0.43 1.382,1.045 1.772,1.846 0.342,0.723 0.513,1.86 0.513,3.413 v 7.808 c 0,0.84 -0.19,1.47 -0.571,1.89 -0.381,0.42 -0.884,0.63 -1.509,0.63 -0.605,0 -1.101,-0.212 -1.487,-0.637 -0.386,-0.425 -0.579,-1.052 -0.579,-1.882 v -6.724 c 0,-0.859 -0.037,-1.548 -0.11,-2.065 -0.073,-0.517 -0.271,-0.952 -0.593,-1.304 -0.322,-0.352 -0.811,-0.527 -1.465,-0.527 -0.527,0 -1.028,0.156 -1.501,0.469 -0.473,0.313 -0.842,0.732 -1.106,1.26 -0.292,0.673 -0.438,1.864 -0.438,3.573 z"/><path id="path37" d="M 107.782,94.28 H 99.96 c 0.01,0.908 0.193,1.709 0.549,2.402 0.356,0.693 0.83,1.216 1.421,1.567 0.591,0.351 1.243,0.527 1.956,0.527 0.479,0 0.916,-0.056 1.311,-0.168 0.395,-0.112 0.779,-0.288 1.15,-0.527 0.371,-0.239 0.713,-0.496 1.025,-0.769 0.312,-0.273 0.718,-0.645 1.216,-1.113 0.205,-0.176 0.498,-0.264 0.879,-0.264 0.41,0 0.742,0.112 0.996,0.337 0.254,0.225 0.381,0.542 0.381,0.952 0,0.361 -0.142,0.784 -0.425,1.267 -0.283,0.483 -0.71,0.947 -1.282,1.392 -0.572,0.445 -1.289,0.813 -2.153,1.106 -0.864,0.293 -1.858,0.439 -2.981,0.439 -2.568,0 -4.565,-0.732 -5.991,-2.197 -1.426,-1.465 -2.139,-3.452 -2.139,-5.962 0,-1.182 0.176,-2.278 0.527,-3.289 0.351,-1.011 0.864,-1.877 1.538,-2.6 0.674,-0.723 1.504,-1.277 2.49,-1.663 0.986,-0.386 2.08,-0.579 3.281,-0.579 1.562,0 2.903,0.33 4.021,0.989 1.118,0.659 1.956,1.511 2.512,2.556 0.556,1.045 0.835,2.109 0.835,3.193 0,1.006 -0.288,1.658 -0.864,1.956 -0.576,0.298 -1.386,0.448 -2.431,0.448 z M 99.96,92.009 h 7.251 c -0.098,-1.367 -0.466,-2.39 -1.106,-3.069 -0.64,-0.679 -1.482,-1.018 -2.527,-1.018 -0.996,0 -1.814,0.344 -2.454,1.033 -0.64,0.689 -1.027,1.707 -1.164,3.054 z"/><path id="path39" d="m 118.08,87.381 v 0.483 c 0.703,-0.928 1.472,-1.609 2.307,-2.043 0.835,-0.434 1.794,-0.652 2.878,-0.652 1.055,0 1.997,0.229 2.827,0.688 0.83,0.459 1.45,1.108 1.86,1.948 0.264,0.488 0.435,1.016 0.513,1.582 0.078,0.566 0.117,1.289 0.117,2.168 v 7.441 c 0,0.801 -0.183,1.406 -0.549,1.816 -0.366,0.41 -0.842,0.615 -1.428,0.615 -0.596,0 -1.079,-0.21 -1.45,-0.63 -0.371,-0.42 -0.557,-1.021 -0.557,-1.802 V 92.33 c 0,-1.318 -0.183,-2.327 -0.549,-3.025 -0.366,-0.698 -1.096,-1.047 -2.19,-1.047 -0.713,0 -1.362,0.212 -1.948,0.637 -0.586,0.425 -1.016,1.008 -1.289,1.75 -0.195,0.596 -0.293,1.709 -0.293,3.34 v 5.01 c 0,0.811 -0.188,1.418 -0.564,1.824 -0.376,0.406 -0.862,0.608 -1.458,0.608 -0.576,0 -1.05,-0.21 -1.421,-0.63 -0.371,-0.42 -0.557,-1.021 -0.557,-1.802 V 87.439 c 0,-0.762 0.166,-1.331 0.498,-1.707 0.332,-0.376 0.786,-0.564 1.362,-0.564 0.352,0 0.669,0.083 0.952,0.249 0.283,0.166 0.51,0.415 0.681,0.747 0.171,0.332 0.258,0.738 0.258,1.217 z"/><path id="path41" d="m 135.277,83.66 h -0.22 c -0.547,0 -1.042,-0.222 -1.487,-0.667 -0.445,-0.445 -0.667,-0.969 -0.667,-1.575 0,-0.625 0.222,-1.147 0.667,-1.567 0.445,-0.42 0.994,-0.63 1.648,-0.63 0.449,0 0.869,0.129 1.26,0.388 0.391,0.259 0.693,0.635 0.908,1.128 0.215,0.493 0.322,1.096 0.322,1.809 0,0.967 -0.205,1.873 -0.615,2.717 -0.41,0.844 -0.911,1.514 -1.501,2.007 -0.59,0.493 -1.125,0.74 -1.604,0.74 -0.303,0 -0.549,-0.095 -0.74,-0.286 -0.191,-0.191 -0.286,-0.422 -0.286,-0.696 0,-0.439 0.2,-0.762 0.601,-0.967 0.518,-0.303 0.923,-0.635 1.216,-0.996 0.293,-0.361 0.459,-0.829 0.498,-1.405 z"/><path id="path43" d="m 153.69,96.199 c 0,1.104 -0.269,2.048 -0.806,2.834 -0.537,0.786 -1.331,1.382 -2.38,1.787 -1.049,0.405 -2.327,0.608 -3.831,0.608 -1.436,0 -2.666,-0.22 -3.691,-0.659 -1.025,-0.439 -1.782,-0.989 -2.271,-1.648 -0.489,-0.659 -0.732,-1.321 -0.732,-1.985 0,-0.439 0.156,-0.815 0.469,-1.128 0.313,-0.313 0.708,-0.469 1.187,-0.469 0.42,0 0.742,0.103 0.967,0.308 0.225,0.205 0.439,0.493 0.645,0.864 0.41,0.713 0.901,1.245 1.472,1.597 0.571,0.352 1.35,0.527 2.336,0.527 0.801,0 1.458,-0.178 1.97,-0.535 0.512,-0.357 0.769,-0.764 0.769,-1.223 0,-0.703 -0.266,-1.216 -0.798,-1.538 -0.532,-0.322 -1.409,-0.63 -2.629,-0.923 -1.377,-0.342 -2.498,-0.701 -3.362,-1.077 -0.864,-0.376 -1.555,-0.872 -2.073,-1.487 -0.518,-0.615 -0.776,-1.372 -0.776,-2.271 0,-0.801 0.239,-1.558 0.718,-2.271 0.479,-0.713 1.184,-1.282 2.117,-1.707 0.933,-0.425 2.058,-0.637 3.376,-0.637 1.035,0 1.965,0.107 2.791,0.322 0.826,0.215 1.514,0.503 2.065,0.864 0.551,0.361 0.972,0.762 1.26,1.201 0.288,0.439 0.432,0.869 0.432,1.289 0,0.459 -0.154,0.835 -0.461,1.128 -0.307,0.293 -0.745,0.439 -1.311,0.439 -0.41,0 -0.759,-0.117 -1.047,-0.352 -0.288,-0.235 -0.618,-0.586 -0.989,-1.055 -0.303,-0.391 -0.659,-0.703 -1.069,-0.938 -0.41,-0.235 -0.967,-0.352 -1.67,-0.352 -0.723,0 -1.323,0.154 -1.802,0.461 -0.479,0.307 -0.718,0.691 -0.718,1.15 0,0.42 0.176,0.764 0.527,1.033 0.351,0.269 0.825,0.491 1.421,0.667 0.596,0.176 1.416,0.391 2.461,0.645 1.24,0.303 2.253,0.664 3.04,1.084 0.787,0.42 1.382,0.916 1.787,1.487 0.405,0.571 0.606,1.227 0.606,1.96 z"/><path id="path45" d="m 168.266,81.507 v 6.108 c 0.752,-0.781 1.519,-1.379 2.3,-1.794 0.781,-0.415 1.748,-0.623 2.9,-0.623 1.328,0 2.493,0.315 3.494,0.945 1.001,0.63 1.777,1.543 2.329,2.739 0.552,1.196 0.828,2.615 0.828,4.255 0,1.211 -0.154,2.322 -0.461,3.333 -0.307,1.011 -0.754,1.887 -1.34,2.629 -0.586,0.742 -1.296,1.316 -2.131,1.721 -0.835,0.405 -1.755,0.608 -2.761,0.608 -0.615,0 -1.194,-0.073 -1.736,-0.22 -0.542,-0.147 -1.003,-0.339 -1.384,-0.579 -0.381,-0.24 -0.706,-0.486 -0.974,-0.74 -0.268,-0.254 -0.623,-0.635 -1.062,-1.143 v 0.396 c 0,0.752 -0.181,1.321 -0.542,1.707 -0.361,0.386 -0.82,0.579 -1.377,0.579 -0.566,0 -1.018,-0.193 -1.355,-0.579 -0.337,-0.386 -0.505,-0.955 -0.505,-1.707 v -17.46 c 0,-0.811 0.164,-1.423 0.491,-1.838 0.327,-0.415 0.784,-0.623 1.37,-0.623 0.615,0 1.089,0.198 1.421,0.593 0.332,0.395 0.495,0.96 0.495,1.693 z m 0.19,11.879 c 0,1.592 0.364,2.815 1.091,3.669 0.727,0.854 1.682,1.282 2.864,1.282 1.006,0 1.873,-0.437 2.6,-1.311 0.727,-0.874 1.091,-2.126 1.091,-3.757 0,-1.055 -0.151,-1.963 -0.454,-2.725 -0.303,-0.762 -0.732,-1.35 -1.289,-1.765 -0.557,-0.415 -1.206,-0.623 -1.948,-0.623 -0.762,0 -1.44,0.208 -2.036,0.623 -0.596,0.415 -1.064,1.016 -1.406,1.802 -0.342,0.786 -0.513,1.721 -0.513,2.805 z"/><path id="path47" d="m 185.346,83.308 c -0.557,0 -1.033,-0.171 -1.428,-0.513 -0.395,-0.342 -0.593,-0.825 -0.593,-1.45 0,-0.566 0.203,-1.033 0.608,-1.399 0.405,-0.366 0.876,-0.549 1.414,-0.549 0.518,0 0.977,0.166 1.377,0.498 0.4,0.332 0.601,0.815 0.601,1.45 0,0.615 -0.195,1.096 -0.586,1.443 -0.391,0.347 -0.856,0.52 -1.393,0.52 z m 1.977,4.131 v 11.558 c 0,0.801 -0.19,1.406 -0.571,1.816 -0.381,0.41 -0.864,0.615 -1.45,0.615 -0.586,0 -1.062,-0.21 -1.428,-0.63 -0.366,-0.42 -0.549,-1.021 -0.549,-1.802 v -11.44 c 0,-0.791 0.183,-1.387 0.549,-1.787 0.366,-0.4 0.842,-0.601 1.428,-0.601 0.586,0 1.069,0.2 1.45,0.601 0.381,0.401 0.571,0.957 0.571,1.67 z"/><path id="path49" d="m 205.795,96.477 c 0,0.498 -0.149,1.03 -0.447,1.597 -0.298,0.567 -0.752,1.106 -1.361,1.619 -0.611,0.513 -1.38,0.925 -2.308,1.238 -0.928,0.313 -1.973,0.469 -3.135,0.469 -2.471,0 -4.399,-0.72 -5.786,-2.161 -1.387,-1.441 -2.08,-3.372 -2.08,-5.793 0,-1.641 0.317,-3.091 0.952,-4.351 0.635,-1.26 1.553,-2.234 2.754,-2.922 1.201,-0.688 2.637,-1.033 4.307,-1.033 1.035,0 1.985,0.151 2.849,0.454 0.865,0.303 1.598,0.693 2.197,1.172 0.602,0.479 1.06,0.989 1.377,1.531 0.317,0.542 0.477,1.047 0.477,1.516 0,0.479 -0.179,0.884 -0.535,1.216 -0.356,0.332 -0.788,0.498 -1.296,0.498 -0.332,0 -0.608,-0.085 -0.827,-0.256 -0.221,-0.171 -0.467,-0.447 -0.74,-0.828 -0.488,-0.742 -0.998,-1.299 -1.531,-1.67 -0.532,-0.371 -1.208,-0.557 -2.029,-0.557 -1.182,0 -2.134,0.461 -2.856,1.384 -0.722,0.923 -1.084,2.185 -1.084,3.787 0,0.752 0.093,1.443 0.278,2.073 0.185,0.63 0.454,1.167 0.806,1.611 0.352,0.444 0.776,0.781 1.274,1.011 0.498,0.23 1.045,0.344 1.641,0.344 0.801,0 1.487,-0.186 2.058,-0.557 0.572,-0.371 1.077,-0.938 1.516,-1.699 0.244,-0.449 0.508,-0.801 0.791,-1.055 0.283,-0.254 0.63,-0.381 1.04,-0.381 0.488,0 0.894,0.186 1.216,0.557 0.322,0.371 0.482,0.766 0.482,1.186 z"/><path id="path51" d="m 212.196,101.926 0.366,-0.894 -4.922,-12.393 c -0.303,-0.713 -0.454,-1.23 -0.454,-1.553 0,-0.342 0.088,-0.659 0.264,-0.952 0.176,-0.293 0.417,-0.527 0.726,-0.703 0.307,-0.176 0.627,-0.264 0.959,-0.264 0.576,0 1.011,0.183 1.304,0.549 0.293,0.366 0.552,0.891 0.776,1.575 l 3.384,9.844 3.208,-9.155 c 0.254,-0.742 0.483,-1.323 0.688,-1.743 0.205,-0.42 0.422,-0.703 0.651,-0.85 0.229,-0.147 0.555,-0.22 0.975,-0.22 0.303,0 0.594,0.081 0.871,0.242 0.279,0.161 0.493,0.378 0.645,0.652 0.152,0.274 0.228,0.562 0.228,0.864 -0.039,0.186 -0.103,0.449 -0.19,0.791 -0.087,0.342 -0.195,0.688 -0.322,1.04 l -5.215,13.652 c -0.449,1.201 -0.889,2.144 -1.318,2.827 -0.429,0.683 -0.999,1.208 -1.707,1.575 -0.708,0.367 -1.662,0.549 -2.863,0.549 -1.172,0 -2.051,-0.127 -2.637,-0.381 -0.586,-0.254 -0.879,-0.718 -0.879,-1.392 0,-0.459 0.139,-0.813 0.418,-1.062 0.277,-0.249 0.69,-0.374 1.237,-0.374 0.215,0 0.425,0.029 0.63,0.088 0.254,0.059 0.474,0.088 0.659,0.088 0.459,0 0.82,-0.068 1.084,-0.205 0.264,-0.137 0.5,-0.374 0.71,-0.71 0.21,-0.336 0.451,-0.83 0.724,-1.485 z"/><path id="path53" d="m 238.71,96.477 c 0,0.498 -0.149,1.03 -0.447,1.597 -0.298,0.567 -0.752,1.106 -1.361,1.619 -0.611,0.513 -1.38,0.925 -2.308,1.238 -0.928,0.313 -1.973,0.469 -3.135,0.469 -2.471,0 -4.399,-0.72 -5.786,-2.161 -1.387,-1.441 -2.08,-3.372 -2.08,-5.793 0,-1.641 0.317,-3.091 0.952,-4.351 0.635,-1.26 1.553,-2.234 2.754,-2.922 1.201,-0.688 2.637,-1.033 4.307,-1.033 1.035,0 1.985,0.151 2.849,0.454 0.865,0.303 1.598,0.693 2.197,1.172 0.602,0.479 1.06,0.989 1.377,1.531 0.317,0.542 0.477,1.047 0.477,1.516 0,0.479 -0.179,0.884 -0.535,1.216 -0.356,0.332 -0.788,0.498 -1.296,0.498 -0.332,0 -0.608,-0.085 -0.827,-0.256 -0.221,-0.171 -0.467,-0.447 -0.74,-0.828 -0.488,-0.742 -0.999,-1.299 -1.531,-1.67 -0.532,-0.371 -1.208,-0.557 -2.028,-0.557 -1.182,0 -2.134,0.461 -2.856,1.384 -0.722,0.923 -1.084,2.185 -1.084,3.787 0,0.752 0.093,1.443 0.278,2.073 0.185,0.63 0.454,1.167 0.806,1.611 0.352,0.444 0.776,0.781 1.274,1.011 0.498,0.23 1.045,0.344 1.641,0.344 0.801,0 1.487,-0.186 2.058,-0.557 0.572,-0.371 1.077,-0.938 1.517,-1.699 0.244,-0.449 0.508,-0.801 0.791,-1.055 0.283,-0.254 0.63,-0.381 1.04,-0.381 0.488,0 0.894,0.186 1.216,0.557 0.322,0.371 0.48,0.766 0.48,1.186 z"/><path id="path55" d="M 241.449,98.997 V 81.653 c 0,-0.801 0.178,-1.406 0.534,-1.816 0.356,-0.41 0.838,-0.615 1.443,-0.615 0.605,0 1.094,0.203 1.465,0.608 0.371,0.405 0.557,1.013 0.557,1.824 v 17.344 c 0,0.811 -0.188,1.418 -0.564,1.824 -0.376,0.406 -0.861,0.608 -1.457,0.608 -0.586,0 -1.062,-0.21 -1.428,-0.63 -0.367,-0.421 -0.55,-1.022 -0.55,-1.803 z"/><path id="path57" d="m 260.741,94.28 h -7.822 c 0.01,0.908 0.192,1.709 0.55,2.402 0.355,0.693 0.829,1.216 1.42,1.567 0.591,0.351 1.243,0.527 1.956,0.527 0.479,0 0.915,-0.056 1.312,-0.168 0.395,-0.112 0.778,-0.288 1.149,-0.527 0.371,-0.239 0.713,-0.496 1.025,-0.769 0.312,-0.273 0.718,-0.645 1.216,-1.113 0.205,-0.176 0.498,-0.264 0.879,-0.264 0.41,0 0.742,0.112 0.996,0.337 0.254,0.225 0.381,0.542 0.381,0.952 0,0.361 -0.142,0.784 -0.425,1.267 -0.283,0.483 -0.71,0.947 -1.282,1.392 -0.57,0.444 -1.289,0.813 -2.152,1.106 -0.865,0.293 -1.858,0.439 -2.981,0.439 -2.568,0 -4.565,-0.732 -5.991,-2.197 -1.426,-1.465 -2.139,-3.452 -2.139,-5.962 0,-1.182 0.176,-2.278 0.527,-3.289 0.351,-1.011 0.864,-1.877 1.538,-2.6 0.674,-0.723 1.504,-1.277 2.49,-1.663 0.986,-0.386 2.08,-0.579 3.281,-0.579 1.562,0 2.902,0.33 4.021,0.989 1.119,0.659 1.956,1.511 2.513,2.556 0.557,1.045 0.835,2.109 0.835,3.193 0,1.006 -0.288,1.658 -0.864,1.956 -0.576,0.298 -1.388,0.448 -2.433,0.448 z m -7.822,-2.271 h 7.251 c -0.098,-1.367 -0.467,-2.39 -1.105,-3.069 -0.641,-0.679 -1.482,-1.018 -2.527,-1.018 -0.996,0 -1.814,0.344 -2.453,1.033 -0.642,0.689 -1.029,1.707 -1.166,3.054 z"/><path id="path59" d="m 274.73,93.299 c 0,-1.475 0.127,-2.854 0.381,-4.138 0.254,-1.284 0.64,-2.549 1.157,-3.794 0.517,-1.245 1.157,-2.493 1.919,-3.743 0.459,-0.762 0.845,-1.311 1.157,-1.648 0.312,-0.337 0.607,-0.547 0.887,-0.63 0.277,-0.083 0.637,-0.125 1.076,-0.125 0.479,0 0.718,0.132 0.718,0.396 0,0.088 -0.225,0.618 -0.674,1.589 -0.449,0.971 -0.872,1.99 -1.267,3.054 -0.396,1.064 -0.762,2.393 -1.1,3.984 -0.336,1.592 -0.505,3.276 -0.505,5.054 0,1.758 0.166,3.423 0.498,4.995 0.332,1.572 0.71,2.935 1.136,4.087 0.424,1.152 0.85,2.185 1.273,3.098 0.426,0.913 0.638,1.409 0.638,1.487 0,0.264 -0.239,0.396 -0.718,0.396 -0.449,0 -0.812,-0.046 -1.092,-0.139 -0.277,-0.093 -0.568,-0.31 -0.871,-0.652 -0.303,-0.342 -0.688,-0.889 -1.157,-1.641 -0.771,-1.289 -1.409,-2.532 -1.911,-3.728 -0.504,-1.196 -0.887,-2.439 -1.15,-3.728 -0.263,-1.289 -0.395,-2.68 -0.395,-4.174 z"/><path id="path61" d="m 298.402,96.199 c 0,1.104 -0.269,2.048 -0.806,2.834 -0.537,0.786 -1.331,1.382 -2.38,1.787 -1.051,0.405 -2.327,0.608 -3.831,0.608 -1.436,0 -2.666,-0.22 -3.691,-0.659 -1.025,-0.439 -1.782,-0.989 -2.271,-1.648 -0.489,-0.659 -0.732,-1.321 -0.732,-1.985 0,-0.439 0.156,-0.815 0.469,-1.128 0.313,-0.313 0.708,-0.469 1.187,-0.469 0.42,0 0.742,0.103 0.967,0.308 0.225,0.205 0.439,0.493 0.645,0.864 0.41,0.713 0.901,1.245 1.472,1.597 0.572,0.352 1.351,0.527 2.337,0.527 0.801,0 1.458,-0.178 1.97,-0.535 0.514,-0.356 0.77,-0.764 0.77,-1.223 0,-0.703 -0.267,-1.216 -0.799,-1.538 -0.532,-0.322 -1.408,-0.63 -2.629,-0.923 -1.377,-0.342 -2.498,-0.701 -3.361,-1.077 -0.865,-0.376 -1.556,-0.872 -2.073,-1.487 -0.517,-0.615 -0.776,-1.372 -0.776,-2.271 0,-0.801 0.239,-1.558 0.718,-2.271 0.479,-0.713 1.184,-1.282 2.116,-1.707 0.932,-0.425 2.059,-0.637 3.377,-0.637 1.035,0 1.965,0.107 2.791,0.322 0.824,0.215 1.513,0.503 2.064,0.864 0.551,0.361 0.972,0.762 1.26,1.201 0.288,0.439 0.433,0.869 0.433,1.289 0,0.459 -0.153,0.835 -0.462,1.128 -0.307,0.293 -0.744,0.439 -1.311,0.439 -0.41,0 -0.76,-0.117 -1.047,-0.352 -0.289,-0.234 -0.618,-0.586 -0.989,-1.055 -0.303,-0.391 -0.659,-0.703 -1.069,-0.938 -0.41,-0.235 -0.967,-0.352 -1.67,-0.352 -0.723,0 -1.323,0.154 -1.802,0.461 -0.479,0.307 -0.718,0.691 -0.718,1.15 0,0.42 0.176,0.764 0.527,1.033 0.351,0.269 0.825,0.491 1.421,0.667 0.596,0.176 1.416,0.391 2.461,0.645 1.24,0.303 2.253,0.664 3.04,1.084 0.785,0.42 1.381,0.916 1.787,1.487 0.402,0.576 0.605,1.227 0.605,1.96 z"/><path id="path63" d="m 315.087,93.591 v 5.317 c 0,0.84 -0.19,1.47 -0.571,1.89 -0.381,0.42 -0.884,0.63 -1.509,0.63 -0.605,0 -1.097,-0.21 -1.472,-0.63 -0.377,-0.42 -0.564,-1.05 -0.564,-1.89 v -6.372 c 0,-1.006 -0.034,-1.787 -0.103,-2.344 -0.069,-0.557 -0.254,-1.013 -0.557,-1.37 -0.303,-0.357 -0.781,-0.535 -1.436,-0.535 -1.309,0 -2.171,0.449 -2.585,1.348 -0.416,0.898 -0.623,2.188 -0.623,3.867 v 5.405 c 0,0.83 -0.188,1.458 -0.564,1.882 -0.376,0.424 -0.871,0.637 -1.486,0.637 -0.605,0 -1.102,-0.212 -1.486,-0.637 -0.387,-0.425 -0.579,-1.052 -0.579,-1.882 v -11.44 c 0,-0.752 0.173,-1.323 0.521,-1.714 0.346,-0.391 0.803,-0.586 1.369,-0.586 0.547,0 1.004,0.183 1.369,0.549 0.367,0.366 0.55,0.872 0.55,1.516 v 0.381 c 0.693,-0.83 1.436,-1.44 2.227,-1.831 0.791,-0.391 1.67,-0.586 2.637,-0.586 1.006,0 1.87,0.2 2.593,0.601 0.723,0.401 1.318,1.006 1.787,1.816 0.674,-0.82 1.396,-1.428 2.168,-1.824 0.772,-0.396 1.626,-0.593 2.563,-0.593 1.094,0 2.036,0.215 2.827,0.645 0.791,0.43 1.382,1.045 1.772,1.846 0.342,0.723 0.513,1.86 0.513,3.413 v 7.808 c 0,0.84 -0.19,1.47 -0.571,1.89 -0.381,0.42 -0.884,0.63 -1.509,0.63 -0.605,0 -1.102,-0.212 -1.486,-0.637 -0.387,-0.425 -0.579,-1.052 -0.579,-1.882 v -6.724 c 0,-0.859 -0.036,-1.548 -0.11,-2.065 -0.072,-0.518 -0.271,-0.952 -0.593,-1.304 -0.322,-0.352 -0.811,-0.527 -1.465,-0.527 -0.527,0 -1.028,0.156 -1.501,0.469 -0.475,0.312 -0.843,0.732 -1.106,1.26 -0.295,0.673 -0.441,1.864 -0.441,3.573 z"/><path id="path65" d="m 338.437,99.173 c -0.967,0.752 -1.902,1.316 -2.806,1.692 -0.904,0.376 -1.916,0.564 -3.039,0.564 -1.025,0 -1.926,-0.203 -2.703,-0.608 -0.775,-0.405 -1.374,-0.955 -1.794,-1.648 -0.42,-0.693 -0.63,-1.445 -0.63,-2.256 0,-1.094 0.347,-2.026 1.04,-2.798 0.693,-0.772 1.646,-1.289 2.856,-1.553 0.254,-0.059 0.884,-0.19 1.89,-0.396 1.006,-0.206 1.868,-0.393 2.585,-0.564 0.719,-0.171 1.497,-0.378 2.337,-0.623 -0.049,-1.055 -0.262,-1.829 -0.638,-2.322 -0.376,-0.493 -1.154,-0.74 -2.336,-0.74 -1.016,0 -1.779,0.142 -2.293,0.425 -0.512,0.283 -0.951,0.708 -1.318,1.274 -0.365,0.566 -0.625,0.94 -0.775,1.121 -0.152,0.181 -0.477,0.271 -0.975,0.271 -0.449,0 -0.838,-0.144 -1.164,-0.432 -0.328,-0.288 -0.491,-0.657 -0.491,-1.106 0,-0.703 0.249,-1.387 0.747,-2.051 0.498,-0.664 1.274,-1.211 2.329,-1.641 1.055,-0.43 2.368,-0.645 3.94,-0.645 1.758,0 3.14,0.208 4.146,0.623 1.006,0.415 1.716,1.072 2.132,1.97 0.414,0.898 0.622,2.09 0.622,3.574 0,0.938 -0.003,1.733 -0.007,2.388 -0.006,0.654 -0.013,1.382 -0.022,2.183 0,0.752 0.124,1.536 0.374,2.351 0.248,0.815 0.373,1.34 0.373,1.575 0,0.41 -0.193,0.784 -0.578,1.121 -0.387,0.337 -0.823,0.505 -1.312,0.505 -0.41,0 -0.815,-0.193 -1.216,-0.579 -0.401,-0.386 -0.825,-0.943 -1.274,-1.675 z m -0.264,-5.787 c -0.586,0.215 -1.438,0.442 -2.556,0.681 -1.119,0.239 -1.893,0.415 -2.322,0.527 -0.429,0.112 -0.84,0.332 -1.23,0.659 -0.39,0.327 -0.586,0.784 -0.586,1.37 0,0.605 0.229,1.121 0.688,1.545 0.459,0.424 1.06,0.637 1.802,0.637 0.791,0 1.521,-0.173 2.189,-0.52 0.668,-0.347 1.16,-0.793 1.473,-1.34 0.361,-0.605 0.542,-1.602 0.542,-2.988 z"/><path id="path67" d="M 346.156,98.997 V 81.653 c 0,-0.801 0.178,-1.406 0.534,-1.816 0.356,-0.41 0.838,-0.615 1.443,-0.615 0.605,0 1.094,0.203 1.465,0.608 0.371,0.405 0.557,1.013 0.557,1.824 v 17.344 c 0,0.811 -0.188,1.418 -0.564,1.824 -0.376,0.406 -0.861,0.608 -1.457,0.608 -0.586,0 -1.062,-0.21 -1.428,-0.63 -0.367,-0.421 -0.55,-1.022 -0.55,-1.803 z"/><path id="path69" d="M 354.286,98.997 V 81.653 c 0,-0.801 0.178,-1.406 0.534,-1.816 0.356,-0.41 0.838,-0.615 1.443,-0.615 0.605,0 1.094,0.203 1.465,0.608 0.371,0.405 0.557,1.013 0.557,1.824 v 17.344 c 0,0.811 -0.188,1.418 -0.564,1.824 -0.376,0.406 -0.861,0.608 -1.457,0.608 -0.586,0 -1.062,-0.21 -1.428,-0.63 -0.367,-0.421 -0.55,-1.022 -0.55,-1.803 z"/><path id="path71" d="m 369.11,93.299 c 0,2.148 -0.285,4.146 -0.857,5.991 -0.57,1.846 -1.438,3.726 -2.6,5.64 -0.654,1.074 -1.172,1.748 -1.553,2.021 -0.381,0.273 -0.898,0.41 -1.553,0.41 -0.488,0 -0.732,-0.132 -0.732,-0.396 0,-0.088 0.205,-0.559 0.615,-1.414 0.41,-0.855 0.837,-1.873 1.281,-3.054 0.444,-1.181 0.83,-2.571 1.158,-4.167 0.326,-1.597 0.49,-3.274 0.49,-5.032 0,-1.768 -0.166,-3.452 -0.498,-5.054 -0.332,-1.602 -0.718,-2.988 -1.157,-4.16 -0.439,-1.172 -0.864,-2.19 -1.274,-3.054 -0.41,-0.864 -0.615,-1.335 -0.615,-1.414 0,-0.264 0.244,-0.396 0.732,-0.396 0.684,0 1.211,0.129 1.582,0.388 0.371,0.259 0.879,0.93 1.523,2.014 0.576,0.957 1.079,1.899 1.509,2.827 0.43,0.928 0.788,1.855 1.077,2.783 0.287,0.928 0.505,1.895 0.651,2.9 0.146,1.005 0.221,2.063 0.221,3.167 z"/></g><g id="g73" style="display:none"><path id="path75" d="m 36.813,142.167 h -2.197 v -14.001 c -0.529,0.505 -1.223,1.009 -2.082,1.514 -0.858,0.505 -1.629,0.883 -2.313,1.135 v -2.124 c 1.229,-0.578 2.303,-1.277 3.223,-2.1 0.919,-0.822 1.57,-1.619 1.953,-2.393 h 1.416 z"/><path id="path77" d="m 48.861,142.167 h -2.197 v -14.001 c -0.529,0.505 -1.223,1.009 -2.082,1.514 -0.858,0.505 -1.629,0.883 -2.313,1.135 v -2.124 c 1.229,-0.578 2.303,-1.277 3.223,-2.1 0.919,-0.822 1.57,-1.619 1.953,-2.393 h 1.416 z"/><path id="path79" d="m 61.947,147.16 -0.244,-2.063 c 0.48,0.13 0.899,0.195 1.257,0.195 0.488,0 0.879,-0.081 1.172,-0.244 0.293,-0.163 0.533,-0.391 0.72,-0.684 0.138,-0.22 0.362,-0.765 0.671,-1.636 0.041,-0.122 0.105,-0.301 0.195,-0.537 L 60.8,129.203 h 2.368 l 2.698,7.507 c 0.35,0.952 0.663,1.953 0.94,3.003 0.252,-1.009 0.553,-1.994 0.903,-2.954 l 2.771,-7.556 h 2.197 l -4.932,13.183 c -0.529,1.424 -0.94,2.405 -1.233,2.942 -0.391,0.724 -0.838,1.255 -1.343,1.593 -0.505,0.338 -1.107,0.507 -1.807,0.507 -0.422,0 -0.894,-0.089 -1.415,-0.268 z"/><path id="path81" d="m 83.419,137.992 2.271,0.281 c -0.358,1.326 -1.021,2.355 -1.99,3.088 -0.969,0.732 -2.206,1.099 -3.711,1.099 -1.896,0 -3.4,-0.584 -4.51,-1.752 -1.111,-1.167 -1.667,-2.805 -1.667,-4.913 0,-2.181 0.562,-3.873 1.685,-5.078 1.123,-1.204 2.58,-1.807 4.37,-1.807 1.733,0 3.149,0.59 4.248,1.77 1.099,1.18 1.648,2.84 1.648,4.98 0,0.13 -0.004,0.325 -0.012,0.586 h -9.668 c 0.081,1.424 0.484,2.515 1.208,3.271 0.724,0.757 1.627,1.135 2.71,1.135 0.806,0 1.493,-0.211 2.063,-0.635 0.57,-0.422 1.021,-1.097 1.355,-2.025 z m -7.214,-3.552 h 7.239 c -0.098,-1.091 -0.375,-1.908 -0.83,-2.454 -0.7,-0.846 -1.607,-1.27 -2.722,-1.27 -1.009,0 -1.857,0.338 -2.545,1.013 -0.688,0.677 -1.069,1.58 -1.142,2.711 z"/><path id="path83" d="m 96.908,140.568 c -0.814,0.691 -1.597,1.18 -2.35,1.465 -0.753,0.284 -1.561,0.427 -2.423,0.427 -1.424,0 -2.519,-0.348 -3.284,-1.044 -0.765,-0.695 -1.147,-1.584 -1.147,-2.667 0,-0.635 0.145,-1.215 0.434,-1.739 0.289,-0.525 0.667,-0.946 1.135,-1.264 0.468,-0.317 0.995,-0.557 1.581,-0.72 0.431,-0.114 1.082,-0.224 1.953,-0.33 1.774,-0.211 3.08,-0.464 3.918,-0.757 0.008,-0.301 0.012,-0.492 0.012,-0.573 0,-0.895 -0.208,-1.526 -0.623,-1.892 -0.562,-0.496 -1.396,-0.745 -2.502,-0.745 -1.034,0 -1.796,0.181 -2.289,0.543 -0.492,0.362 -0.856,1.003 -1.092,1.922 l -2.148,-0.293 c 0.195,-0.919 0.517,-1.662 0.964,-2.228 0.447,-0.565 1.094,-1.001 1.941,-1.306 0.846,-0.306 1.827,-0.458 2.942,-0.458 1.106,0 2.006,0.13 2.698,0.391 0.691,0.261 1.2,0.588 1.526,0.982 0.325,0.395 0.553,0.894 0.684,1.496 0.073,0.375 0.11,1.05 0.11,2.026 v 2.93 c 0,2.043 0.047,3.334 0.14,3.875 0.094,0.542 0.279,1.061 0.556,1.557 h -2.295 c -0.229,-0.454 -0.376,-0.988 -0.441,-1.598 z m -0.183,-4.907 c -0.798,0.325 -1.994,0.603 -3.589,0.83 -0.903,0.13 -1.542,0.276 -1.917,0.439 -0.375,0.163 -0.664,0.4 -0.867,0.714 -0.204,0.313 -0.305,0.661 -0.305,1.044 0,0.586 0.222,1.074 0.665,1.465 0.444,0.391 1.093,0.586 1.947,0.586 0.846,0 1.599,-0.186 2.258,-0.556 0.659,-0.37 1.143,-0.877 1.453,-1.52 0.236,-0.496 0.354,-1.229 0.354,-2.197 v -0.805 z"/><path id="path85" d="m 102.328,142.167 v -12.963 h 1.978 v 1.965 c 0.504,-0.919 0.97,-1.526 1.398,-1.819 0.427,-0.293 0.897,-0.439 1.41,-0.439 0.74,0 1.493,0.236 2.258,0.708 l -0.757,2.039 c -0.537,-0.317 -1.074,-0.476 -1.611,-0.476 -0.48,0 -0.912,0.145 -1.294,0.434 -0.383,0.289 -0.655,0.689 -0.818,1.202 -0.244,0.781 -0.366,1.636 -0.366,2.563 v 6.787 h -2.198 z"/><path id="path87" d="m 109.799,138.298 2.173,-0.342 c 0.122,0.871 0.462,1.538 1.019,2.002 0.558,0.464 1.337,0.695 2.338,0.695 1.009,0 1.758,-0.205 2.246,-0.616 0.488,-0.411 0.732,-0.893 0.732,-1.446 0,-0.496 -0.216,-0.887 -0.647,-1.172 -0.301,-0.195 -1.05,-0.443 -2.246,-0.745 -1.611,-0.406 -2.728,-0.759 -3.351,-1.056 -0.622,-0.297 -1.094,-0.708 -1.416,-1.233 -0.321,-0.524 -0.482,-1.104 -0.482,-1.739 0,-0.578 0.132,-1.113 0.397,-1.605 0.264,-0.492 0.624,-0.901 1.08,-1.227 0.342,-0.252 0.808,-0.466 1.397,-0.641 0.59,-0.175 1.223,-0.263 1.898,-0.263 1.017,0 1.91,0.146 2.68,0.439 0.769,0.293 1.336,0.689 1.703,1.19 0.366,0.5 0.618,1.17 0.757,2.008 l -2.148,0.292 c -0.098,-0.667 -0.38,-1.188 -0.848,-1.562 -0.468,-0.374 -1.129,-0.562 -1.984,-0.562 -1.009,0 -1.729,0.167 -2.161,0.5 -0.432,0.334 -0.647,0.725 -0.647,1.172 0,0.285 0.089,0.541 0.269,0.769 0.179,0.236 0.459,0.432 0.842,0.586 0.22,0.082 0.867,0.269 1.941,0.562 1.554,0.415 2.639,0.755 3.253,1.02 0.614,0.265 1.096,0.649 1.446,1.153 0.35,0.505 0.525,1.132 0.525,1.88 0,0.732 -0.213,1.422 -0.641,2.069 -0.427,0.646 -1.043,1.147 -1.849,1.501 -0.806,0.354 -1.717,0.531 -2.734,0.531 -1.685,0 -2.968,-0.35 -3.851,-1.05 -0.884,-0.697 -1.447,-1.735 -1.691,-3.11 z"/><path id="path89" d="m 129.306,135.685 c 0,-2.4 0.667,-4.179 2.002,-5.334 1.115,-0.96 2.474,-1.44 4.077,-1.44 1.782,0 3.239,0.584 4.37,1.752 1.131,1.167 1.697,2.781 1.697,4.839 0,1.669 -0.25,2.98 -0.75,3.937 -0.501,0.957 -1.229,1.699 -2.186,2.229 -0.956,0.528 -2,0.793 -3.131,0.793 -1.815,0 -3.282,-0.581 -4.4,-1.745 -1.12,-1.166 -1.679,-2.841 -1.679,-5.031 z m 2.258,0 c 0,1.66 0.362,2.903 1.086,3.729 0.724,0.826 1.636,1.239 2.734,1.239 1.09,0 1.998,-0.415 2.722,-1.245 0.724,-0.83 1.086,-2.095 1.086,-3.796 0,-1.604 -0.364,-2.818 -1.093,-3.644 -0.728,-0.826 -1.634,-1.239 -2.716,-1.239 -1.099,0 -2.01,0.411 -2.734,1.233 -0.723,0.822 -1.085,2.063 -1.085,3.723 z"/><path id="path91" d="m 143.979,142.167 v -17.895 h 2.197 v 17.895 z"/><path id="path93" d="m 157.992,142.167 v -1.636 c -0.822,1.286 -2.031,1.929 -3.625,1.929 -1.034,0 -1.984,-0.285 -2.85,-0.854 -0.867,-0.569 -1.538,-1.365 -2.015,-2.387 -0.476,-1.021 -0.714,-2.194 -0.714,-3.521 0,-1.294 0.215,-2.468 0.647,-3.521 0.431,-1.054 1.078,-1.862 1.941,-2.423 0.862,-0.562 1.827,-0.842 2.893,-0.842 0.781,0 1.477,0.165 2.087,0.494 0.61,0.33 1.106,0.759 1.489,1.288 v -6.421 h 2.185 v 17.895 h -2.038 z m -6.946,-6.47 c 0,1.66 0.35,2.901 1.05,3.724 0.7,0.822 1.526,1.232 2.478,1.232 0.96,0 1.776,-0.393 2.447,-1.178 0.672,-0.785 1.007,-1.983 1.007,-3.595 0,-1.774 -0.342,-3.076 -1.025,-3.906 -0.683,-0.83 -1.526,-1.245 -2.527,-1.245 -0.977,0 -1.792,0.399 -2.447,1.196 -0.655,0.798 -0.983,2.055 -0.983,3.772 z"/><path id="path95" d="m 169.577,136.796 v -2.209 h 6.75 v 2.209 z"/><path id="path97" d="m 185.702,142.167 v -12.963 h 1.978 v 1.843 c 0.952,-1.424 2.327,-2.136 4.126,-2.136 0.781,0 1.5,0.141 2.155,0.421 0.655,0.281 1.145,0.649 1.471,1.105 0.325,0.456 0.553,0.997 0.684,1.624 0.081,0.407 0.122,1.119 0.122,2.136 v 7.971 h -2.197 v -7.886 c 0,-0.895 -0.085,-1.564 -0.256,-2.007 -0.171,-0.444 -0.474,-0.798 -0.91,-1.062 -0.435,-0.264 -0.946,-0.396 -1.532,-0.396 -0.936,0 -1.744,0.297 -2.423,0.891 -0.679,0.594 -1.019,1.721 -1.019,3.381 v 7.08 h -2.199 z"/><path id="path99" d="m 208.48,137.992 2.271,0.281 c -0.358,1.326 -1.021,2.355 -1.99,3.088 -0.968,0.732 -2.205,1.099 -3.71,1.099 -1.896,0 -3.4,-0.584 -4.511,-1.752 -1.111,-1.167 -1.667,-2.805 -1.667,-4.913 0,-2.181 0.562,-3.873 1.685,-5.078 1.124,-1.204 2.58,-1.807 4.37,-1.807 1.734,0 3.149,0.59 4.249,1.77 1.098,1.18 1.647,2.84 1.647,4.98 0,0.13 -0.004,0.325 -0.013,0.586 h -9.667 c 0.08,1.424 0.483,2.515 1.208,3.271 0.724,0.757 1.628,1.135 2.71,1.135 0.806,0 1.493,-0.211 2.063,-0.635 0.57,-0.422 1.021,-1.097 1.355,-2.025 z m -7.214,-3.552 h 7.239 c -0.098,-1.091 -0.374,-1.908 -0.83,-2.454 -0.7,-0.846 -1.607,-1.27 -2.722,-1.27 -1.01,0 -1.857,0.338 -2.546,1.013 -0.687,0.677 -1.067,1.58 -1.141,2.711 z"/><path id="path101" d="m 222.384,137.992 2.271,0.281 c -0.358,1.326 -1.021,2.355 -1.99,3.088 -0.968,0.732 -2.205,1.099 -3.711,1.099 -1.896,0 -3.399,-0.584 -4.51,-1.752 -1.111,-1.167 -1.666,-2.805 -1.666,-4.913 0,-2.181 0.561,-3.873 1.684,-5.078 1.123,-1.204 2.58,-1.807 4.371,-1.807 1.732,0 3.148,0.59 4.248,1.77 1.098,1.18 1.647,2.84 1.647,4.98 0,0.13 -0.004,0.325 -0.013,0.586 h -9.668 c 0.082,1.424 0.484,2.515 1.209,3.271 0.725,0.756 1.628,1.135 2.71,1.135 0.806,0 1.493,-0.211 2.063,-0.635 0.57,-0.422 1.021,-1.097 1.355,-2.025 z m -7.214,-3.552 h 7.238 c -0.098,-1.091 -0.374,-1.908 -0.83,-2.454 -0.7,-0.846 -1.607,-1.27 -2.723,-1.27 -1.009,0 -1.857,0.338 -2.545,1.013 -0.687,0.677 -1.068,1.58 -1.14,2.711 z"/><path id="path103" d="m 235.824,142.167 v -1.636 c -0.822,1.286 -2.03,1.929 -3.625,1.929 -1.034,0 -1.984,-0.285 -2.851,-0.854 -0.867,-0.569 -1.538,-1.365 -2.015,-2.387 -0.476,-1.021 -0.714,-2.194 -0.714,-3.521 0,-1.294 0.216,-2.468 0.647,-3.521 0.431,-1.054 1.078,-1.862 1.94,-2.423 0.862,-0.561 1.827,-0.842 2.894,-0.842 0.781,0 1.477,0.165 2.087,0.494 0.61,0.33 1.106,0.759 1.489,1.288 v -6.421 h 2.186 v 17.895 h -2.038 z m -6.945,-6.47 c 0,1.66 0.35,2.901 1.049,3.724 0.7,0.822 1.526,1.232 2.479,1.232 0.96,0 1.776,-0.393 2.447,-1.178 0.672,-0.785 1.008,-1.983 1.008,-3.595 0,-1.774 -0.342,-3.076 -1.025,-3.906 -0.683,-0.83 -1.526,-1.245 -2.527,-1.245 -0.977,0 -1.793,0.399 -2.447,1.196 -0.657,0.798 -0.984,2.055 -0.984,3.772 z"/><path id="path105" d="m 240.439,138.298 2.172,-0.342 c 0.123,0.871 0.462,1.538 1.02,2.002 0.558,0.464 1.337,0.695 2.338,0.695 1.009,0 1.758,-0.205 2.246,-0.616 0.488,-0.411 0.732,-0.893 0.732,-1.446 0,-0.496 -0.216,-0.887 -0.646,-1.172 -0.302,-0.195 -1.051,-0.443 -2.246,-0.745 -1.611,-0.406 -2.729,-0.759 -3.352,-1.056 -0.622,-0.297 -1.095,-0.708 -1.416,-1.233 -0.321,-0.524 -0.482,-1.104 -0.482,-1.739 0,-0.578 0.133,-1.113 0.397,-1.605 0.264,-0.492 0.624,-0.901 1.08,-1.227 0.342,-0.252 0.808,-0.466 1.397,-0.641 0.59,-0.175 1.223,-0.263 1.898,-0.263 1.018,0 1.91,0.146 2.68,0.439 0.769,0.293 1.336,0.689 1.703,1.19 0.365,0.5 0.618,1.17 0.756,2.008 l -2.148,0.292 c -0.098,-0.667 -0.38,-1.188 -0.848,-1.562 -0.469,-0.374 -1.129,-0.562 -1.984,-0.562 -1.009,0 -1.729,0.167 -2.16,0.5 -0.432,0.334 -0.646,0.725 -0.646,1.172 0,0.285 0.089,0.541 0.268,0.769 0.18,0.236 0.46,0.432 0.843,0.586 0.22,0.082 0.866,0.269 1.94,0.562 1.555,0.415 2.639,0.755 3.254,1.02 0.614,0.265 1.097,0.649 1.446,1.153 0.35,0.505 0.524,1.132 0.524,1.88 0,0.732 -0.213,1.422 -0.641,2.069 -0.427,0.646 -1.043,1.147 -1.85,1.501 -0.805,0.354 -1.717,0.531 -2.734,0.531 -1.684,0 -2.968,-0.35 -3.851,-1.05 -0.883,-0.697 -1.445,-1.735 -1.69,-3.11 z"/><path id="path107" d="m 260.764,142.167 v -12.963 h 1.977 v 1.843 c 0.953,-1.424 2.328,-2.136 4.127,-2.136 0.781,0 1.499,0.141 2.154,0.421 0.654,0.281 1.146,0.649 1.471,1.105 0.325,0.456 0.554,0.997 0.684,1.624 0.081,0.407 0.122,1.119 0.122,2.136 v 7.971 h -2.197 v -7.886 c 0,-0.895 -0.085,-1.564 -0.257,-2.007 -0.17,-0.444 -0.474,-0.798 -0.909,-1.062 -0.436,-0.264 -0.946,-0.396 -1.532,-0.396 -0.936,0 -1.743,0.297 -2.423,0.891 -0.68,0.594 -1.019,1.721 -1.019,3.381 v 7.08 h -2.198 z"/><path id="path109" d="m 283.542,137.992 2.271,0.281 c -0.358,1.326 -1.021,2.355 -1.99,3.088 -0.968,0.732 -2.205,1.099 -3.711,1.099 -1.896,0 -3.399,-0.584 -4.51,-1.752 -1.111,-1.167 -1.666,-2.805 -1.666,-4.913 0,-2.181 0.561,-3.873 1.684,-5.078 1.123,-1.204 2.58,-1.807 4.371,-1.807 1.732,0 3.148,0.59 4.248,1.77 1.098,1.18 1.647,2.84 1.647,4.98 0,0.13 -0.004,0.325 -0.013,0.586 h -9.668 c 0.082,1.424 0.484,2.515 1.209,3.271 0.725,0.756 1.628,1.135 2.71,1.135 0.806,0 1.493,-0.211 2.063,-0.635 0.57,-0.422 1.021,-1.097 1.355,-2.025 z m -7.214,-3.552 h 7.238 c -0.098,-1.091 -0.374,-1.908 -0.83,-2.454 -0.7,-0.846 -1.607,-1.27 -2.723,-1.27 -1.009,0 -1.857,0.338 -2.545,1.013 -0.687,0.677 -1.068,1.58 -1.14,2.711 z"/><path id="path111" d="m 290.964,142.167 -3.968,-12.963 h 2.271 l 2.062,7.483 0.77,2.783 c 0.032,-0.139 0.256,-1.029 0.672,-2.674 l 2.062,-7.592 h 2.258 l 1.941,7.519 0.646,2.479 0.745,-2.503 2.222,-7.495 h 2.137 l -4.053,12.963 h -2.283 l -2.062,-7.764 -0.501,-2.209 -2.624,9.973 z"/><path id="path113" d="m 318.368,140.202 0.317,1.94 c -0.618,0.13 -1.172,0.195 -1.66,0.195 -0.798,0 -1.416,-0.126 -1.855,-0.378 -0.439,-0.252 -0.749,-0.584 -0.928,-0.995 -0.179,-0.411 -0.269,-1.275 -0.269,-2.594 v -7.458 h -1.611 v -1.709 h 1.611 v -3.21 l 2.186,-1.318 v 4.529 h 2.209 v 1.709 h -2.209 v 7.581 c 0,0.627 0.038,1.029 0.115,1.208 0.077,0.18 0.203,0.322 0.379,0.428 0.175,0.105 0.425,0.158 0.75,0.158 0.244,-0.001 0.567,-0.03 0.965,-0.086 z"/><path id="path115" d="m 320.42,147.16 -0.244,-2.063 c 0.479,0.13 0.898,0.195 1.257,0.195 0.488,0 0.879,-0.081 1.172,-0.244 0.293,-0.163 0.533,-0.391 0.72,-0.684 0.139,-0.22 0.362,-0.765 0.672,-1.636 0.041,-0.122 0.105,-0.301 0.195,-0.537 l -4.92,-12.988 h 2.369 l 2.697,7.507 c 0.35,0.952 0.663,1.953 0.939,3.003 0.253,-1.009 0.554,-1.994 0.904,-2.954 l 2.771,-7.556 h 2.197 l -4.932,13.183 c -0.529,1.424 -0.94,2.405 -1.233,2.942 -0.391,0.724 -0.838,1.255 -1.342,1.593 -0.505,0.338 -1.107,0.507 -1.807,0.507 -0.423,0 -0.895,-0.089 -1.415,-0.268 z"/><path id="path117" d="m 332.992,142.167 v -12.963 h 1.979 v 1.965 c 0.504,-0.919 0.97,-1.526 1.397,-1.819 0.427,-0.293 0.897,-0.439 1.409,-0.439 0.741,0 1.494,0.236 2.259,0.708 l -0.757,2.039 c -0.537,-0.317 -1.074,-0.476 -1.611,-0.476 -0.48,0 -0.911,0.145 -1.294,0.434 -0.383,0.289 -0.655,0.689 -0.817,1.202 -0.244,0.781 -0.367,1.636 -0.367,2.563 v 6.787 h -2.198 z"/><path id="path119" d="m 350.216,137.992 2.271,0.281 c -0.358,1.326 -1.021,2.355 -1.99,3.088 -0.968,0.732 -2.205,1.099 -3.711,1.099 -1.896,0 -3.399,-0.584 -4.51,-1.752 -1.111,-1.167 -1.666,-2.805 -1.666,-4.913 0,-2.181 0.561,-3.873 1.684,-5.078 1.123,-1.204 2.58,-1.807 4.371,-1.807 1.732,0 3.148,0.59 4.248,1.77 1.098,1.18 1.647,2.84 1.647,4.98 0,0.13 -0.004,0.325 -0.013,0.586 h -9.668 c 0.082,1.424 0.484,2.515 1.209,3.271 0.725,0.756 1.628,1.135 2.71,1.135 0.806,0 1.493,-0.211 2.063,-0.635 0.57,-0.422 1.021,-1.097 1.355,-2.025 z m -7.214,-3.552 h 7.238 c -0.098,-1.091 -0.374,-1.908 -0.83,-2.454 -0.7,-0.846 -1.607,-1.27 -2.723,-1.27 -1.009,0 -1.857,0.338 -2.545,1.013 -0.687,0.677 -1.068,1.58 -1.14,2.711 z"/><path id="path121" d="m 354.367,138.298 2.172,-0.342 c 0.123,0.871 0.462,1.538 1.02,2.002 0.558,0.464 1.337,0.695 2.338,0.695 1.009,0 1.758,-0.205 2.246,-0.616 0.488,-0.411 0.732,-0.893 0.732,-1.446 0,-0.496 -0.216,-0.887 -0.646,-1.172 -0.302,-0.195 -1.051,-0.443 -2.246,-0.745 -1.611,-0.406 -2.729,-0.759 -3.352,-1.056 -0.622,-0.297 -1.095,-0.708 -1.416,-1.233 -0.321,-0.524 -0.482,-1.104 -0.482,-1.739 0,-0.578 0.133,-1.113 0.397,-1.605 0.264,-0.492 0.624,-0.901 1.08,-1.227 0.342,-0.252 0.808,-0.466 1.397,-0.641 0.59,-0.175 1.223,-0.263 1.898,-0.263 1.018,0 1.91,0.146 2.68,0.439 0.769,0.293 1.336,0.689 1.703,1.19 0.365,0.5 0.618,1.17 0.756,2.008 l -2.148,0.292 c -0.098,-0.667 -0.38,-1.188 -0.848,-1.562 -0.469,-0.374 -1.129,-0.562 -1.984,-0.562 -1.009,0 -1.729,0.167 -2.16,0.5 -0.432,0.334 -0.646,0.725 -0.646,1.172 0,0.285 0.089,0.541 0.268,0.769 0.18,0.236 0.46,0.432 0.843,0.586 0.22,0.082 0.866,0.269 1.94,0.562 1.555,0.415 2.639,0.755 3.254,1.02 0.614,0.265 1.097,0.649 1.446,1.153 0.35,0.505 0.524,1.132 0.524,1.88 0,0.732 -0.213,1.422 -0.641,2.069 -0.427,0.646 -1.043,1.147 -1.85,1.501 -0.805,0.354 -1.717,0.531 -2.734,0.531 -1.684,0 -2.968,-0.35 -3.851,-1.05 -0.883,-0.697 -1.446,-1.735 -1.69,-3.11 z"/><path id="path123" d="m 29.428,172.167 v -17.896 h 6.75 c 1.188,0 2.095,0.058 2.722,0.171 0.879,0.146 1.615,0.426 2.209,0.836 0.594,0.411 1.072,0.987 1.434,1.728 0.362,0.741 0.543,1.555 0.543,2.441 0,1.522 -0.484,2.81 -1.453,3.863 -0.969,1.055 -2.718,1.581 -5.249,1.581 h -4.59 v 7.275 h -2.366 z m 2.368,-9.387 h 4.626 c 1.53,0 2.616,-0.285 3.259,-0.854 0.643,-0.569 0.964,-1.371 0.964,-2.405 0,-0.748 -0.189,-1.39 -0.568,-1.923 -0.378,-0.532 -0.877,-0.885 -1.495,-1.056 -0.399,-0.105 -1.135,-0.158 -2.209,-0.158 h -4.578 v 6.396 z"/><path id="path125" d="m 45.822,172.167 v -17.896 h 2.197 v 6.421 c 1.025,-1.188 2.319,-1.782 3.882,-1.782 0.96,0 1.794,0.189 2.502,0.567 0.708,0.379 1.215,0.902 1.52,1.569 0.306,0.667 0.458,1.636 0.458,2.905 v 8.215 h -2.197 v -8.215 c 0,-1.099 -0.238,-1.898 -0.714,-2.399 -0.477,-0.5 -1.15,-0.75 -2.021,-0.75 -0.651,0 -1.264,0.169 -1.837,0.506 -0.574,0.338 -0.983,0.796 -1.227,1.374 -0.244,0.578 -0.366,1.375 -0.366,2.393 v 7.092 z"/><path id="path127" d="m 58.908,165.685 c 0,-2.4 0.667,-4.179 2.002,-5.335 1.115,-0.96 2.474,-1.44 4.077,-1.44 1.782,0 3.239,0.584 4.37,1.752 1.131,1.168 1.697,2.781 1.697,4.84 0,1.669 -0.25,2.98 -0.75,3.937 -0.501,0.957 -1.229,1.699 -2.186,2.229 -0.956,0.528 -2,0.793 -3.131,0.793 -1.815,0 -3.282,-0.581 -4.4,-1.745 -1.12,-1.166 -1.679,-2.841 -1.679,-5.031 z m 2.258,0 c 0,1.66 0.362,2.903 1.086,3.729 0.724,0.826 1.636,1.239 2.734,1.239 1.09,0 1.998,-0.415 2.722,-1.245 0.724,-0.83 1.086,-2.095 1.086,-3.796 0,-1.604 -0.364,-2.818 -1.093,-3.645 -0.728,-0.825 -1.634,-1.238 -2.716,-1.238 -1.099,0 -2.01,0.411 -2.734,1.232 -0.723,0.823 -1.085,2.064 -1.085,3.724 z"/><path id="path129" d="m 73.629,172.167 v -12.964 h 1.978 v 1.844 c 0.952,-1.424 2.327,-2.137 4.126,-2.137 0.781,0 1.5,0.141 2.155,0.421 0.655,0.281 1.145,0.649 1.471,1.105 0.325,0.456 0.553,0.997 0.684,1.623 0.081,0.407 0.122,1.119 0.122,2.137 v 7.971 h -2.197 v -7.886 c 0,-0.895 -0.085,-1.564 -0.256,-2.008 -0.171,-0.444 -0.474,-0.798 -0.91,-1.062 -0.435,-0.264 -0.946,-0.396 -1.532,-0.396 -0.936,0 -1.744,0.298 -2.423,0.892 -0.679,0.594 -1.019,1.721 -1.019,3.381 v 7.08 h -2.199 z"/><path id="path131" d="m 96.408,167.992 2.271,0.281 c -0.358,1.326 -1.021,2.355 -1.99,3.088 -0.969,0.732 -2.206,1.099 -3.711,1.099 -1.896,0 -3.4,-0.584 -4.51,-1.752 -1.111,-1.167 -1.667,-2.805 -1.667,-4.913 0,-2.181 0.562,-3.873 1.685,-5.078 1.123,-1.204 2.58,-1.807 4.37,-1.807 1.733,0 3.149,0.591 4.248,1.771 1.099,1.18 1.648,2.84 1.648,4.98 0,0.13 -0.004,0.325 -0.012,0.586 h -9.668 c 0.081,1.424 0.484,2.515 1.208,3.271 0.724,0.757 1.627,1.135 2.71,1.135 0.806,0 1.493,-0.211 2.063,-0.635 0.569,-0.423 1.021,-1.098 1.355,-2.026 z m -7.215,-3.552 h 7.239 c -0.098,-1.091 -0.375,-1.908 -0.83,-2.454 -0.7,-0.846 -1.607,-1.27 -2.722,-1.27 -1.009,0 -1.857,0.338 -2.545,1.014 -0.688,0.676 -1.068,1.579 -1.142,2.71 z"/><path id="path133" d="m 108.664,172.167 v -17.896 h 6.165 c 1.392,0 2.454,0.086 3.186,0.257 1.025,0.236 1.9,0.663 2.625,1.281 0.944,0.798 1.65,1.817 2.118,3.058 0.468,1.241 0.702,2.66 0.702,4.255 0,1.359 -0.159,2.563 -0.476,3.613 -0.317,1.05 -0.725,1.918 -1.221,2.605 -0.497,0.688 -1.04,1.229 -1.629,1.624 -0.59,0.395 -1.302,0.694 -2.137,0.897 -0.834,0.203 -1.792,0.305 -2.875,0.305 h -6.458 z m 2.368,-2.112 h 3.821 c 1.18,0 2.106,-0.11 2.777,-0.33 0.672,-0.22 1.207,-0.528 1.605,-0.928 0.562,-0.562 0.999,-1.316 1.312,-2.265 0.313,-0.947 0.47,-2.097 0.47,-3.448 0,-1.871 -0.307,-3.31 -0.922,-4.315 -0.614,-1.005 -1.361,-1.678 -2.24,-2.02 -0.635,-0.244 -1.656,-0.366 -3.064,-0.366 h -3.76 v 13.672 z"/><path id="path135" d="m 135.312,167.992 2.271,0.281 c -0.358,1.326 -1.021,2.355 -1.99,3.088 -0.969,0.732 -2.206,1.099 -3.711,1.099 -1.896,0 -3.4,-0.584 -4.51,-1.752 -1.111,-1.167 -1.667,-2.805 -1.667,-4.913 0,-2.181 0.562,-3.873 1.685,-5.078 1.123,-1.204 2.58,-1.807 4.37,-1.807 1.733,0 3.149,0.591 4.248,1.771 1.099,1.18 1.648,2.84 1.648,4.98 0,0.13 -0.004,0.325 -0.012,0.586 h -9.668 c 0.081,1.424 0.484,2.515 1.208,3.271 0.724,0.757 1.627,1.135 2.71,1.135 0.806,0 1.493,-0.211 2.063,-0.635 0.569,-0.423 1.021,-1.098 1.355,-2.026 z m -7.215,-3.552 h 7.239 c -0.098,-1.091 -0.375,-1.908 -0.83,-2.454 -0.7,-0.846 -1.607,-1.27 -2.722,-1.27 -1.009,0 -1.857,0.338 -2.545,1.014 -0.688,0.676 -1.069,1.579 -1.142,2.71 z"/><path id="path137" d="m 142.367,172.167 h -2.039 v -17.896 h 2.197 v 6.385 c 0.928,-1.164 2.112,-1.746 3.552,-1.746 0.797,0 1.552,0.161 2.264,0.482 0.712,0.321 1.298,0.773 1.758,1.354 0.46,0.582 0.82,1.284 1.081,2.106 0.26,0.822 0.391,1.701 0.391,2.637 0,2.222 -0.549,3.938 -1.648,5.151 -1.099,1.213 -2.417,1.818 -3.955,1.818 -1.53,0 -2.73,-0.639 -3.601,-1.916 z m -0.024,-6.579 c 0,1.555 0.211,2.678 0.635,3.369 0.691,1.131 1.627,1.696 2.808,1.696 0.96,0 1.79,-0.417 2.49,-1.251 0.7,-0.834 1.05,-2.077 1.05,-3.729 0,-1.692 -0.335,-2.941 -1.007,-3.747 -0.671,-0.806 -1.483,-1.209 -2.435,-1.209 -0.96,0 -1.791,0.417 -2.49,1.251 -0.702,0.834 -1.051,2.04 -1.051,3.62 z"/><path id="path139" d="m 156.271,172.167 h -2.039 v -17.896 h 2.197 v 6.385 c 0.928,-1.164 2.112,-1.746 3.552,-1.746 0.797,0 1.552,0.161 2.264,0.482 0.712,0.321 1.298,0.773 1.758,1.354 0.46,0.582 0.82,1.284 1.081,2.106 0.26,0.822 0.391,1.701 0.391,2.637 0,2.222 -0.549,3.938 -1.648,5.151 -1.099,1.213 -2.417,1.818 -3.955,1.818 -1.53,0 -2.73,-0.639 -3.601,-1.916 z m -0.024,-6.579 c 0,1.555 0.211,2.678 0.635,3.369 0.691,1.131 1.627,1.696 2.808,1.696 0.96,0 1.79,-0.417 2.49,-1.251 0.7,-0.834 1.05,-2.077 1.05,-3.729 0,-1.692 -0.335,-2.941 -1.007,-3.747 -0.671,-0.806 -1.483,-1.209 -2.435,-1.209 -0.96,0 -1.791,0.417 -2.49,1.251 -0.702,0.834 -1.051,2.04 -1.051,3.62 z"/><path id="path141" d="m 168.161,156.799 v -2.527 h 2.197 v 2.527 z m 0,15.368 v -12.964 h 2.197 v 12.964 z"/><path id="path143" d="m 182.577,167.992 2.271,0.281 c -0.358,1.326 -1.021,2.355 -1.99,3.088 -0.969,0.732 -2.206,1.099 -3.711,1.099 -1.896,0 -3.4,-0.584 -4.51,-1.752 -1.111,-1.167 -1.667,-2.805 -1.667,-4.913 0,-2.181 0.562,-3.873 1.685,-5.078 1.123,-1.204 2.58,-1.807 4.37,-1.807 1.733,0 3.149,0.591 4.248,1.771 1.099,1.18 1.648,2.84 1.648,4.98 0,0.13 -0.004,0.325 -0.012,0.586 h -9.668 c 0.081,1.424 0.484,2.515 1.208,3.271 0.724,0.757 1.627,1.135 2.71,1.135 0.806,0 1.493,-0.211 2.063,-0.635 0.57,-0.423 1.021,-1.098 1.355,-2.026 z m -7.214,-3.552 h 7.239 c -0.098,-1.091 -0.375,-1.908 -0.83,-2.454 -0.7,-0.846 -1.607,-1.27 -2.722,-1.27 -1.009,0 -1.857,0.338 -2.545,1.014 -0.689,0.676 -1.069,1.579 -1.142,2.71 z"/><path id="path145" d="m 28.292,196.796 v -2.209 h 6.75 v 2.209 z"/><path id="path147" d="m 43.808,193.341 c 0,-2.116 0.218,-3.819 0.653,-5.109 0.436,-1.289 1.083,-2.284 1.941,-2.984 0.858,-0.699 1.938,-1.05 3.241,-1.05 0.96,0 1.802,0.193 2.527,0.58 0.724,0.387 1.322,0.944 1.794,1.672 0.472,0.729 0.842,1.616 1.111,2.661 0.269,1.046 0.403,2.456 0.403,4.23 0,2.1 -0.216,3.794 -0.647,5.084 -0.432,1.29 -1.076,2.287 -1.935,2.99 -0.859,0.704 -1.943,1.057 -3.253,1.057 -1.726,0 -3.081,-0.618 -4.065,-1.855 -1.181,-1.489 -1.77,-3.914 -1.77,-7.276 z m 2.258,0 c 0,2.938 0.344,4.893 1.031,5.865 0.688,0.973 1.536,1.459 2.545,1.459 1.009,0 1.857,-0.488 2.545,-1.465 0.688,-0.977 1.031,-2.93 1.031,-5.859 0,-2.946 -0.344,-4.903 -1.031,-5.872 -0.688,-0.968 -1.544,-1.452 -2.57,-1.452 -1.009,0 -1.815,0.427 -2.417,1.281 -0.756,1.091 -1.134,3.106 -1.134,6.043 z"/><path id="path149" d="m 57.858,186.615 v -2.111 h 11.584 v 1.709 c -1.14,1.213 -2.269,2.824 -3.388,4.834 -1.119,2.01 -1.983,4.077 -2.594,6.201 -0.439,1.497 -0.72,3.137 -0.842,4.919 H 60.36 c 0.024,-1.407 0.301,-3.108 0.83,-5.103 0.529,-1.993 1.288,-3.916 2.276,-5.768 0.989,-1.852 2.041,-3.412 3.156,-4.682 h -8.764 z"/><path id="path151" d="m 71.945,198.029 2.112,-0.195 c 0.179,0.993 0.521,1.713 1.025,2.16 0.504,0.448 1.151,0.672 1.941,0.672 0.675,0 1.268,-0.154 1.776,-0.464 0.508,-0.31 0.925,-0.723 1.251,-1.239 0.325,-0.517 0.598,-1.215 0.818,-2.094 0.22,-0.879 0.33,-1.773 0.33,-2.686 0,-0.098 -0.004,-0.244 -0.012,-0.439 -0.439,0.7 -1.04,1.268 -1.8,1.703 -0.761,0.436 -1.585,0.653 -2.472,0.653 -1.481,0 -2.734,-0.537 -3.76,-1.611 -1.026,-1.074 -1.538,-2.49 -1.538,-4.248 0,-1.814 0.535,-3.275 1.605,-4.383 1.07,-1.106 2.411,-1.66 4.022,-1.66 1.164,0 2.228,0.313 3.192,0.94 0.964,0.627 1.696,1.52 2.197,2.679 0.5,1.16 0.75,2.839 0.75,5.036 0,2.287 -0.249,4.107 -0.745,5.462 -0.497,1.355 -1.235,2.387 -2.216,3.095 -0.98,0.708 -2.13,1.062 -3.448,1.062 -1.4,0 -2.543,-0.389 -3.43,-1.166 -0.886,-0.777 -1.419,-1.869 -1.598,-3.277 z m 8.996,-7.898 c 0,-1.261 -0.335,-2.262 -1.007,-3.003 -0.671,-0.74 -1.479,-1.11 -2.423,-1.11 -0.977,0 -1.827,0.398 -2.551,1.196 -0.725,0.798 -1.086,1.831 -1.086,3.101 0,1.14 0.344,2.064 1.031,2.776 0.688,0.713 1.536,1.068 2.545,1.068 1.017,0 1.854,-0.355 2.508,-1.068 0.656,-0.712 0.983,-1.699 0.983,-2.96 z"/><path id="path153" d="m 92.562,202.167 v -4.284 h -7.764 v -2.015 l 8.167,-11.597 h 1.794 v 11.597 h 2.417 v 2.015 H 94.76 v 4.284 z m 0,-6.299 V 187.8 l -5.603,8.068 z"/><path id="path155" d="m 99.423,197.479 2.307,-0.195 c 0.171,1.123 0.567,1.968 1.19,2.533 0.622,0.565 1.373,0.849 2.252,0.849 1.058,0 1.953,-0.398 2.686,-1.196 0.733,-0.798 1.099,-1.855 1.099,-3.174 0,-1.253 -0.352,-2.242 -1.056,-2.967 -0.704,-0.724 -1.626,-1.086 -2.765,-1.086 -0.708,0 -1.347,0.16 -1.917,0.481 -0.57,0.322 -1.018,0.739 -1.343,1.252 l -2.063,-0.269 1.733,-9.192 h 8.899 v 2.1 h -7.141 l -0.964,4.81 c 1.074,-0.748 2.201,-1.123 3.381,-1.123 1.562,0 2.881,0.542 3.955,1.624 1.074,1.082 1.611,2.474 1.611,4.175 0,1.619 -0.472,3.02 -1.416,4.199 -1.147,1.448 -2.714,2.173 -4.7,2.173 -1.628,0 -2.956,-0.456 -3.985,-1.367 -1.029,-0.912 -1.617,-2.121 -1.763,-3.627 z"/><path id="path157" d="m 116.708,192.463 c -0.912,-0.334 -1.587,-0.81 -2.026,-1.429 -0.439,-0.618 -0.659,-1.358 -0.659,-2.222 0,-1.302 0.468,-2.396 1.404,-3.283 0.936,-0.887 2.181,-1.331 3.735,-1.331 1.562,0 2.82,0.454 3.772,1.361 0.952,0.907 1.428,2.013 1.428,3.314 0,0.83 -0.218,1.552 -0.653,2.166 -0.436,0.615 -1.097,1.089 -1.984,1.423 1.099,0.358 1.935,0.936 2.508,1.733 0.574,0.798 0.861,1.75 0.861,2.856 0,1.53 -0.542,2.815 -1.624,3.857 -1.083,1.042 -2.507,1.562 -4.272,1.562 -1.766,0 -3.19,-0.523 -4.272,-1.569 -1.083,-1.045 -1.624,-2.35 -1.624,-3.912 0,-1.163 0.295,-2.138 0.885,-2.924 0.59,-0.783 1.43,-1.317 2.521,-1.602 z m -1.147,4.541 c 0,0.627 0.148,1.232 0.445,1.818 0.297,0.586 0.739,1.04 1.325,1.361 0.586,0.321 1.216,0.482 1.892,0.482 1.05,0 1.917,-0.338 2.6,-1.014 0.684,-0.675 1.025,-1.533 1.025,-2.575 0,-1.058 -0.352,-1.933 -1.056,-2.625 -0.704,-0.691 -1.585,-1.037 -2.643,-1.037 -1.034,0 -1.89,0.342 -2.569,1.025 -0.68,0.685 -1.019,1.539 -1.019,2.565 z m 0.708,-8.265 c 0,0.847 0.272,1.538 0.818,2.075 0.545,0.537 1.253,0.806 2.124,0.806 0.846,0 1.54,-0.267 2.082,-0.8 0.541,-0.532 0.812,-1.186 0.812,-1.959 0,-0.806 -0.279,-1.483 -0.836,-2.032 -0.558,-0.55 -1.251,-0.824 -2.082,-0.824 -0.838,0 -1.534,0.269 -2.087,0.806 -0.555,0.536 -0.831,1.18 -0.831,1.928 z"/><path id="path159" d="m 127.377,186.615 v -2.111 h 11.584 v 1.709 c -1.14,1.213 -2.269,2.824 -3.388,4.834 -1.119,2.01 -1.983,4.077 -2.594,6.201 -0.439,1.497 -0.72,3.137 -0.842,4.919 h -2.258 c 0.024,-1.407 0.301,-3.108 0.83,-5.103 0.529,-1.993 1.288,-3.916 2.276,-5.768 0.989,-1.852 2.041,-3.412 3.156,-4.682 h -8.764 z"/><path id="path161" d="m 148.178,202.167 v -4.284 h -7.764 v -2.015 l 8.167,-11.597 h 1.794 v 11.597 h 2.417 v 2.015 h -2.417 v 4.284 z m 0,-6.299 V 187.8 l -5.603,8.068 z"/><path id="path163" d="m 155.038,197.479 2.307,-0.195 c 0.171,1.123 0.567,1.968 1.19,2.533 0.622,0.565 1.373,0.849 2.252,0.849 1.058,0 1.953,-0.398 2.686,-1.196 0.733,-0.798 1.099,-1.855 1.099,-3.174 0,-1.253 -0.352,-2.242 -1.056,-2.967 -0.704,-0.724 -1.626,-1.086 -2.765,-1.086 -0.708,0 -1.347,0.16 -1.917,0.481 -0.57,0.322 -1.018,0.739 -1.343,1.252 l -2.063,-0.269 1.733,-9.192 h 8.899 v 2.1 h -7.141 l -0.964,4.81 c 1.074,-0.748 2.201,-1.123 3.381,-1.123 1.562,0 2.881,0.542 3.955,1.624 1.074,1.082 1.611,2.474 1.611,4.175 0,1.619 -0.472,3.02 -1.416,4.199 -1.147,1.448 -2.714,2.173 -4.7,2.173 -1.628,0 -2.956,-0.456 -3.985,-1.367 -1.029,-0.912 -1.616,-2.121 -1.763,-3.627 z"/><path id="path165" d="m 175.985,202.167 v -4.284 h -7.764 v -2.015 l 8.167,-11.597 h 1.794 v 11.597 h 2.417 v 2.015 h -2.417 v 4.284 z m 0,-6.299 V 187.8 l -5.603,8.068 z"/></g></g><text xml:space="preserve" style="font-weight:bold;font-size:25.3333px;line-height:1.2em;font-family:Arial;-inkscape-font-specification:'Arial Bold';text-align:start;writing-mode:lr-tb;text-anchor:start;display:inline;fill:#000000;stroke-width:4;stroke-linecap:square;paint-order:markers fill stroke" x="18.410986" y="134.50488" id="text3644"><tspan sodipodi:role="line" id="tspan3642" x="18.410986" y="134.50488" style="font-style:normal;font-variant:normal;font-weight:normal;font-stretch:normal;font-size:25.3333px;font-family:Arial;-inkscape-font-specification:Arial">11 years old - needs new tyres</tspan><tspan sodipodi:role="line" x="18.410986" y="164.90485" style="font-style:normal;font-variant:normal;font-weight:normal;font-stretch:normal;font-size:25.3333px;font-family:Arial;-inkscape-font-specification:Arial" id="tspan3648">Phone Debbie - 0794587454</tspan></text></svg>